<svg xmlns="http://www.w3.org/2000/svg" width="443" height="468" viewBox="0 0 443 468"><defs><linearGradient id="a" x1="41.72%" x2="14.622%" y1="100%" y2="15.782%"><stop offset="0%" stop-color="#FFF"/><stop offset="100%" stop-color="#4C4C4C"/></linearGradient></defs><g fill="none" fill-rule="evenodd" opacity=".1"><path fill="url(#a)" fill-rule="nonzero" d="M440.555 246.572c0 .662-.003 1.324-.009 1.985a1 1 0 1 0 2 .017c.006-.667.009-1.334.009-2.002a1 1 0 0 0-2 0zm-.08 5.962a222.91 222.91 0 0 1-.061 1.982 1 1 0 0 0 1.999.071c.023-.666.044-1.332.062-2a1 1 0 1 0-2-.053zm-.24 5.977c-.035.66-.073 1.32-.114 1.978a1 1 0 0 0 1.996.125c.042-.665.08-1.33.116-1.996a1 1 0 1 0-1.997-.107zm-.399 5.957c-.053.664-.11 1.328-.17 1.991a1 1 0 1 0 1.993.179c.06-.67.117-1.339.17-2.01a1 1 0 1 0-1.993-.16zm-.561 5.955c-.072.661-.146 1.321-.223 1.981a1 1 0 0 0 1.986.233c.078-.666.153-1.332.225-1.999a1 1 0 1 0-1.988-.215zm-.722 5.93c-.09.656-.181 1.312-.276 1.968a1 1 0 0 0 1.979.286c.096-.661.189-1.323.278-1.986a1 1 0 0 0-1.981-.268zm-.886 5.921c-.107.658-.218 1.316-.332 1.972a1 1 0 0 0 1.971.341c.115-.663.226-1.326.335-1.99a1 1 0 0 0-1.974-.323zm-1.042 5.87c-.125.652-.253 1.303-.383 1.953a1 1 0 0 0 1.96.395c.132-.657.261-1.314.387-1.972a1 1 0 0 0-1.964-.376zm-1.205 5.855c-.142.646-.287 1.29-.435 1.934a1 1 0 0 0 1.95.447c.148-.65.295-1.3.438-1.95a1 1 0 0 0-1.953-.43zm-1.37 5.84c-.16.643-.324 1.285-.49 1.927a1 1 0 1 0 1.936.501c.168-.647.333-1.296.494-1.945a1 1 0 1 0-1.94-.484zm-1.519 5.757c-.178.64-.36 1.28-.544 1.92a1 1 0 1 0 1.922.553c.186-.645.369-1.29.549-1.937a1 1 0 1 0-1.927-.536zm-1.682 5.735c-.196.637-.395 1.272-.597 1.907a1 1 0 1 0 1.906.606c.204-.64.405-1.282.603-1.924a1 1 0 0 0-1.912-.59zM429.017 317a217.81 217.81 0 0 1-.645 1.876 1 1 0 0 0 1.889.658c.22-.63.436-1.261.65-1.893a1 1 0 1 0-1.894-.641zm-1.995 5.64c-.23.62-.462 1.239-.696 1.857a1 1 0 0 0 1.87.71c.236-.624.47-1.249.702-1.875a1 1 0 0 0-1.876-.693zm-2.152 5.587c-.248.618-.498 1.235-.752 1.85a1 1 0 0 0 1.85.762c.256-.622.509-1.244.759-1.868a1 1 0 0 0-1.857-.744zm-2.298 5.512c-.264.61-.53 1.22-.8 1.827a1 1 0 0 0 1.827.811c.273-.613.542-1.227.809-1.843a1 1 0 1 0-1.836-.795zm-2.45 5.454c-.28.601-.564 1.2-.85 1.8a1 1 0 0 0 1.806.86c.288-.603.573-1.209.856-1.815a1 1 0 0 0-1.813-.845zm-2.604 5.393c-.298.595-.598 1.19-.9 1.781a1 1 0 1 0 1.78.91c.306-.597.609-1.196.909-1.797a1 1 0 1 0-1.79-.894zm-2.745 5.31c-.312.584-.627 1.166-.944 1.747a1 1 0 1 0 1.755.959c.32-.587.638-1.174.953-1.764a1 1 0 1 0-1.764-.942zm-2.894 5.242c-.328.576-.66 1.15-.993 1.723a1 1 0 0 0 1.729 1.006c.336-.578.67-1.158 1.001-1.739a1 1 0 0 0-1.737-.99zm-3.01 5.118c-.344.567-.69 1.132-1.039 1.696a1 1 0 1 0 1.7 1.052c.353-.569.702-1.139 1.049-1.71a1 1 0 0 0-1.71-1.038zm-3.155 5.046c-.358.556-.72 1.111-1.083 1.664a1 1 0 0 0 1.672 1.098c.367-.558.731-1.118 1.093-1.68a1 1 0 1 0-1.682-1.082zm-3.31 4.987c-.374.548-.751 1.095-1.13 1.64a1 1 0 1 0 1.64 1.143c.383-.55.764-1.101 1.142-1.655a1 1 0 0 0-1.651-1.128zm-3.44 4.89c-.39.539-.783 1.076-1.178 1.612a1 1 0 0 0 1.61 1.187c.398-.54.795-1.082 1.188-1.626a1 1 0 1 0-1.62-1.173zm-3.569 4.79c-.404.53-.812 1.056-1.221 1.58a1 1 0 0 0 1.576 1.23c.414-.528.825-1.06 1.233-1.593a1 1 0 1 0-1.588-1.216zm-3.694 4.69c-.419.516-.84 1.03-1.262 1.543a1 1 0 1 0 1.542 1.273c.427-.517.851-1.036 1.274-1.557a1 1 0 0 0-1.554-1.259zm-3.832 4.6c-.431.504-.864 1.005-1.3 1.504a1 1 0 1 0 1.508 1.315c.44-.504.876-1.01 1.311-1.518a1 1 0 0 0-1.52-1.3zm-3.954 4.494c-.444.491-.891.98-1.34 1.468a1 1 0 1 0 1.471 1.355c.453-.492.904-.986 1.353-1.482a1 1 0 0 0-1.484-1.341zm-4.059 4.368c-.459.481-.92.96-1.384 1.437a1 1 0 0 0 1.434 1.394c.468-.481.934-.965 1.397-1.45a1 1 0 1 0-1.447-1.381zm-4.189 4.27c-.47.468-.943.932-1.417 1.395a1 1 0 1 0 1.395 1.432c.48-.467.956-.935 1.43-1.406a1 1 0 1 0-1.408-1.42zm-4.303 4.157c-.483.453-.967.904-1.454 1.353a1 1 0 0 0 1.357 1.47c.49-.453.98-.908 1.466-1.366a1 1 0 0 0-1.37-1.457zm-4.415 4.038c-.496.44-.993.88-1.492 1.316a1 1 0 1 0 1.316 1.505c.504-.44 1.006-.882 1.505-1.327a1 1 0 1 0-1.33-1.494zm-4.525 3.918c-.506.426-1.014.85-1.525 1.273a1 1 0 0 0 1.275 1.54c.515-.425 1.028-.853 1.539-1.284a1 1 0 1 0-1.289-1.53zm-4.63 3.795c-.518.413-1.038.823-1.56 1.232a1 1 0 0 0 1.233 1.575c.526-.412 1.05-.826 1.573-1.243a1 1 0 1 0-1.247-1.564zm-4.72 3.658c-.529.4-1.06.796-1.593 1.19a1 1 0 1 0 1.189 1.608c.538-.398 1.074-.798 1.609-1.201a1 1 0 0 0-1.204-1.597zm-4.835 3.543c-.542.385-1.085.768-1.63 1.148a1 1 0 1 0 1.146 1.64c.55-.384 1.097-.77 1.644-1.159a1 1 0 0 0-1.16-1.63zm-4.918 3.4c-.55.37-1.103.738-1.657 1.102a1 1 0 0 0 1.1 1.67c.559-.367 1.116-.738 1.672-1.111a1 1 0 1 0-1.115-1.66zm-5.014 3.27c-.562.355-1.124.708-1.689 1.058a1 1 0 0 0 1.054 1.7c.57-.354 1.138-.71 1.704-1.068a1 1 0 0 0-1.07-1.69zm-5.09 3.124c-.57.34-1.143.677-1.718 1.012a1 1 0 1 0 1.008 1.728c.58-.338 1.157-.678 1.733-1.021a1 1 0 0 0-1.023-1.719zm-5.143 2.968c-.58.324-1.161.646-1.744.964a1 1 0 1 0 .96 1.755c.588-.322 1.175-.646 1.76-.973a1 1 0 1 0-.976-1.746zm-5.212 2.822c-.589.308-1.179.614-1.77.917a1 1 0 0 0 .912 1.78c.597-.306 1.192-.614 1.786-.926a1 1 0 1 0-.928-1.771zm-5.314 2.693c-.595.291-1.192.58-1.79.866a1 1 0 0 0 .864 1.804c.603-.288 1.205-.58 1.806-.874a1 1 0 1 0-.88-1.796zm-5.395 2.552c-.605.275-1.21.548-1.817.818a1 1 0 0 0 .813 1.828c.613-.273 1.224-.549 1.834-.827a1 1 0 1 0-.83-1.82zm-5.475 2.407c-.612.26-1.224.516-1.838.769a1 1 0 1 0 .763 1.849c.62-.256 1.238-.515 1.855-.776a1 1 0 1 0-.78-1.842zm-5.533 2.255c-.617.241-1.235.48-1.855.716a1 1 0 1 0 .712 1.87c.626-.24 1.25-.48 1.873-.724a1 1 0 0 0-.73-1.862zm-5.586 2.099c-.624.225-1.249.447-1.875.666a1 1 0 0 0 .66 1.887c.633-.22 1.263-.445 1.893-.671a1 1 0 0 0-.678-1.882zm-5.657 1.95c-.631.208-1.263.413-1.895.615a1 1 0 1 0 .608 1.905c.638-.203 1.276-.41 1.912-.62a1 1 0 0 0-.625-1.9zm-5.706 1.794c-.636.19-1.273.377-1.91.562a1 1 0 1 0 .555 1.92c.644-.185 1.286-.374 1.928-.566a1 1 0 0 0-.573-1.916zm-5.752 1.635c-.64.172-1.281.342-1.923.509a1 1 0 1 0 .502 1.935c.648-.168 1.296-.34 1.942-.513a1 1 0 0 0-.52-1.931zm-5.793 1.476c-.646.155-1.292.307-1.939.456a1 1 0 1 0 .45 1.95c.652-.151 1.305-.305 1.956-.461a1 1 0 1 0-.467-1.945zm-5.833 1.317c-.65.137-1.3.271-1.95.402a1 1 0 1 0 .396 1.96c.657-.132 1.312-.267 1.967-.406a1 1 0 1 0-.413-1.956zm-5.849 1.153c-.653.119-1.306.235-1.96.349a1 1 0 1 0 .341 1.97c.66-.114 1.32-.232 1.979-.352a1 1 0 0 0-.36-1.967zm-5.903.996c-.656.102-1.312.2-1.968.295a1 1 0 0 0 .288 1.98c.662-.097 1.324-.196 1.986-.298a1 1 0 0 0-.306-1.977zm-5.913.833c-.658.083-1.317.164-1.976.241a1 1 0 0 0 .234 1.987c.665-.079 1.33-.16 1.994-.244a1 1 0 0 0-.252-1.984zm-5.94.672c-.66.065-1.321.128-1.983.188a1 1 0 1 0 .18 1.992c.667-.06 1.334-.124 2-.19a1 1 0 1 0-.198-1.99zm-5.966.511c-.662.048-1.324.092-1.987.134a1 1 0 1 0 .126 1.996c.669-.042 1.337-.087 2.004-.135a1 1 0 0 0-.143-1.995zm-5.967.349c-.663.03-1.326.056-1.99.08a1 1 0 0 0 .072 1.999c.67-.024 1.34-.051 2.008-.081a1 1 0 0 0-.09-1.998zm-5.986.188c-.663.012-1.327.02-1.991.027a1 1 0 1 0 .018 2c.67-.006 1.34-.015 2.009-.027a1 1 0 0 0-.036-2zm-5.977.027c-.664-.005-1.327-.014-1.99-.026a1 1 0 1 0-.035 2c.669.012 1.338.02 2.007.026a1 1 0 0 0 .018-2zm-5.956-.131c-.663-.024-1.325-.05-1.987-.08a1 1 0 0 0-.089 1.998c.668.03 1.336.057 2.005.08a1 1 0 0 0 .071-1.998zm-5.981-.294c-.661-.041-1.321-.085-1.981-.133a1 1 0 1 0-.143 1.995c.666.048 1.332.093 1.999.134a1 1 0 0 0 .125-1.996zm-5.96-.454c-.658-.059-1.316-.12-1.973-.186a1 1 0 0 0-.197 1.99c.663.066 1.327.129 1.991.188a1 1 0 0 0 .18-1.992zm-5.936-.614c-.661-.078-1.322-.158-1.982-.242a1 1 0 1 0-.25 1.985c.665.084 1.332.165 2 .243a1 1 0 1 0 .232-1.986zm-5.93-.777c-.657-.096-1.313-.194-1.968-.295a1 1 0 1 0-.305 1.977c.661.102 1.323.2 1.986.297a1 1 0 1 0 .287-1.98zm-5.9-.939c-.652-.112-1.303-.228-1.953-.346a1 1 0 0 0-.359 1.967c.656.12 1.313.236 1.97.35a1 1 0 1 0 .342-1.97zm-5.869-1.098c-.651-.13-1.302-.265-1.952-.402a1 1 0 1 0-.412 1.957c.656.138 1.312.274 1.97.406a1 1 0 1 0 .394-1.96zm-5.853-1.262c-.644-.149-1.288-.3-1.93-.454a1 1 0 0 0-.467 1.945c.649.156 1.298.308 1.948.458a1 1 0 0 0 .449-1.95zm-5.815-1.423c-.642-.166-1.283-.336-1.924-.508a1 1 0 0 0-.52 1.931c.647.174 1.294.345 1.942.513a1 1 0 1 0 .502-1.936zm-5.733-1.57a217.43 217.43 0 0 1-1.914-.562 1 1 0 1 0-.572 1.916c.643.192 1.287.381 1.932.567a1 1 0 1 0 .554-1.921zm-5.709-1.733a217.46 217.46 0 0 1-1.901-.616 1 1 0 0 0-.625 1.9c.639.21 1.278.417 1.919.621a1 1 0 1 0 .607-1.905zm-5.682-1.898c-.624-.218-1.247-.438-1.869-.662a1 1 0 1 0-.677 1.882c.628.226 1.257.449 1.886.669a1 1 0 0 0 .66-1.889zm-5.612-2.047c-.623-.236-1.244-.476-1.865-.719a1 1 0 1 0-.728 1.863c.626.245 1.254.487 1.882.726a1 1 0 1 0 .711-1.87zm-5.559-2.202c-.615-.253-1.229-.51-1.842-.769a1 1 0 0 0-.779 1.842c.619.262 1.238.52 1.86.776a1 1 0 1 0 .761-1.849zm-5.502-2.357c-.606-.27-1.212-.542-1.816-.817a1 1 0 0 0-.83 1.82c.61.278 1.221.553 1.834.825a1 1 0 0 0 .812-1.828zm-5.423-2.5c-.598-.286-1.193-.574-1.788-.865a1 1 0 1 0-.879 1.796c.6.294 1.202.585 1.804.873a1 1 0 1 0 .863-1.805zm-5.362-2.654c-.59-.303-1.18-.608-1.769-.916a1 1 0 1 0-.927 1.772c.593.31 1.188.619 1.785.924a1 1 0 1 0 .911-1.78zm-5.296-2.804c-.583-.319-1.165-.64-1.746-.965a1 1 0 1 0-.976 1.745c.586.328 1.174.653 1.763.975a1 1 0 0 0 .96-1.755zm-5.19-2.932c-.576-.335-1.149-.673-1.721-1.014a1 1 0 0 0-1.023 1.719c.577.343 1.156.684 1.736 1.023a1 1 0 0 0 1.008-1.728zm-5.085-3.058c-.566-.35-1.13-.703-1.692-1.059a1 1 0 0 0-1.069 1.69 221.4 221.4 0 0 0 1.707 1.07 1 1 0 0 0 1.054-1.7zm-5.029-3.212c-.554-.365-1.107-.733-1.658-1.103a1 1 0 1 0-1.115 1.66c.556.374 1.114.745 1.674 1.113a1 1 0 0 0 1.1-1.67zm-4.95-3.357c-.543-.378-1.084-.76-1.623-1.143a1 1 0 0 0-1.16 1.63c.544.387 1.09.771 1.638 1.153a1 1 0 0 0 1.144-1.64zm-4.854-3.486c-.533-.394-1.064-.79-1.594-1.189a1 1 0 1 0-1.203 1.598c.534.402 1.07.802 1.608 1.2a1 1 0 1 0 1.189-1.61zm-4.754-3.614c-.522-.408-1.042-.819-1.56-1.232a1 1 0 1 0-1.246 1.565c.523.416 1.048.83 1.574 1.242a1 1 0 1 0 1.232-1.575zm-4.667-3.753c-.512-.424-1.023-.85-1.532-1.278a1 1 0 0 0-1.288 1.53c.513.432 1.029.862 1.546 1.29a1 1 0 0 0 1.274-1.542zm-4.561-3.876c-.499-.436-.996-.874-1.49-1.314a1 1 0 0 0-1.33 1.494c.5.444 1 .886 1.504 1.326a1 1 0 0 0 1.316-1.506zm-4.438-3.983c-.487-.45-.972-.9-1.454-1.354a1 1 0 0 0-1.37 1.458c.488.457.977.913 1.468 1.366a1 1 0 1 0 1.356-1.47zm-4.342-4.116c-.476-.463-.95-.929-1.422-1.397a1 1 0 1 0-1.408 1.42c.476.473.954.943 1.434 1.41a1 1 0 0 0 1.396-1.433zm-4.23-4.23a220.72 220.72 0 0 1-1.384-1.437 1 1 0 1 0-1.446 1.382c.464.485.93.968 1.397 1.449a1 1 0 1 0 1.434-1.395zm-4.113-4.346c-.45-.488-.897-.978-1.342-1.47a1 1 0 0 0-1.483 1.342c.45.497.9.991 1.354 1.484a1 1 0 1 0 1.471-1.356zm-3.995-4.455c-.436-.5-.87-1.003-1.302-1.507a1 1 0 0 0-1.519 1.301c.436.51.874 1.016 1.314 1.52a1 1 0 1 0 1.507-1.314zm-3.86-4.548c-.422-.511-.842-1.024-1.259-1.538a1 1 0 1 0-1.553 1.26c.42.519.844 1.036 1.27 1.551a1 1 0 1 0 1.542-1.273zm-3.751-4.67c-.41-.524-.816-1.05-1.221-1.577a1 1 0 1 0-1.587 1.217c.408.532.819 1.063 1.232 1.592a1 1 0 1 0 1.576-1.232zm-3.625-4.772c-.395-.535-.788-1.072-1.178-1.61a1 1 0 1 0-1.62 1.173c.394.543.79 1.085 1.189 1.625a1 1 0 0 0 1.609-1.188zm-3.485-4.857a219.95 219.95 0 0 1-1.13-1.636 1 1 0 1 0-1.65 1.13c.377.551.757 1.101 1.14 1.65a1 1 0 1 0 1.64-1.144zm-3.354-4.954a219.74 219.74 0 0 1-1.086-1.667 1 1 0 1 0-1.68 1.083c.362.563.727 1.124 1.095 1.683a1 1 0 0 0 1.67-1.099zm-3.222-5.05c-.35-.563-.696-1.128-1.04-1.695a1 1 0 0 0-1.71 1.037c.347.572.697 1.143 1.05 1.711a1 1 0 0 0 1.7-1.052zm-3.056-5.087a219.22 219.22 0 0 1-.992-1.723 1 1 0 0 0-1.738.99c.332.582.666 1.161 1.002 1.739a1 1 0 0 0 1.728-1.006zm-2.94-5.213c-.318-.582-.633-1.166-.946-1.75a1 1 0 0 0-1.764.942c.316.59.634 1.18.955 1.767a1 1 0 0 0 1.755-.959zm-2.754-5.207a218.69 218.69 0 0 1-.898-1.774 1 1 0 0 0-1.788.895c.299.598.6 1.195.906 1.79a1 1 0 1 0 1.78-.911zm-2.644-5.345c-.286-.599-.57-1.199-.85-1.8a1 1 0 1 0-1.813.846c.283.606.57 1.212.858 1.816a1 1 0 0 0 1.805-.862zm-2.511-5.446c-.27-.605-.536-1.213-.8-1.82a1 1 0 0 0-1.835.795c.267.614.536 1.226.807 1.838a1 1 0 0 0 1.828-.813zm-2.35-5.485c-.252-.613-.502-1.227-.749-1.842a1 1 0 1 0-1.856.745c.25.621.502 1.24.757 1.859a1 1 0 0 0 1.849-.762zm-2.203-5.561c-.235-.62-.468-1.24-.698-1.862a1 1 0 1 0-1.876.694c.232.627.467 1.254.705 1.879a1 1 0 1 0 1.87-.711zm-2.048-5.615c-.219-.626-.435-1.254-.648-1.882a1 1 0 1 0-1.894.642c.215.634.433 1.268.654 1.9a1 1 0 0 0 1.888-.66zm-1.892-5.664c-.201-.632-.4-1.265-.596-1.899a1 1 0 1 0-1.91.59c.197.64.397 1.279.6 1.916a1 1 0 1 0 1.906-.607zm-1.735-5.712c-.184-.638-.366-1.276-.544-1.915a1 1 0 1 0-1.926.538c.18.645.363 1.289.548 1.932a1 1 0 1 0 1.922-.555zm-1.583-5.777a217.94 217.94 0 0 1-.491-1.929 1 1 0 0 0-1.94.485c.162.65.327 1.298.495 1.946a1 1 0 0 0 1.936-.502zm-1.42-5.797c-.148-.646-.294-1.293-.437-1.941a1 1 0 0 0-1.953.431c.144.654.291 1.307.442 1.959a1 1 0 1 0 1.949-.449zm-1.264-5.857c-.131-.65-.26-1.301-.384-1.953a1 1 0 0 0-1.965.377c.127.658.256 1.315.389 1.972a1 1 0 1 0 1.96-.396zm-1.1-5.87c-.113-.654-.224-1.308-.331-1.963a1 1 0 0 0-1.974.323c.109.661.22 1.321.334 1.98a1 1 0 1 0 1.97-.34zm-.94-5.904a219.41 219.41 0 0 1-.278-1.971 1 1 0 1 0-1.981.27c.09.663.183 1.326.28 1.988a1 1 0 0 0 1.979-.287zm-.78-5.934c-.078-.659-.152-1.318-.224-1.978a1 1 0 0 0-1.988.215c.072.666.147 1.332.225 1.997a1 1 0 0 0 1.987-.234zm-.617-5.939c-.06-.66-.116-1.322-.17-1.984a1 1 0 0 0-1.993.162c.054.668.11 1.335.171 2.002a1 1 0 1 0 1.992-.18zm-.457-5.963c-.041-.662-.08-1.325-.116-1.988a1 1 0 1 0-1.997.108c.036.67.075 1.338.117 2.006a1 1 0 1 0 1.996-.126zm-.295-5.962c-.024-.663-.045-1.327-.063-1.99a1 1 0 0 0-1.999.054c.018.67.04 1.339.064 2.008a1 1 0 1 0 1.998-.072zm-.135-5.982a224.17 224.17 0 0 1-.01-1.99 1 1 0 1 0-2 0c0 .67.004 1.34.01 2.009a1 1 0 0 0 2-.019zm.024-5.981c.012-.667.027-1.333.044-1.998a1 1 0 0 0-2-.053c-.017.671-.032 1.343-.043 2.016a1 1 0 1 0 2 .035zm.184-5.97c.03-.665.062-1.33.098-1.994a1 1 0 0 0-1.997-.106c-.036.67-.069 1.341-.099 2.012a1 1 0 1 0 1.998.089zm.345-5.971c.048-.663.098-1.325.151-1.987a1 1 0 1 0-1.993-.16c-.054.667-.105 1.336-.152 2.005a1 1 0 1 0 1.994.142zm.506-5.95c.065-.66.133-1.319.204-1.978a1 1 0 0 0-1.989-.214c-.071.665-.14 1.33-.206 1.997a1 1 0 0 0 1.99.196zm.667-5.945c.083-.656.169-1.312.257-1.967a1 1 0 1 0-1.982-.268c-.09.661-.176 1.323-.259 1.985a1 1 0 1 0 1.984.25zm.825-5.897c.101-.658.205-1.315.312-1.972a1 1 0 0 0-1.973-.322c-.108.663-.214 1.326-.316 1.99a1 1 0 1 0 1.977.304zm.992-5.909c.118-.652.24-1.304.364-1.955a1 1 0 0 0-1.964-.375c-.126.656-.248 1.314-.368 1.972a1 1 0 0 0 1.968.358zm1.147-5.854c.137-.652.277-1.303.42-1.954a1 1 0 0 0-1.953-.429c-.144.656-.286 1.313-.424 1.971a1 1 0 1 0 1.957.412zm1.312-5.84c.154-.644.31-1.287.47-1.93a1 1 0 1 0-1.94-.483c-.162.649-.32 1.299-.476 1.949a1 1 0 0 0 1.946.465zm1.47-5.799c.173-.641.348-1.282.526-1.923a1 1 0 1 0-1.927-.536c-.18.646-.356 1.293-.53 1.941a1 1 0 0 0 1.932.518zm1.618-5.716c.19-.639.383-1.276.58-1.913a1 1 0 1 0-1.912-.588 219.79 219.79 0 0 0-.585 1.93 1 1 0 1 0 1.917.57zm1.787-5.712c.206-.629.415-1.256.626-1.882a1 1 0 1 0-1.894-.64c-.214.631-.425 1.264-.633 1.898a1 1 0 1 0 1.9.624zm1.944-5.664c.223-.623.45-1.245.678-1.865a1 1 0 1 0-1.876-.692c-.231.626-.46 1.253-.685 1.882a1 1 0 1 0 1.883.675zm2.092-5.593c.24-.616.484-1.231.73-1.845a1 1 0 0 0-1.857-.743c-.248.62-.493 1.24-.736 1.862a1 1 0 1 0 1.863.726zm2.248-5.539c.259-.613.52-1.225.784-1.836a1 1 0 1 0-1.835-.794c-.267.617-.53 1.234-.792 1.853a1 1 0 0 0 1.843.777zm2.401-5.481c.275-.604.552-1.207.833-1.81a1 1 0 0 0-1.814-.843c-.282.607-.562 1.216-.84 1.825a1 1 0 1 0 1.821.828zm2.545-5.402c.29-.595.583-1.188.879-1.78a1 1 0 0 0-1.79-.893c-.298.597-.593 1.196-.886 1.796a1 1 0 0 0 1.797.877zm2.696-5.339c.307-.588.617-1.175.93-1.76a1 1 0 1 0-1.765-.942c-.315.59-.628 1.183-.938 1.776a1 1 0 0 0 1.773.926zm2.846-5.272c.324-.58.65-1.16.979-1.737a1 1 0 0 0-1.738-.99c-.332.583-.661 1.167-.988 1.753a1 1 0 0 0 1.747.974zm2.974-5.167c.34-.571.681-1.141 1.026-1.71a1 1 0 0 0-1.71-1.036c-.348.573-.693 1.148-1.036 1.725a1 1 0 1 0 1.72 1.021zm3.097-5.06c.355-.561.712-1.121 1.071-1.68a1 1 0 0 0-1.682-1.082c-.362.563-.722 1.129-1.08 1.695a1 1 0 0 0 1.691 1.067zm3.264-5.02c.369-.55.74-1.098 1.113-1.645a1 1 0 1 0-1.651-1.128c-.377.552-.752 1.106-1.124 1.66a1 1 0 1 0 1.662 1.114zm3.384-4.906c.384-.542.77-1.082 1.16-1.62a1 1 0 0 0-1.62-1.172c-.393.543-.783 1.088-1.171 1.634a1 1 0 1 0 1.63 1.158zm3.524-4.826c.4-.531.801-1.06 1.205-1.589a1 1 0 1 0-1.588-1.215c-.408.532-.813 1.066-1.216 1.603a1 1 0 1 0 1.6 1.201zm3.664-4.741c.414-.52.829-1.038 1.247-1.554a1 1 0 1 0-1.555-1.258c-.421.52-.84 1.043-1.257 1.568a1 1 0 0 0 1.565 1.244zm3.777-4.621c.425-.507.854-1.013 1.284-1.516a1 1 0 1 0-1.52-1.3c-.434.508-.866 1.018-1.296 1.53a1 1 0 0 0 1.532 1.286zm3.911-4.531c.44-.496.883-.99 1.327-1.482a1 1 0 1 0-1.484-1.34c-.448.496-.895.994-1.339 1.495a1 1 0 1 0 1.496 1.327zm4.032-4.422c.453-.483.908-.964 1.365-1.444a1 1 0 0 0-1.447-1.38c-.461.483-.92.97-1.378 1.457a1 1 0 1 0 1.46 1.367zm4.15-4.31c.466-.472.935-.941 1.407-1.41a1 1 0 0 0-1.41-1.419c-.475.472-.948.947-1.42 1.423a1 1 0 0 0 1.422 1.407zm4.249-4.18c.48-.46.961-.917 1.445-1.372a1 1 0 1 0-1.37-1.457c-.489.459-.975.92-1.458 1.384a1 1 0 1 0 1.383 1.444zm4.377-4.08c.49-.445.983-.888 1.477-1.328a1 1 0 1 0-1.33-1.494c-.5.445-.996.891-1.491 1.34a1 1 0 0 0 1.344 1.482zm4.486-3.96c.505-.434 1.011-.865 1.52-1.293a1 1 0 0 0-1.29-1.53c-.512.433-1.024.868-1.533 1.305a1 1 0 0 0 1.303 1.518zm4.594-3.839c.515-.418 1.031-.833 1.55-1.247a1 1 0 1 0-1.248-1.563c-.523.417-1.044.837-1.563 1.258a1 1 0 1 0 1.261 1.552zm4.7-3.713a220.18 220.18 0 0 1 1.586-1.208 1 1 0 1 0-1.205-1.597c-.535.404-1.068.81-1.6 1.219a1 1 0 1 0 1.219 1.586zm4.784-3.575c.538-.39 1.077-.778 1.617-1.163a1 1 0 0 0-1.16-1.63c-.546.39-1.09.78-1.632 1.174a1 1 0 1 0 1.175 1.619zm4.885-3.447c.547-.375 1.096-.747 1.646-1.118a1 1 0 0 0-1.115-1.66c-.556.374-1.11.75-1.662 1.129a1 1 0 0 0 1.13 1.65zm4.98-3.315c.557-.36 1.116-.717 1.676-1.072a1 1 0 0 0-1.07-1.69c-.565.358-1.13.719-1.691 1.082a1 1 0 0 0 1.085 1.68zm5.058-3.171c.568-.345 1.137-.688 1.708-1.028a1 1 0 0 0-1.024-1.719c-.576.344-1.15.69-1.724 1.038a1 1 0 0 0 1.04 1.709zm5.148-3.036c.576-.329 1.153-.655 1.731-.979a1 1 0 0 0-.976-1.745c-.584.326-1.166.655-1.747.987a1 1 0 1 0 .992 1.737zm5.2-2.879c.586-.314 1.174-.625 1.762-.934a1 1 0 0 0-.928-1.771c-.594.311-1.187.625-1.778.942a1 1 0 0 0 .945 1.763zm5.249-2.722c.594-.298 1.19-.593 1.786-.886a1 1 0 1 0-.88-1.796c-.603.296-1.203.593-1.803.894a1 1 0 1 0 .897 1.788zm5.386-2.61c.601-.281 1.204-.56 1.807-.835a1 1 0 0 0-.83-1.82c-.61.278-1.218.56-1.824.843a1 1 0 0 0 .847 1.812zm5.448-2.458c.608-.265 1.218-.526 1.829-.785a1 1 0 0 0-.78-1.842c-.617.262-1.232.526-1.846.793a1 1 0 1 0 .797 1.834zm5.506-2.305c.615-.247 1.231-.492 1.848-.734a1 1 0 0 0-.73-1.862c-.622.244-1.244.491-1.865.741a1 1 0 1 0 .747 1.855zm5.581-2.158c.622-.23 1.246-.459 1.87-.684a1 1 0 0 0-.678-1.881c-.63.227-1.26.457-1.888.69a1 1 0 0 0 .696 1.875zm5.633-2.002c.628-.213 1.257-.424 1.888-.632a1 1 0 1 0-.627-1.899c-.636.21-1.27.422-1.905.638a1 1 0 1 0 .644 1.893zm5.683-1.845c.634-.196 1.27-.39 1.905-.58a1 1 0 1 0-.574-1.916c-.642.192-1.283.388-1.923.586a1 1 0 0 0 .592 1.91zm5.729-1.688c.64-.179 1.28-.355 1.921-.528a1 1 0 0 0-.521-1.93c-.647.174-1.294.352-1.939.532a1 1 0 1 0 .539 1.926zm5.772-1.53c.643-.16 1.288-.318 1.933-.474a1 1 0 0 0-.468-1.944 219.6 219.6 0 0 0-1.95.479 1 1 0 1 0 .485 1.94zm5.812-1.37a217.82 217.82 0 0 1 1.946-.421 1 1 0 0 0-.414-1.957c-.656.139-1.31.28-1.964.425a1 1 0 0 0 .432 1.953zm5.871-1.215c.652-.126 1.305-.248 1.958-.368a1 1 0 0 0-.36-1.967c-.66.12-1.318.244-1.976.37a1 1 0 1 0 .378 1.965zm5.885-1.05a218.6 218.6 0 0 1 1.966-.315 1 1 0 0 0-.307-1.976c-.662.102-1.323.208-1.983.317a1 1 0 0 0 .324 1.973zm5.895-.888c.658-.09 1.316-.177 1.975-.26a1 1 0 0 0-.253-1.984c-.665.084-1.329.172-1.992.263a1 1 0 1 0 .27 1.981zm5.945-.73c.66-.071 1.32-.14 1.981-.206a1 1 0 0 0-.198-1.99c-.667.067-1.333.136-1.999.208a1 1 0 0 0 .216 1.989zm5.95-.565c.662-.054 1.323-.105 1.985-.153a1 1 0 1 0-.144-1.995c-.668.049-1.336.1-2.003.154a1 1 0 0 0 .162 1.994zm5.974-.406c.662-.035 1.325-.068 1.988-.098a1 1 0 1 0-.09-1.998c-.67.03-1.338.063-2.007.1a1 1 0 1 0 .109 1.996zm5.972-.243c.663-.018 1.326-.033 1.99-.045a1 1 0 0 0-.036-2c-.67.012-1.34.028-2.009.046a1 1 0 0 0 .055 2zm5.968-.083h.114c.631 0 1.255.003 1.88.008a1 1 0 1 0 .016-2c-.63-.005-1.26-.008-1.896-.008h-.115a1 1 0 0 0 0 2zm5.969.077c.66.017 1.321.037 1.982.06a1 1 0 0 0 .07-1.998c-.666-.024-1.333-.044-2-.062a1 1 0 1 0-.052 2zm5.974.237c.666.035 1.332.073 1.998.115a1 1 0 1 0 .124-1.996c-.672-.042-1.344-.08-2.016-.117a1 1 0 1 0-.106 1.998zm5.975.398c.664.054 1.327.11 1.99.17a1 1 0 0 0 .178-1.993c-.669-.06-1.338-.116-2.008-.17a1 1 0 1 0-.16 1.993zm5.952.56c.66.071 1.32.145 1.98.222a1 1 0 1 0 .232-1.986 221.66 221.66 0 0 0-1.998-.224 1 1 0 0 0-.214 1.988zm5.925.72c.657.09 1.313.18 1.968.276a1 1 0 1 0 .286-1.98c-.661-.095-1.323-.188-1.985-.278a1 1 0 0 0-.269 1.982zm5.898.88c.658.108 1.315.218 1.971.332a1 1 0 1 0 .34-1.971c-.662-.115-1.325-.226-1.99-.334a1 1 0 1 0-.321 1.973zm5.887 1.044c.652.125 1.303.253 1.953.384a1 1 0 0 0 .394-1.961c-.656-.132-1.313-.261-1.971-.387a1 1 0 1 0-.376 1.964zm5.873 1.209c.651.143 1.301.29 1.95.439a1 1 0 0 0 .449-1.95c-.656-.15-1.312-.298-1.969-.442a1 1 0 1 0-.43 1.953zm5.815 1.364c.643.16 1.286.324 1.927.49a1 1 0 0 0 .502-1.937c-.648-.167-1.296-.332-1.945-.494a1 1 0 1 0-.484 1.941zm5.755 1.518c.64.178 1.28.359 1.918.543a1 1 0 1 0 .554-1.922c-.644-.185-1.29-.368-1.936-.548a1 1 0 1 0-.536 1.927zm5.732 1.68c.636.197 1.272.396 1.906.598a1 1 0 0 0 .607-1.906c-.64-.204-1.282-.405-1.924-.603a1 1 0 0 0-.59 1.911zm5.685 1.839c.626.212 1.252.427 1.876.644a1 1 0 1 0 .658-1.888c-.63-.22-1.26-.437-1.892-.65a1 1 0 0 0-.642 1.894zm5.637 1.995c.62.23 1.24.461 1.857.696a1 1 0 1 0 .71-1.87c-.623-.237-1.248-.47-1.874-.702a1 1 0 0 0-.693 1.876zm5.584 2.151c.618.248 1.235.499 1.85.752a1 1 0 1 0 .762-1.85c-.621-.255-1.244-.508-1.868-.758a1 1 0 1 0-.744 1.856zm5.51 2.298c.61.264 1.218.531 1.826.801a1 1 0 1 0 .811-1.828c-.613-.272-1.227-.541-1.842-.808a1 1 0 0 0-.796 1.835zm5.45 2.451c.602.28 1.201.563 1.8.849a1 1 0 1 0 .86-1.805c-.603-.288-1.208-.574-1.814-.856a1 1 0 0 0-.845 1.812zm5.39 2.604c.596.298 1.19.598 1.782.9a1 1 0 0 0 .91-1.78 220.44 220.44 0 0 0-1.797-.909 1 1 0 1 0-.894 1.789zm5.326 2.755c.584.312 1.166.627 1.747.944a1 1 0 1 0 .959-1.754c-.586-.32-1.174-.639-1.763-.954a1 1 0 1 0-.943 1.764zm5.24 2.895c.575.328 1.149.66 1.721.993a1 1 0 0 0 1.007-1.728c-.578-.337-1.157-.67-1.738-1.002a1 1 0 1 0-.99 1.737zm5.097 3c.566.344 1.131.69 1.695 1.04a1 1 0 1 0 1.053-1.7c-.569-.353-1.139-.702-1.71-1.05a1 1 0 1 0-1.038 1.71zm5.06 3.167c.556.359 1.111.72 1.664 1.083a1 1 0 1 0 1.099-1.67c-.558-.367-1.118-.732-1.679-1.094a1 1 0 1 0-1.084 1.681zm4.984 3.31c.549.376 1.095.753 1.64 1.133a1 1 0 1 0 1.144-1.64c-.55-.384-1.101-.764-1.654-1.143a1 1 0 1 0-1.13 1.65zm4.888 3.443c.539.39 1.076.783 1.611 1.179a1 1 0 0 0 1.188-1.61c-.54-.398-1.082-.795-1.625-1.189a1 1 0 0 0-1.174 1.62zm4.788 3.57c.528.405 1.055.813 1.58 1.223a1 1 0 0 0 1.23-1.576c-.529-.414-1.06-.825-1.593-1.234a1 1 0 1 0-1.217 1.587zm4.687 3.697c.516.418 1.03.84 1.543 1.263a1 1 0 1 0 1.274-1.542c-.517-.427-1.036-.852-1.557-1.275a1 1 0 0 0-1.26 1.554zm4.598 3.833c.503.431 1.004.865 1.503 1.3a1 1 0 0 0 1.315-1.506c-.503-.44-1.009-.877-1.516-1.312a1 1 0 1 0-1.302 1.518zm4.49 3.956c.492.445.982.892 1.47 1.34a1 1 0 0 0 1.355-1.47c-.492-.453-.986-.904-1.482-1.353a1 1 0 1 0-1.342 1.483zm4.367 4.06c.481.46.96.922 1.437 1.386a1 1 0 1 0 1.395-1.433c-.482-.468-.965-.935-1.45-1.398a1 1 0 0 0-1.382 1.446zm4.269 4.192c.466.47.93.944 1.393 1.419a1 1 0 0 0 1.433-1.396c-.466-.479-.935-.956-1.406-1.431a1 1 0 0 0-1.42 1.408zm4.153 4.305c.454.483.905.968 1.354 1.455a1 1 0 1 0 1.47-1.356c-.453-.491-.908-.98-1.365-1.468a1 1 0 1 0-1.459 1.37zm4.037 4.418c.44.496.879.993 1.315 1.493a1 1 0 0 0 1.507-1.316 222.65 222.65 0 0 0-1.328-1.506 1 1 0 1 0-1.494 1.329zm3.916 4.527c.427.506.85 1.015 1.273 1.526a1 1 0 1 0 1.541-1.274 222.53 222.53 0 0 0-1.284-1.54 1 1 0 1 0-1.53 1.288zm3.794 4.633c.412.518.823 1.038 1.23 1.56a1 1 0 1 0 1.577-1.231c-.412-.527-.826-1.052-1.243-1.575a1 1 0 0 0-1.564 1.246zm3.656 4.72c.399.531.796 1.063 1.19 1.597a1 1 0 0 0 1.608-1.189c-.397-.538-.798-1.075-1.2-1.61a1 1 0 1 0-1.598 1.203zm3.529 4.823c.385.542.768 1.085 1.149 1.63a1 1 0 0 0 1.64-1.144c-.384-.55-.77-1.099-1.16-1.645a1 1 0 0 0-1.629 1.159zm3.412 4.938c.37.55.737 1.103 1.101 1.658a1 1 0 1 0 1.671-1.1c-.368-.559-.739-1.117-1.112-1.673a1 1 0 0 0-1.66 1.115zm3.256 4.999c.356.562.708 1.125 1.058 1.69a1 1 0 0 0 1.7-1.053c-.353-.57-.709-1.14-1.067-1.706a1 1 0 1 0-1.69 1.069zm3.124 5.092c.339.57.675 1.14 1.009 1.714a1 1 0 0 0 1.728-1.007c-.337-.578-.676-1.155-1.018-1.73a1 1 0 0 0-1.72 1.023zm2.977 5.164c.324.58.646 1.162.965 1.745a1 1 0 0 0 1.755-.959c-.322-.589-.647-1.176-.974-1.761a1 1 0 1 0-1.746.975zm2.812 5.196c.307.588.612 1.177.915 1.767a1 1 0 0 0 1.78-.912c-.305-.595-.613-1.19-.924-1.782a1 1 0 1 0-1.771.927zm2.692 5.317c.292.596.581 1.193.867 1.792a1 1 0 0 0 1.805-.863c-.29-.604-.581-1.207-.875-1.808a1 1 0 0 0-1.797.88zm2.552 5.399c.275.603.547 1.208.817 1.813a1 1 0 1 0 1.827-.813c-.272-.611-.547-1.221-.825-1.83a1 1 0 0 0-1.82.83zm2.408 5.477c.258.61.514 1.223.767 1.836a1 1 0 0 0 1.848-.763c-.255-.619-.513-1.236-.774-1.852a1 1 0 1 0-1.841.78zm2.254 5.536c.242.618.48 1.237.717 1.857a1 1 0 0 0 1.869-.711c-.238-.626-.48-1.251-.724-1.875a1 1 0 1 0-1.862.729zm2.1 5.59c.224.624.446 1.25.666 1.877a1 1 0 1 0 1.887-.66c-.22-.633-.445-1.265-.672-1.895a1 1 0 0 0-1.882.677zm1.95 5.66c.208.63.412 1.261.614 1.894a1 1 0 1 0 1.905-.608 219.77 219.77 0 0 0-.62-1.912 1 1 0 0 0-1.899.626zm1.787 5.689c.19.636.378 1.272.563 1.91a1 1 0 1 0 1.92-.556c-.185-.643-.374-1.286-.566-1.928a1 1 0 1 0-1.917.574zm1.637 5.754c.172.64.342 1.282.509 1.925a1 1 0 1 0 1.936-.503c-.169-.649-.34-1.296-.514-1.942a1 1 0 0 0-1.931.52zm1.477 5.797c.155.645.307 1.29.456 1.937a1 1 0 0 0 1.949-.45c-.15-.652-.304-1.304-.46-1.954a1 1 0 1 0-1.945.467zm1.318 5.836c.137.65.272 1.299.403 1.949a1 1 0 0 0 1.96-.396 220.34 220.34 0 0 0-.406-1.967 1 1 0 1 0-1.957.414zm1.154 5.852c.12.652.236 1.305.35 1.959a1 1 0 0 0 1.97-.342c-.114-.66-.232-1.319-.352-1.977a1 1 0 0 0-1.968.36zm.999 5.907c.101.655.2 1.311.295 1.968a1 1 0 1 0 1.98-.289c-.097-.662-.197-1.324-.299-1.986a1 1 0 0 0-1.976.307zm.834 5.916c.084.658.164 1.317.242 1.976a1 1 0 1 0 1.986-.234c-.078-.665-.16-1.33-.244-1.995a1 1 0 0 0-1.984.253zm.674 5.944c.066.66.128 1.32.188 1.982a1 1 0 0 0 1.992-.18c-.06-.668-.124-1.334-.19-2a1 1 0 0 0-1.99.198zm.511 5.947c.048.662.093 1.324.135 1.987a1 1 0 1 0 1.996-.127c-.042-.668-.087-1.336-.136-2.004a1 1 0 1 0-1.995.144zm.352 5.97c.03.663.057 1.326.081 1.99a1 1 0 0 0 1.999-.073c-.025-.67-.052-1.339-.082-2.007a1 1 0 1 0-1.998.09zm.19 5.99c.013.663.022 1.327.029 1.99a1 1 0 1 0 2-.018c-.007-.67-.016-1.34-.029-2.01a1 1 0 1 0-2 .038zm-81.242 25.469a1 1 0 0 1 1.976.305c-.102.663-.209 1.324-.32 1.984a1 1 0 1 1-1.972-.332c.11-.651.215-1.304.316-1.957zm-1.032 5.866c-.129.648-.261 1.295-.398 1.94a1 1 0 0 0 1.956.416c.14-.655.274-1.311.404-1.969a1 1 0 1 0-1.962-.387zm-1.28 5.826c-.156.645-.317 1.289-.482 1.931a1 1 0 1 0 1.937.498c.167-.652.33-1.305.489-1.959a1 1 0 1 0-1.944-.47zm-1.524 5.758c-.182.636-.37 1.27-.561 1.903a1 1 0 1 0 1.914.58 141.8 141.8 0 0 0 .57-1.93 1 1 0 0 0-1.923-.553zm-1.765 5.685c-.21.628-.425 1.255-.643 1.88a1 1 0 1 0 1.887.66c.222-.633.44-1.269.652-1.906a1 1 0 1 0-1.896-.634zm-2.012 5.617c-.237.618-.478 1.234-.723 1.849a1 1 0 1 0 1.858.74c.249-.622.493-1.247.733-1.875a1 1 0 0 0-1.868-.714zm-2.253 5.528c-.262.606-.528 1.21-.799 1.812a1 1 0 0 0 1.824.82c.275-.61.545-1.223.811-1.838a1 1 0 1 0-1.836-.794zm-2.49 5.433c-.29.595-.582 1.187-.879 1.778a1 1 0 1 0 1.787.898c.301-.599.598-1.2.89-1.804a1 1 0 1 0-1.799-.872zm-2.703 5.282c-.314.582-.631 1.161-.953 1.738a1 1 0 0 0 1.747.974 140.7 140.7 0 0 0 .966-1.763 1 1 0 1 0-1.76-.949zm-2.94 5.185c-.34.57-.682 1.136-1.03 1.7a1 1 0 0 0 1.704 1.048c.352-.572.7-1.147 1.044-1.724a1 1 0 1 0-1.718-1.024zm-3.162 5.058c-.363.554-.73 1.105-1.1 1.654a1 1 0 0 0 1.656 1.12c.376-.557.749-1.116 1.117-1.677a1 1 0 1 0-1.673-1.097zm-3.372 4.912c-.387.539-.778 1.075-1.173 1.608a1 1 0 1 0 1.608 1.19c.4-.54.796-1.084 1.19-1.63a1 1 0 1 0-1.625-1.168zm-3.585 4.771c-.41.521-.823 1.04-1.24 1.555a1 1 0 0 0 1.556 1.257c.422-.522.841-1.048 1.256-1.576a1 1 0 0 0-1.572-1.236zm-3.794 4.623c-.431.503-.866 1.003-1.305 1.5a1 1 0 1 0 1.5 1.323c.445-.504.886-1.012 1.323-1.522a1 1 0 0 0-1.518-1.301zm-3.98 4.447c-.453.485-.91.966-1.369 1.444a1 1 0 0 0 1.442 1.386c.466-.485.93-.973 1.388-1.465a1 1 0 0 0-1.461-1.365zm-4.169 4.276c-.471.464-.946.924-1.425 1.381a1 1 0 0 0 1.382 1.446c.485-.463.967-.93 1.445-1.4a1 1 0 1 0-1.402-1.427zm-4.303 4.055c-.491.444-.986.885-1.484 1.322a1 1 0 1 0 1.32 1.503c.505-.444 1.007-.89 1.505-1.34a1 1 0 0 0-1.34-1.485zm-4.496 3.892a140.5 140.5 0 0 1-1.539 1.258 1 1 0 1 0 1.255 1.558c.523-.422 1.044-.847 1.56-1.276a1 1 0 0 0-1.276-1.54zm-4.665 3.705c-.527.4-1.056.797-1.589 1.19a1 1 0 0 0 1.188 1.61c.54-.4 1.077-.802 1.612-1.208a1 1 0 0 0-1.21-1.592zm-4.827 3.51c-.544.378-1.09.752-1.638 1.122a1 1 0 0 0 1.118 1.658c.556-.375 1.11-.755 1.661-1.138a1 1 0 1 0-1.141-1.642zm-4.963 3.296c-.558.354-1.12.705-1.684 1.05a1 1 0 0 0 1.047 1.705c.572-.351 1.141-.707 1.708-1.066a1 1 0 0 0-1.07-1.69zm-5.111 3.09c-.573.33-1.148.656-1.726.978a1 1 0 1 0 .974 1.747c.586-.327 1.169-.657 1.75-.992a1 1 0 0 0-.998-1.733zm-5.231 2.866c-.588.306-1.178.608-1.77.906a1 1 0 0 0 .898 1.787c.6-.302 1.2-.608 1.795-.919a1 1 0 0 0-.923-1.774zm-5.355 2.644c-.6.28-1.201.556-1.804.828a1 1 0 0 0 .82 1.824c.613-.276 1.223-.556 1.83-.84a1 1 0 0 0-.846-1.812zm-5.46 2.412c-.611.254-1.224.504-1.839.75a1 1 0 1 0 .743 1.857c.623-.25 1.245-.503 1.865-.761a1 1 0 0 0-.769-1.846zm-5.556 2.175c-.622.228-1.245.452-1.87.671a1 1 0 1 0 .663 1.887c.634-.222 1.265-.449 1.896-.68a1 1 0 1 0-.69-1.878zm-5.646 1.936c-.63.201-1.263.398-1.897.59a1 1 0 0 0 .58 1.914 141 141 0 0 0 1.925-.599 1 1 0 0 0-.608-1.905zm-5.728 1.693c-.638.174-1.277.343-1.918.508a1 1 0 1 0 .498 1.937c.65-.167 1.299-.34 1.946-.515a1 1 0 0 0-.526-1.93zm-5.788 1.443c-.646.147-1.293.288-1.94.426a1 1 0 1 0 .413 1.956c.657-.139 1.314-.283 1.969-.431a1 1 0 1 0-.442-1.95zm-5.856 1.195c-.65.118-1.302.232-1.955.34a1 1 0 0 0 .33 1.974c.662-.11 1.323-.226 1.983-.346a1 1 0 0 0-.358-1.968zm-5.888.94c-.655.09-1.311.175-1.968.256a1 1 0 1 0 .244 1.985c.666-.082 1.332-.169 1.997-.26a1 1 0 1 0-.273-1.982zm-5.913.683c-.659.062-1.319.12-1.979.172a1 1 0 0 0 .159 1.994c.67-.054 1.339-.112 2.007-.175a1 1 0 0 0-.187-1.99zm-5.835.424c-.66.034-1.322.064-1.984.088a1 1 0 1 0 .075 1.999c.67-.025 1.342-.055 2.012-.09a1 1 0 0 0-.103-1.997zm-5.953.179c-.661.006-1.323.007-1.986.003a1 1 0 1 0-.011 2c.672.004 1.343.003 2.014-.003a1 1 0 1 0-.017-2zm-5.97-.077c-.66-.022-1.322-.05-1.984-.082a1 1 0 0 0-.097 1.998c.671.032 1.342.06 2.013.083a1 1 0 1 0 .068-1.999zm-5.952-.33c-.66-.051-1.32-.107-1.979-.167a1 1 0 1 0-.181 1.992c.669.06 1.338.117 2.007.168a1 1 0 0 0 .153-1.994zm-5.928-.583a141.8 141.8 0 0 1-1.97-.25 1 1 0 1 0-.265 1.983c.666.089 1.332.173 1.998.253a1 1 0 0 0 .237-1.986zm-5.909-.833c-.652-.106-1.304-.216-1.954-.331a1 1 0 1 0-.348 1.97c.66.116 1.32.228 1.982.335a1 1 0 1 0 .32-1.974zm-5.864-1.08c-.647-.132-1.293-.27-1.937-.412a1 1 0 0 0-.431 1.953c.653.144 1.308.284 1.964.419a1 1 0 0 0 .404-1.96zm-5.803-1.322c-.644-.162-1.286-.327-1.926-.497a1 1 0 0 0-.514 1.933c.65.172 1.301.34 1.954.504a1 1 0 0 0 .486-1.94zm-5.761-1.574a139.42 139.42 0 0 1-1.896-.577 1 1 0 0 0-.595 1.91c.639.199 1.28.394 1.923.584a1 1 0 0 0 .568-1.917zm-5.672-1.814c-.626-.214-1.25-.434-1.872-.657a1 1 0 1 0-.676 1.882c.63.227 1.264.449 1.898.667a1 1 0 1 0 .65-1.892zm-5.59-2.054c-.615-.242-1.229-.487-1.84-.737a1 1 0 0 0-.757 1.851c.62.254 1.243.503 1.867.748a1 1 0 1 0 .73-1.862zm-5.513-2.3a138.49 138.49 0 0 1-1.812-.819 1 1 0 1 0-.836 1.817c.61.281 1.224.558 1.838.83a1 1 0 0 0 .81-1.829zm-5.403-2.534c-.595-.294-1.187-.593-1.777-.896a1 1 0 1 0-.914 1.78c.599.307 1.2.61 1.803.908a1 1 0 0 0 .888-1.792zm-5.253-2.743c-.58-.32-1.16-.643-1.735-.97a1 1 0 0 0-.989 1.738c.584.332 1.171.66 1.76.984a1 1 0 0 0 .964-1.752zm-5.166-2.987c-.565-.343-1.127-.69-1.686-1.041a1 1 0 0 0-1.063 1.694c.568.356 1.138.708 1.71 1.056a1 1 0 0 0 1.039-1.71zm-5.026-3.202c-.551-.368-1.1-.74-1.647-1.117a1 1 0 0 0-1.134 1.647c.554.382 1.111.76 1.67 1.133a1 1 0 0 0 1.111-1.663zm-4.89-3.419c-.533-.39-1.064-.784-1.592-1.182a1 1 0 0 0-1.204 1.597c.536.404 1.074.803 1.616 1.2a1 1 0 0 0 1.18-1.615zm-4.746-3.632c-.518-.414-1.033-.831-1.545-1.253a1 1 0 0 0-1.271 1.544c.52.428 1.041.851 1.567 1.272a1 1 0 1 0 1.249-1.563zm-4.577-3.822c-.5-.436-.996-.875-1.49-1.318a1 1 0 1 0-1.335 1.488c.5.45 1.004.895 1.51 1.337a1 1 0 1 0 1.315-1.507zm-4.42-4.026c-.481-.456-.959-.916-1.433-1.38a1 1 0 0 0-1.398 1.43c.48.47.965.937 1.452 1.4a1 1 0 1 0 1.378-1.45zm-4.23-4.194c-.46-.475-.916-.954-1.368-1.435a1 1 0 1 0-1.458 1.369c.46.488.921.974 1.387 1.455a1 1 0 0 0 1.438-1.39zm-4.01-4.327c-.439-.494-.874-.992-1.306-1.493a1 1 0 0 0-1.514 1.307c.438.508.88 1.013 1.325 1.514a1 1 0 1 0 1.496-1.328zm-3.87-4.549c-.417-.512-.831-1.027-1.242-1.546a1 1 0 1 0-1.568 1.242c.416.525.836 1.048 1.26 1.568a1 1 0 1 0 1.55-1.264zm-3.664-4.697c-.396-.53-.789-1.063-1.177-1.599a1 1 0 1 0-1.62 1.174c.395.543.792 1.084 1.194 1.622a1 1 0 1 0 1.603-1.197zm-3.47-4.858c-.373-.546-.741-1.095-1.106-1.646a1 1 0 1 0-1.668 1.104c.37.56.744 1.116 1.122 1.67a1 1 0 1 0 1.652-1.128zm-3.254-4.992c-.35-.562-.696-1.127-1.038-1.694a1 1 0 1 0-1.713 1.032c.347.575.698 1.148 1.053 1.719a1 1 0 1 0 1.698-1.057zm-3.048-5.14a140.36 140.36 0 0 1-.965-1.738 1 1 0 1 0-1.755.959c.322.59.648 1.177.979 1.763a1 1 0 0 0 1.741-.984zm-2.823-5.258c-.3-.59-.596-1.18-.888-1.774a1 1 0 1 0-1.795.883c.296.602.597 1.202.901 1.8a1 1 0 1 0 1.782-.909zm-2.594-5.369c-.276-.603-.547-1.207-.814-1.814a1 1 0 0 0-1.83.806c.27.615.546 1.228.825 1.84a1 1 0 0 0 1.819-.832zm-2.367-5.484c-.25-.613-.494-1.228-.735-1.844a1 1 0 1 0-1.863.727c.244.625.492 1.249.745 1.87a1 1 0 1 0 1.853-.753zm-2.126-5.567c-.223-.623-.441-1.248-.655-1.874a1 1 0 0 0-1.893.647c.217.635.438 1.268.664 1.9a1 1 0 1 0 1.884-.673zm-1.891-5.668c-.196-.631-.387-1.264-.574-1.899a1 1 0 0 0-1.919.565c.19.644.384 1.286.583 1.927a1 1 0 0 0 1.91-.593zm-1.647-5.747a138.95 138.95 0 0 1-.492-1.924 1 1 0 0 0-1.941.481c.161.652.328 1.303.499 1.952a1 1 0 0 0 1.934-.51zm-1.397-5.808c-.141-.647-.278-1.295-.41-1.944a1 1 0 1 0-1.96.398c.134.658.273 1.315.416 1.971a1 1 0 0 0 1.954-.425zm-1.146-5.86c-.113-.652-.221-1.305-.325-1.96a1 1 0 0 0-1.975.314c.105.663.215 1.326.33 1.987a1 1 0 0 0 1.97-.341zm-.89-5.892c-.085-.656-.165-1.313-.24-1.97a1 1 0 1 0-1.988.228c.077.667.158 1.333.244 1.999a1 1 0 1 0 1.984-.257zm-.634-5.887c-.057-.66-.109-1.32-.156-1.98a1 1 0 0 0-1.995.142c.048.67.1 1.34.158 2.01a1 1 0 1 0 1.993-.172zm-.38-5.862c-.029-.661-.053-1.323-.072-1.984a1 1 0 0 0-2 .058c.02.672.045 1.342.074 2.013a1 1 0 1 0 1.998-.087zm-.132-5.952c0-.662.003-1.324.012-1.986a1 1 0 0 0-2-.026c-.009.671-.013 1.342-.012 2.013a1 1 0 1 0 2-.001zm.122-5.968c.028-.66.06-1.322.097-1.983a1 1 0 1 0-1.997-.112c-.037.67-.07 1.341-.098 2.012a1 1 0 0 0 1.998.083zm.376-5.948c.055-.66.116-1.318.18-1.978a1 1 0 1 0-1.99-.196c-.066.669-.127 1.337-.183 2.006a1 1 0 0 0 1.993.168zm.627-5.937c.084-.656.172-1.312.265-1.968a1 1 0 0 0-1.98-.28c-.095.665-.184 1.33-.269 1.996a1 1 0 0 0 1.984.252zm.876-5.897c.11-.653.226-1.305.346-1.955a1 1 0 1 0-1.967-.362c-.122.66-.239 1.32-.351 1.982a1 1 0 0 0 1.972.335zm1.12-5.851c.138-.647.28-1.292.428-1.936a1 1 0 1 0-1.95-.445c-.15.653-.294 1.308-.434 1.964a1 1 0 0 0 1.956.417zm1.367-5.802c.166-.643.336-1.284.511-1.924a1 1 0 0 0-1.93-.527c-.176.649-.35 1.3-.518 1.951a1 1 0 1 0 1.937.5zm1.614-5.745c.192-.633.39-1.263.59-1.893a1 1 0 1 0-1.905-.609c-.204.639-.403 1.279-.599 1.92a1 1 0 0 0 1.914.582zm1.852-5.655c.22-.625.443-1.247.671-1.868a1 1 0 1 0-1.877-.69c-.231.63-.458 1.261-.68 1.895a1 1 0 1 0 1.886.663zm2.098-5.585c.246-.614.496-1.225.75-1.835a1 1 0 0 0-1.846-.77c-.258.619-.511 1.24-.76 1.862a1 1 0 1 0 1.856.743zm2.338-5.494c.273-.604.55-1.206.83-1.806a1 1 0 1 0-1.81-.848c-.286.608-.566 1.219-.843 1.832a1 1 0 0 0 1.823.822zm2.57-5.384c.298-.592.6-1.181.908-1.769a1 1 0 0 0-1.773-.926 140.67 140.67 0 0 0-.921 1.795 1 1 0 0 0 1.786.9zm2.779-5.231c.323-.578.65-1.154.98-1.727a1 1 0 1 0-1.731-1c-.336.58-.668 1.165-.995 1.751a1 1 0 0 0 1.746.976zm3.021-5.144c.348-.565.7-1.126 1.056-1.686a1 1 0 1 0-1.687-1.074c-.361.568-.718 1.137-1.071 1.71a1 1 0 0 0 1.702 1.05zm3.242-5.014c.372-.548.747-1.093 1.126-1.636a1 1 0 0 0-1.64-1.146c-.384.55-.765 1.104-1.141 1.66a1 1 0 1 0 1.655 1.122zm3.451-4.865c.395-.532.794-1.062 1.196-1.588a1 1 0 0 0-1.589-1.215c-.408.534-.812 1.071-1.213 1.61a1 1 0 0 0 1.606 1.193zm3.655-4.711c.416-.514.836-1.025 1.26-1.532a1 1 0 0 0-1.536-1.282c-.43.515-.855 1.033-1.278 1.554a1 1 0 1 0 1.554 1.26zm3.861-4.561c.437-.495.878-.987 1.323-1.475a1 1 0 1 0-1.48-1.346c-.45.496-.898.994-1.342 1.496a1 1 0 0 0 1.499 1.325zm4.054-4.393c.46-.478.923-.952 1.39-1.423a1 1 0 1 0-1.42-1.408c-.474.478-.944.96-1.41 1.443a1 1 0 1 0 1.44 1.388zm4.222-4.201c.48-.458.963-.912 1.449-1.363a1 1 0 0 0-1.36-1.467c-.493.458-.983.918-1.47 1.382a1 1 0 1 0 1.38 1.448zm4.352-3.98c.499-.437 1-.87 1.505-1.3a1 1 0 0 0-1.297-1.523c-.512.436-1.02.876-1.526 1.32a1 1 0 0 0 1.318 1.503zm4.574-3.84a140.52 140.52 0 0 1 1.556-1.233 1 1 0 0 0-1.231-1.576c-.53.413-1.055.83-1.579 1.25a1 1 0 1 0 1.254 1.56zm4.72-3.633c.533-.392 1.069-.781 1.607-1.166a1 1 0 0 0-1.163-1.627c-.546.39-1.09.785-1.63 1.183a1 1 0 1 0 1.186 1.61zm4.88-3.436c.55-.37 1.103-.736 1.657-1.098a1 1 0 1 0-1.092-1.675c-.563.367-1.124.738-1.681 1.113a1 1 0 0 0 1.116 1.66zm5.024-3.228c.564-.345 1.13-.686 1.698-1.024a1 1 0 1 0-1.02-1.72c-.577.342-1.151.689-1.723 1.039a1 1 0 1 0 1.045 1.705zm5.148-3.006c.579-.322 1.16-.64 1.744-.953a1 1 0 0 0-.947-1.762c-.592.318-1.181.64-1.769.967a1 1 0 0 0 .972 1.748zm5.276-2.787c.592-.297 1.186-.59 1.782-.877a1 1 0 0 0-.871-1.8c-.604.292-1.207.588-1.807.889a1 1 0 1 0 .896 1.788zm5.386-2.558c.604-.271 1.21-.538 1.817-.8a1 1 0 1 0-.793-1.836c-.616.266-1.23.537-1.843.812a1 1 0 1 0 .82 1.824zm5.5-2.33c.615-.245 1.232-.486 1.851-.722a1 1 0 0 0-.714-1.868c-.628.24-1.254.484-1.878.733a1 1 0 1 0 .74 1.858zm5.593-2.091c.625-.219 1.252-.433 1.88-.643a1 1 0 0 0-.633-1.897c-.637.213-1.273.43-1.907.652a1 1 0 0 0 .66 1.888zm5.68-1.85c.635-.193 1.27-.38 1.907-.562a1 1 0 1 0-.55-1.923c-.647.185-1.292.375-1.935.57a1 1 0 0 0 .579 1.914zm5.747-1.604a138.68 138.68 0 0 1 1.928-.478 1 1 0 1 0-.468-1.945c-.653.157-1.305.32-1.955.486a1 1 0 1 0 .495 1.937zm5.819-1.355c.648-.137 1.297-.269 1.947-.396a1 1 0 1 0-.384-1.962c-.66.128-1.318.262-1.975.4a1 1 0 0 0 .412 1.958zm5.869-1.104c.653-.108 1.307-.212 1.962-.31a1 1 0 0 0-.299-1.978c-.664.1-1.328.205-1.99.315a1 1 0 1 0 .327 1.973zm5.899-.847c.656-.08 1.313-.156 1.971-.226a1 1 0 0 0-.213-1.989c-.667.072-1.334.148-2 .23a1 1 0 1 0 .242 1.985zm5.88-.59c.66-.052 1.32-.099 1.982-.141a1 1 0 0 0-.129-1.996c-.67.043-1.34.09-2.01.143a1 1 0 1 0 .157 1.994zm5.881-.337c.661-.024 1.323-.043 1.985-.057a1 1 0 0 0-.044-2c-.671.015-1.342.034-2.013.058a1 1 0 1 0 .072 1.999zm5.956-.087c.662.004 1.324.013 1.986.027a1 1 0 0 0 .042-2 141.44 141.44 0 0 0-2.014-.027 1 1 0 0 0-.014 2zm5.957.167c.66.033 1.321.07 1.982.112a1 1 0 0 0 .127-1.996c-.67-.042-1.34-.08-2.01-.113a1 1 0 0 0-.1 1.997zm5.95.422c.659.06 1.317.126 1.976.196a1 1 0 1 0 .212-1.989c-.668-.071-1.336-.137-2.005-.199a1 1 0 1 0-.183 1.992zm5.923.672c.656.088 1.311.181 1.967.28a1 1 0 0 0 .295-1.979c-.665-.1-1.33-.193-1.994-.283a1 1 0 1 0-.268 1.982zm5.888.92c.652.116 1.303.236 1.952.361a1 1 0 0 0 .378-1.964 143.73 143.73 0 0 0-1.98-.366 1 1 0 1 0-.35 1.969zm5.856 1.169c.645.143 1.29.29 1.932.443a1 1 0 1 0 .46-1.947 142.66 142.66 0 0 0-1.96-.449 1 1 0 1 0-.432 1.953zm5.791 1.414c.641.17 1.281.346 1.919.526a1 1 0 0 0 .543-1.925 141.85 141.85 0 0 0-1.946-.534 1 1 0 0 0-.516 1.933zm5.734 1.66c.63.198 1.259.4 1.886.606a1 1 0 1 0 .625-1.9c-.636-.209-1.274-.414-1.914-.614a1 1 0 0 0-.597 1.909zm5.63 1.896c.62.224 1.24.453 1.859.686a1 1 0 1 0 .705-1.872 140.81 140.81 0 0 0-1.886-.695 1 1 0 0 0-.679 1.881zm5.57 2.146c.614.252 1.226.508 1.836.768a1 1 0 0 0 .785-1.84 140.57 140.57 0 0 0-1.862-.779 1 1 0 1 0-.76 1.85zm5.465 2.38c.601.277 1.2.558 1.796.844a1 1 0 1 0 .864-1.804c-.605-.29-1.213-.575-1.822-.856a1 1 0 1 0-.838 1.816zm5.379 2.623c.588.303 1.174.61 1.757.92a1 1 0 0 0 .941-1.764 140.51 140.51 0 0 0-1.783-.934 1 1 0 1 0-.915 1.778zm5.201 2.82c.574.327 1.145.658 1.714.993a1 1 0 0 0 1.015-1.723c-.577-.34-1.156-.676-1.738-1.008a1 1 0 1 0-.99 1.738zm5.124 3.069c.56.352 1.117.707 1.671 1.067a1 1 0 0 0 1.089-1.678c-.563-.365-1.128-.725-1.696-1.082a1 1 0 0 0-1.064 1.693zm4.98 3.282c.546.377 1.09.758 1.63 1.142a1 1 0 0 0 1.16-1.63c-.549-.39-1.1-.776-1.653-1.158a1 1 0 1 0-1.136 1.646zm4.832 3.49c.53.4 1.056.804 1.58 1.211a1 1 0 1 0 1.228-1.578c-.531-.413-1.065-.823-1.602-1.228a1 1 0 1 0-1.206 1.595zm4.687 3.701c.51.421 1.017.846 1.522 1.274a1 1 0 1 0 1.294-1.524c-.511-.435-1.026-.865-1.543-1.292a1 1 0 1 0-1.273 1.542zm4.524 3.899c.493.443.983.89 1.47 1.34a1 1 0 1 0 1.359-1.467c-.494-.457-.99-.91-1.491-1.36a1 1 0 0 0-1.338 1.487zm4.356 4.09c.474.464.944.93 1.41 1.401a1 1 0 1 0 1.42-1.408c-.473-.478-.95-.951-1.43-1.422a1 1 0 1 0-1.4 1.429zm4.146 4.238c.453.483.903.969 1.349 1.458a1 1 0 0 0 1.478-1.347c-.453-.496-.909-.99-1.368-1.48a1 1 0 1 0-1.459 1.369zm3.96 4.405c.431.5.86 1.005 1.284 1.513a1 1 0 0 0 1.533-1.284c-.43-.515-.865-1.026-1.302-1.535a1 1 0 0 0-1.516 1.306zm3.8 4.606c.41.52.817 1.042 1.22 1.568a1 1 0 0 0 1.587-1.218c-.409-.533-.822-1.063-1.238-1.59a1 1 0 0 0-1.57 1.24zm3.592 4.752c.388.536.772 1.075 1.152 1.617a1 1 0 1 0 1.637-1.15c-.385-.549-.775-1.095-1.168-1.64a1 1 0 1 0-1.62 1.173zm3.396 4.91c.364.553.725 1.108 1.082 1.665a1 1 0 1 0 1.684-1.079 142.56 142.56 0 0 0-1.097-1.688 1 1 0 1 0-1.67 1.103zm3.178 5.042c.341.567.678 1.136 1.01 1.708a1 1 0 1 0 1.729-1.006c-.337-.58-.68-1.157-1.025-1.732a1 1 0 0 0-1.714 1.03zm2.97 5.187c.317.582.63 1.165.938 1.75a1 1 0 1 0 1.77-.931c-.313-.594-.63-1.186-.951-1.775a1 1 0 0 0-1.757.956zm2.738 5.292c.292.594.58 1.19.863 1.789a1 1 0 1 0 1.807-.856c-.287-.607-.579-1.212-.874-1.814a1 1 0 1 0-1.796.88zm2.514 5.41c.266.607.528 1.216.786 1.826a1 1 0 1 0 1.843-.778c-.262-.619-.527-1.236-.797-1.851a1 1 0 0 0-1.832.804zm2.285 5.524c.24.617.475 1.235.706 1.855a1 1 0 0 0 1.875-.698c-.235-.629-.474-1.256-.717-1.882a1 1 0 1 0-1.864.725zm2.042 5.604c.214.627.423 1.256.627 1.886a1 1 0 1 0 1.903-.617c-.208-.64-.42-1.277-.636-1.914a1 1 0 1 0-1.894.645zm1.802 5.689c.186.635.368 1.272.545 1.91a1 1 0 0 0 1.927-.535c-.18-.647-.364-1.293-.553-1.938a1 1 0 1 0-1.92.563zm1.557 5.766c.159.643.313 1.286.463 1.931a1 1 0 1 0 1.948-.452c-.152-.654-.308-1.307-.47-1.958a1 1 0 0 0-1.94.48zm1.31 5.837c.13.65.257 1.3.379 1.95a1 1 0 0 0 1.966-.367c-.124-.66-.252-1.32-.385-1.979a1 1 0 0 0-1.96.396zm1.054 5.873c.103.654.202 1.31.295 1.965a1 1 0 1 0 1.98-.283c-.095-.665-.194-1.33-.299-1.993a1 1 0 0 0-1.976.311zm.8 5.902c.075.657.145 1.315.21 1.973a1 1 0 1 0 1.99-.197c-.066-.668-.137-1.336-.213-2.002a1 1 0 0 0-1.987.226zm.542 5.868c.046.66.088 1.32.126 1.982a1 1 0 0 0 1.997-.113c-.038-.67-.081-1.34-.128-2.01a1 1 0 1 0-1.995.14zm.292 5.894c.018.66.033 1.322.042 1.984a1 1 0 1 0 2-.028c-.01-.671-.024-1.342-.043-2.013a1 1 0 1 0-2 .057zm.041 5.968c-.01.661-.024 1.323-.043 1.985a1 1 0 0 0 2 .057c.019-.671.033-1.342.043-2.013a1 1 0 0 0-2-.03zm-.213 5.953c-.038.66-.08 1.322-.127 1.982a1 1 0 1 0 1.995.142c.048-.67.09-1.34.129-2.01a1 1 0 1 0-1.997-.114zm-.466 5.946c-.065.659-.136 1.317-.21 1.975a1 1 0 0 0 1.987.226c.076-.667.147-1.335.213-2.002a1 1 0 0 0-1.99-.199zm-.716 5.919a1 1 0 1 1 1.98.281c-.08.566-.164 1.132-.251 1.698a1 1 0 0 1-1.977-.306c.086-.557.169-1.115.248-1.673z"/><path fill="#FFF" d="M354.435 83.071V34.776l-9.683-10.163h-34.841v58.458z"/><path fill="#E8E8E8" d="M344.467 35.171h10.535v10.043z"/><path fill="#4C4C4C" fill-rule="nonzero" d="M355.505 82.8a1 1 0 0 1-1 1h-44.547a1 1 0 0 1-1-1V24.445a1 1 0 0 1 1-1h34.859a1 1 0 0 1 .723.31l9.688 10.144a1 1 0 0 1 .277.69V82.8zm-2-47.81l-9.116-9.545h-33.431V81.8h42.547V34.99z"/><path fill="#4C4C4C" fill-rule="nonzero" d="M315.623 31.661h22.466a1 1 0 1 0 0-2h-22.466a1 1 0 0 0 0 2zm0 6.74h25.572a1 1 0 1 0 0-2h-25.572a1 1 0 0 0 0 2zm0 6.74h33.216a1 1 0 0 0 0-2h-33.216a1 1 0 0 0 0 2zm0 6.74h33.216a1 1 0 0 0 0-2h-33.216a1 1 0 0 0 0 2z"/><path fill="#E8E8E8" d="M344.817 24.444v10.145h9.687z"/><path fill="#4C4C4C" fill-rule="nonzero" d="M343.817 24.444c0-.902 1.1-1.343 1.723-.69l9.688 10.145c.607.636.156 1.69-.724 1.69h-9.687a1 1 0 0 1-1-1V24.444zm2 9.145h6.35l-6.35-6.65v6.65zM316.44 57.561a1 1 0 1 0-2 0V75.17a1 1 0 0 0 1 1h33.514a1 1 0 0 0 0-2H316.44V57.561z"/><path fill="#A7A7A7" d="M348.955 75.169h-33.514v-7.63l6.467-4.108 9.995 5.869 17.052-8.804"/><path fill="#4C4C4C" fill-rule="nonzero" d="M316.44 68.088l5.488-3.486 9.469 5.56a1 1 0 0 0 .965.027l17.052-8.805a1 1 0 0 0-.918-1.777l-16.562 8.552-9.52-5.59a1 1 0 0 0-1.042.017l-6.468 4.108a1 1 0 0 0-.463.845v7.63a1 1 0 0 0 1 1h33.514a1 1 0 1 0 0-2H316.44v-6.08z"/><path fill="#F8F8F8" d="M242.536 22.714c0 11.72-9.519 21.222-21.259 21.222s-21.258-9.501-21.258-21.222c0-11.719 9.518-21.22 21.258-21.22 11.74 0 21.259 9.501 21.259 21.22"/><path fill="#4C4C4C" fill-rule="nonzero" d="M241.536 22.714c0-11.166-9.07-20.22-20.259-20.22-11.188 0-20.258 9.054-20.258 20.22 0 11.168 9.07 20.222 20.258 20.222 11.189 0 20.259-9.054 20.259-20.222zm2 0c0 12.273-9.967 22.222-22.259 22.222s-22.258-9.949-22.258-22.222c0-12.271 9.966-22.22 22.258-22.22s22.259 9.949 22.259 22.22z"/><path fill="#4C4C4C" d="M221.388 25.851h-.31c-2.116 0-3.847-1.751-3.847-3.89v-7.717c0-2.14 1.731-3.892 3.847-3.892h.31c2.116 0 3.849 1.751 3.849 3.892v7.716c0 2.14-1.733 3.891-3.85 3.891"/><path fill="#4C4C4C" fill-rule="nonzero" d="M217.662 36.077h7.231a1 1 0 0 0 0-2h-7.231a1 1 0 1 0 0 2zm2.615-6.287v5.287a1 1 0 1 0 2 0V29.79a1 1 0 1 0-2 0zm7.012-10.388v3.296c0 3.351-2.71 6.092-6.012 6.092-3.3 0-6.012-2.741-6.012-6.092v-3.296a1 1 0 1 0-2 0v3.296c0 4.45 3.602 8.092 8.012 8.092 4.412 0 8.012-3.641 8.012-8.092v-3.296a1 1 0 1 0-2 0z"/><path fill="#E8E8E8" d="M60.424 78.653h66.683V35.345H60.424z"/><path fill="#4C4C4C" fill-rule="nonzero" d="M60.424 79.653a1 1 0 0 1-1-1V35.345a1 1 0 0 1 1-1h66.683a1 1 0 0 1 1 1v43.308a1 1 0 0 1-1 1H60.424zm65.683-2V36.345H61.424v41.308h64.683z"/><path fill="#F8F8F8" d="M106.014 56.187l-18.07-10.414a.939.939 0 0 0-1.409.812v20.83a.94.94 0 0 0 1.409.811l18.07-10.414a.936.936 0 0 0 0-1.625"/><path fill="#4C4C4C" fill-rule="nonzero" d="M106.513 58.678l-18.07 10.415c-1.292.745-2.908-.187-2.908-1.679v-20.83c0-1.491 1.616-2.423 2.908-1.678l18.07 10.415c1.295.744 1.295 2.611 0 3.357zM87.535 46.69v20.617l17.885-10.309-17.885-10.308zM105.42 57l.094.055a.064.064 0 0 1 0-.109l-.094.054z"/><path fill="#F8F8F8" d="M30.67 123.638a11.628 11.628 0 0 0 2.387-7.073c0-6.444-5.234-11.67-11.69-11.67-6.456 0-11.734 5.226-11.69 11.67.043 6.436 5.327 11.651 11.69 11.67"/><path fill="#4C4C4C" fill-rule="nonzero" d="M31.464 124.245a12.626 12.626 0 0 0 2.593-7.68c0-6.997-5.683-12.67-12.69-12.67-7.024 0-12.738 5.69-12.69 12.676.047 6.965 5.755 12.643 12.686 12.664l.006-2c-5.835-.017-10.653-4.81-10.692-10.677-.04-5.872 4.771-10.662 10.69-10.662 5.904 0 10.69 4.777 10.69 10.669 0 2.369-.775 4.621-2.183 6.467l1.59 1.213z"/><path fill="#E8E8E8" d="M28.426 119.803a7.725 7.725 0 0 0 .707-3.238c0-4.282-3.477-7.753-7.766-7.753-4.29 0-7.796 3.471-7.767 7.753.025 3.7 2.658 6.793 6.105 7.566"/><path fill="#4C4C4C" fill-rule="nonzero" d="M29.335 120.22a8.725 8.725 0 0 0 .798-3.655c0-4.835-3.925-8.753-8.766-8.753-4.852 0-8.8 3.93-8.767 8.76.028 4.11 2.929 7.647 6.886 8.535l.438-1.952c-3.056-.685-5.302-3.425-5.324-6.597-.025-3.714 3.02-6.746 6.767-6.746 3.737 0 6.766 3.024 6.766 6.753 0 .987-.212 1.943-.615 2.82l1.817.836z"/><path fill="#FFF" d="M26.298 134.24s-2.351-3.346-5.49-1.184c-3.427 2.363-.099 6.646-.099 6.646s-2.703-3.288-5.412-1.468c-2.615 1.758-1.662 4.446-.353 6.46 0 0-2.277-2.921-5.118-1.057-2.805 1.84-1.236 4.992-1.236 4.992s4.706 7.803 6.053 9.605c2.45 3.278 10.42 9.128 19.008 3.08 11.013-7.756 5.236-18.381 4.824-19.262-.412-.881-12.472-24.43-13.001-25.37-.529-.94-2.647-4.639-5.706-2.994-3.06 1.643-1.295 5.284-1 5.931.293.646 7.53 14.622 7.53 14.622"/><path fill="#4C4C4C" fill-rule="nonzero" d="M21.64 127.409c-2.29-4.436-3.645-7.074-3.782-7.375-.21-.461-.27-.599-.398-.956-.347-.964-.527-1.922-.447-2.862.122-1.445.861-2.646 2.281-3.41 1.763-.947 3.467-.598 4.926.65.89.76 1.498 1.62 2.125 2.735.52.924 12.594 24.49 13.035 25.437a18.768 18.768 0 0 1 .966 2.267c1.427 4.05 1.513 8.29-.645 12.303-1.175 2.187-2.982 4.178-5.474 5.933-4.153 2.925-8.514 3.474-12.696 2.09-3.165-1.048-6.059-3.207-7.69-5.388-.525-.704-1.53-2.257-2.895-4.448-.076-.12-.076-.12-.15-.242a448.65 448.65 0 0 1-3.1-5.069 4.96 4.96 0 0 1-.28-.73c-.317-1.03-.384-2.12-.028-3.177.314-.935.94-1.743 1.89-2.366 1.172-.77 2.342-.948 3.444-.687-.378-1.84.186-3.478 2.017-4.71 1.187-.797 2.418-.906 3.612-.522a5.278 5.278 0 0 1-.08-1.335c.094-1.318.739-2.465 1.97-3.314 1.182-.815 2.352-1.053 3.452-.851l-2.053-3.973zm3.104 6.651c-1.051-.855-2.132-1.032-3.368-.18-.726.5-1.059 1.092-1.11 1.81-.051.714.18 1.541.609 2.38a7.835 7.835 0 0 0 .624 1.018c.807 1.039-.727 2.265-1.562 1.25a6.37 6.37 0 0 0-.912-.846c-1.136-.86-2.199-1.08-3.17-.428-1.666 1.12-1.555 2.804-.072 5.085.696 1.072-.842 2.168-1.627 1.16a3.919 3.919 0 0 0-.699-.653c-.99-.74-1.992-.898-3.082-.183-.577.379-.92.822-1.091 1.33-.203.603-.16 1.29.044 1.956.064.211.126.36.119.353a277.122 277.122 0 0 0 .943 1.555c.71 1.166 1.427 2.332 2.103 3.42l.15.24c1.331 2.136 2.322 3.668 2.8 4.308 1.393 1.862 3.952 3.772 6.717 4.687 3.594 1.19 7.295.724 10.915-1.826 2.244-1.58 3.84-3.34 4.865-5.245 1.851-3.443 1.776-7.124.52-10.692a16.78 16.78 0 0 0-.55-1.368 32.352 32.352 0 0 0-.342-.716c-.42-.902-12.47-24.424-12.966-25.303-1.3-2.31-2.692-3.5-4.361-2.603-.804.432-1.168 1.024-1.235 1.816-.052.608.078 1.299.336 2.016.104.288.15.394.336.804.114.252 1.53 3.01 3.723 7.255a7396.325 7396.325 0 0 0 3.461 6.695l.324.626c.573 1.107-.99 2.055-1.706 1.035a4.167 4.167 0 0 0-.736-.756z"/><path fill="#4C4C4C" d="M269.706 128.52h12.789c3.54 0 6.41-2.865 6.41-6.399v-10.636c0-3.535-2.87-6.399-6.41-6.399h-12.789c-3.54 0-6.41 2.864-6.41 6.399v10.636c0 3.534 2.87 6.399 6.41 6.399"/><path fill="#FFF" d="M274.065 113.985c0-1.122.912-2.031 2.036-2.031a2.028 2.028 0 1 1 1.043 3.773l.46 5.002H274.598l.462-5.003c-.594-.356-.994-1-.994-1.741"/><path fill="#FFF" fill-rule="nonzero" d="M276.147 115.818a1 1 0 0 1 .482-.95 1.027 1.027 0 0 0-.528-1.914 1.027 1.027 0 1 0-.528 1.915 1 1 0 0 1 .482.95l-.361 3.91h.814l-.36-3.91zm-3.082-1.833a3.033 3.033 0 0 1 3.036-3.031 3.034 3.034 0 0 1 3.034 3.03c0 .849-.353 1.635-.946 2.196l.411 4.457a1 1 0 0 1-.995 1.092h-3.008a1 1 0 0 1-.995-1.092l.41-4.456a3.016 3.016 0 0 1-.947-2.196z"/><path fill="#4C4C4C" d="M277.22 94.336h-2.238c-4.15 0-7.525 3.37-7.525 7.514v4.25h3.541v-4.25a3.985 3.985 0 0 1 3.984-3.978h2.238a3.986 3.986 0 0 1 3.984 3.978v4.25h3.54v-4.25c0-4.143-3.376-7.514-7.524-7.514"/><path fill="#E8E8E8" d="M166.553 108.219l8.512 6.634-11.104 3.577z"/><path fill="#4C4C4C" fill-rule="nonzero" d="M165.375 116.924l7.585-2.443-5.815-4.532-1.77 6.975zm1.793-9.494l8.512 6.634a1 1 0 0 1-.308 1.741l-11.104 3.577a1 1 0 0 1-1.276-1.198l2.592-10.211a1 1 0 0 1 1.584-.543z"/><path fill="#E8E8E8" d="M159.538 97.73l53.604 7.707-37.957 17.413z"/><path fill="#4C4C4C" fill-rule="nonzero" d="M175.568 121.574l34.07-15.63-48.115-6.918 14.045 22.548zM159.68 96.74l53.604 7.707c.987.142 1.18 1.483.275 1.899l-37.957 17.412a1 1 0 0 1-1.266-.38l-15.647-25.12a1 1 0 0 1 .991-1.518z"/><path fill="#FFF" d="M213.142 105.437l-46.302 4.016"/><path fill="#4C4C4C" fill-rule="nonzero" d="M213.055 104.441l-46.302 4.015.173 1.993 46.302-4.015z"/><path fill="#F8F8F8" d="M430.793 135.78c0 11.766-9.555 21.303-21.341 21.303-11.786 0-21.341-9.537-21.341-21.303 0-11.765 9.555-21.303 21.34-21.303 11.787 0 21.342 9.538 21.342 21.303"/><path fill="#4C4C4C" fill-rule="nonzero" d="M429.793 135.78c0-11.212-9.107-20.303-20.341-20.303-11.234 0-20.341 9.09-20.341 20.303 0 11.213 9.107 20.303 20.34 20.303 11.235 0 20.342-9.09 20.342-20.303zm2 0c0 12.318-10.003 22.303-22.341 22.303-12.338 0-22.341-9.985-22.341-22.303 0-12.318 10.003-22.303 22.34-22.303 12.339 0 22.342 9.985 22.342 22.303z"/><path fill="#4C4C4C" d="M404.225 131.873s4.319-3.908 6.25-5.209c.46-.344.83.11.83.443v17.215c.031.741-.429.85-.89.519-1.965-1.343-6.19-4.94-6.19-4.94v-8.028"/><path fill="#4C4C4C" d="M401.051 131.873h3.539c.604 0 1.093.51 1.093 1.14v5.748c0 .629-.49 1.14-1.093 1.14h-3.539c-1.307 0-1.983-2.726-1.983-4.163 0-1.752.676-3.865 1.983-3.865m13.06 8.812a.697.697 0 0 1-.27-.055c-.377-.157-.564-.612-.416-1.016a11.1 11.1 0 0 0 .676-3.834c0-1.32-.226-2.605-.672-3.823-.147-.403.04-.858.419-1.016.38-.158.806.043.954.446.512 1.4.772 2.878.772 4.393 0 1.52-.26 3.003-.777 4.407a.74.74 0 0 1-.686.498m3.819 2.048a.69.69 0 0 1-.287-.061c-.374-.17-.55-.63-.392-1.03a15.804 15.804 0 0 0 1.111-5.862c0-1.98-.355-3.906-1.055-5.721-.155-.4.024-.86.401-1.026.377-.164.806.028.961.43a17.466 17.466 0 0 1 1.166 6.317c0 2.245-.413 4.424-1.226 6.474-.12.3-.393.48-.68.48"/></g></svg>