<svg xmlns="http://www.w3.org/2000/svg" width="350" height="149" viewBox="0 0 350 149"><g fill="none" fill-rule="evenodd"><path fill="#E8E8E8" d="M198.65029,79.5534863 C196.954144,73.0236106 190.289679,69.1076225 183.770321,70.8060845 C177.247739,72.5053536 173.338704,79.1764988 175.034849,85.7063745 C176.46577,91.2134597 181.429253,94.8485234 186.861917,94.8364146 L187.475399,97.1944028 L193.378857,95.6549699 L192.76618,93.2977889 C197.512808,90.6580691 200.081211,85.0613787 198.65029,79.5534863"/><path fill="#4C4C4C" fill-rule="nonzero" d="M174.129156,85.9422726 C172.302711,78.9107639 176.512706,71.7285426 183.53469,69.899169 C190.554955,68.0702078 197.729907,72.2875016 199.555983,79.3175881 C201.009887,84.9139483 198.629955,90.7269001 193.849226,93.7442299 L194.284512,95.4189293 C194.414684,95.9197464 194.11481,96.4314173 193.614693,96.5618319 L187.711236,98.1012648 C187.211111,98.2316814 186.700092,97.9314524 186.5698,97.4306584 L186.133816,95.7549049 C180.48939,95.4540658 175.583532,91.5396242 174.129156,85.9422726 Z M191.860525,93.5338294 C191.753007,93.1201696 191.938648,92.6860745 192.31182,92.4785444 C196.768843,89.999881 199.044463,84.7928197 197.744607,79.7894211 C196.178766,73.7611973 190.025879,70.1446527 184.005948,71.713001 C177.984404,73.2817392 174.374272,79.440598 175.940524,85.4704073 C177.240797,90.4746751 181.760333,93.9106762 186.859834,93.89931 C187.286585,93.8983588 187.659928,94.186628 187.767517,94.6001589 L188.145091,96.0514081 L192.237513,94.9842354 L191.860525,93.5338294 Z"/><path fill="#E8E8E8" d="M193.259949,103.551203 L191.421114,104.029905"/><path fill="#4C4C4C" fill-rule="nonzero" d="M193.024485,102.644244 L191.185651,103.122946 C190.685434,103.253167 190.385349,103.764791 190.515392,104.26569 C190.645436,104.76659 191.156362,105.067084 191.656578,104.936864 L193.495413,104.458162 C193.995629,104.327942 194.295714,103.816317 194.165671,103.315418 C194.035628,102.814518 193.524702,102.514024 193.024485,102.644244 Z"/><path fill="#E8E8E8" d="M194.141719,99.3887607 L188.625215,100.825672"/><path fill="#4C4C4C" fill-rule="nonzero" d="M193.906131,98.481834 L188.389627,99.9187457 C187.889429,100.049035 187.589414,100.5607 187.719525,101.061582 C187.849637,101.562464 188.360604,101.862888 188.860803,101.732599 L194.377307,100.295687 C194.877506,100.165398 195.17752,99.6537329 195.047409,99.1528511 C194.917297,98.6519693 194.40633,98.3515447 193.906131,98.481834 Z"/><path fill="#E8E8E8" d="M181.969134,63.8712095 L182.583422,66.2356558"/><path fill="#4C4C4C" fill-rule="nonzero" d="M181.063452,64.1071508 L181.677741,66.4715971 C181.80787,66.9724743 182.318848,67.272881 182.819042,67.1425743 C183.319236,67.0122675 183.619233,66.5005918 183.489104,65.9997146 L182.874815,63.6352683 C182.744686,63.1343911 182.233709,62.8339843 181.733514,62.9642911 C181.23332,63.0945978 180.933323,63.6062735 181.063452,64.1071508 Z"/><path fill="#E8E8E8" d="M206.714237,78.4190526 L204.353015,79.0341799"/><path fill="#4C4C4C" fill-rule="nonzero" d="M206.478617,77.5121341 L204.117395,78.1272615 C203.617201,78.2575682 203.317204,78.7692439 203.447333,79.2701212 C203.577462,79.7709984 204.08844,80.0714051 204.588634,79.9410984 L206.949856,79.325971 C207.45005,79.1956643 207.750047,78.6839886 207.619918,78.1831113 C207.489789,77.6822341 206.978811,77.3818273 206.478617,77.5121341 Z"/><path fill="#E8E8E8" d="M167.441776,88.6501061 L169.802192,88.0349787"/><path fill="#4C4C4C" fill-rule="nonzero" d="M167.677471,89.5570049 L170.037887,88.9418775 C170.53807,88.8115291 170.838024,88.2998284 170.707854,87.798962 C170.577683,87.2980956 170.06668,86.9977314 169.566497,87.1280798 L167.206082,87.7432072 C166.705898,87.8735556 166.405944,88.3852564 166.536114,88.8861228 C166.666285,89.3869891 167.177288,89.6873533 167.677471,89.5570049 Z"/><path fill="#E8E8E8" d="M169.630401,72.2220076 L171.805401,73.5015048"/><path fill="#4C4C4C" fill-rule="nonzero" d="M169.156374,73.0300014 L171.331374,74.3094986 C171.777008,74.5716538 172.350495,74.4224214 172.612293,73.9761787 C172.87409,73.529936 172.725062,72.9556661 172.279427,72.6935109 L170.104427,71.4140137 C169.658793,71.1518586 169.085306,71.301091 168.823509,71.7473336 C168.561711,72.1935763 168.71074,72.7678462 169.156374,73.0300014 Z"/><path fill="#E8E8E8" d="M196.803394,65.1419884 L195.526448,67.3215736"/><path fill="#4C4C4C" fill-rule="nonzero" d="M195.996218 64.6677986L194.719272 66.8473838C194.457741 67.2937834 194.607114 67.8679639 195.052905 68.1298516 195.498695 68.3917394 196.072093 68.242163 196.333623 67.7957634L197.610569 65.6161782C197.8721 65.1697786 197.722728 64.5955982 197.276937 64.3337104 196.831146 64.0718226 196.257749 64.221399 195.996218 64.6677986zM204.308492 17.8983984C201.766591 27.3178678 193.196374 33.9934221 183.296303 33.9934221 173.395862 33.9934221 164.826118 27.3182878 162.284116 17.8991905 162.184465 17.7350485 162.134173 17.5394951 162.151563 17.3358553 162.134174 17.1322227 162.184461 16.9366758 162.284106 16.7725374 164.826053 7.35278009 173.395695.677481338 183.296303.677481338 193.196374.677481338 201.766591 7.35303562 204.308492 16.772505 204.407973 16.9363534 204.458292 17.1316472 204.441014 17.3354517 204.458292 17.5392562 204.407973 17.7345501 204.308492 17.8983984zM183.296303 32.1192083C192.370705 32.1192083 200.223592 25.9821725 202.521465 17.3354517 200.223592 8.68873093 192.370705 2.55169517 183.296303 2.55169517 174.221246 2.55169517 166.368839 8.68863503 164.071037 17.3358481 166.368879 25.9824098 174.221394 32.1192083 183.296303 32.1192083z"/><path fill="#E8E8E8" d="M194.923445,17.1158787 C194.923445,23.396313 189.838233,28.4876625 183.566364,28.4876625 C177.294495,28.4876625 172.21009,23.396313 172.21009,17.1158787 C172.21009,10.8354444 177.294495,5.74409489 183.566364,5.74409489 C189.838233,5.74409489 194.923445,10.8354444 194.923445,17.1158787"/><path fill="#4C4C4C" fill-rule="nonzero" d="M193.987616,17.1158787 C193.987616,11.3531688 189.321564,6.68120181 183.566364,6.68120181 C177.81134,6.68120181 173.145919,11.3529943 173.145919,17.1158787 C173.145919,22.8787631 177.81134,27.5505556 183.566364,27.5505556 C189.321564,27.5505556 193.987616,22.8785886 193.987616,17.1158787 Z M195.859274,17.1158787 C195.859274,23.9137295 190.355211,29.4247694 183.566364,29.4247694 C176.777651,29.4247694 171.274261,23.9138628 171.274261,17.1158787 C171.274261,10.3178945 176.777651,4.80698798 183.566364,4.80698798 C190.355211,4.80698798 195.859274,10.3180279 195.859274,17.1158787 Z"/><path fill="#4C4C4C" d="M181.116466,11.9853774 C181.858127,11.6293785 182.68927,11.4299868 183.566364,11.4299868 C186.703105,11.4299868 189.244905,13.9760652 189.244905,17.1154751 C189.244905,20.2564995 186.703105,22.8017706 183.566364,22.8017706 C180.43043,22.8017706 177.88863,20.2564995 177.88863,17.1154751"/><path fill="#4C4C4C" fill-rule="nonzero" d="M181.520981,12.8304158 C182.153428,12.5268394 182.847844,12.3670937 183.566364,12.3670937 C186.185858,12.3670937 188.309076,14.4932114 188.309076,17.1154751 C188.309076,19.7389496 186.186261,21.8646637 183.566364,21.8646637 C180.94717,21.8646637 178.824459,19.7388454 178.824459,17.1154751 C178.824459,16.5979252 178.405474,16.1783681 177.88863,16.1783681 C177.371786,16.1783681 176.952801,16.5979252 176.952801,17.1154751 C176.952801,20.7739039 179.913441,23.7388775 183.566364,23.7388775 C187.219949,23.7388775 190.180734,20.7740493 190.180734,17.1154751 C190.180734,13.4581117 187.219546,10.4928799 183.566364,10.4928799 C182.56631,10.4928799 181.5956,10.7161852 180.711951,11.140339 C180.245886,11.3640515 180.049173,11.9237429 180.27258,12.3904447 C180.495988,12.8571465 181.054916,13.0541283 181.520981,12.8304158 Z"/><path fill="#FFF" d="M181.944707,14.1375966 C181.944707,15.7077052 180.673404,16.9799372 179.105437,16.9799372 C177.53747,16.9799372 176.266167,15.7077052 176.266167,14.1375966 C176.266167,12.5674881 177.53747,11.2952561 179.105437,11.2952561 C180.673404,11.2952561 181.944707,12.5674881 181.944707,14.1375966"/><path fill="#4C4C4C" fill-rule="nonzero" d="M181.008879 14.1375966C181.008879 13.0852742 180.156796 12.2323631 179.105437 12.2323631 178.054078 12.2323631 177.201996 13.0852742 177.201996 14.1375966 177.201996 15.1899191 178.054078 16.0428302 179.105437 16.0428302 180.156796 16.0428302 181.008879 15.1899191 181.008879 14.1375966zM182.880536 14.1375966C182.880536 16.2251834 181.19032 17.9170441 179.105437 17.9170441 177.020554 17.9170441 175.330338 16.2251834 175.330338 14.1375966 175.330338 12.0500099 177.020554 10.3581492 179.105437 10.3581492 181.19032 10.3581492 182.880536 12.0500099 182.880536 14.1375966zM338.744655 43.0185304C338.803272 42.6906449 338.58384 42.375523 338.254812 42.3165405L325.068275 39.9578363C324.738643 39.8990632 324.423995 40.1184013 324.365463 40.4475813 324.306604 40.7768145 324.525701 41.0918342 324.854335 41.1504295L338.041688 43.5091355C338.371043 43.5678591 338.685322 43.3486413 338.744655 43.0185304zM340.58687 43.3496586C340.344547 44.6978806 339.05942 45.5942881 337.713087 45.3542382L324.525735 42.9955322C323.178933 42.7553988 322.282018 41.4658042 322.52294 40.1181736 322.76268 38.7699069 324.049933 37.872575 325.396886 38.1127354L338.584282 40.4715932C339.930635 40.7129443 340.82789 42.0014748 340.58687 43.3496586z"/><path fill="#4C4C4C" fill-rule="nonzero" d="M298.902439,78.9816278 C298.082503,79.6565331 297.682875,80.7770842 297.864816,81.8504897 C298.053428,82.9703946 298.849188,83.8517228 299.909166,84.041731 L346.818769,92.4307796 C347.877069,92.6217967 348.928919,92.0709792 349.494705,91.085871 C350.036248,90.1406509 350.049293,88.9500122 349.513555,88.0340897 L334.528202,62.367396 L337.719606,44.4777786 C337.810495,43.9682941 337.47172,43.4814945 336.96293,43.3904813 C336.45414,43.2994681 335.968005,43.6387061 335.877116,44.1481906 L332.625095,62.3775951 C332.585969,62.5969176 332.626157,62.8230241 332.738452,63.0153596 L347.898155,88.980677 C348.0894,89.3076394 348.084209,89.7815018 347.871744,90.1523425 C347.684478,90.4783953 347.394453,90.6302717 347.149301,90.5860235 L300.238596,82.1967767 C299.992293,82.1526253 299.772858,81.9095934 299.710247,81.5378363 C299.638785,81.1162255 299.797587,80.6709465 300.091117,80.4293366 L322.890903,61.6532797 C323.062741,61.5117675 323.17861,61.3135794 323.217728,61.0942612 L326.538272,42.4773748 C326.629145,41.9678875 326.290354,41.4810985 325.781562,41.3901013 C325.272769,41.2991041 324.786644,41.6383573 324.695771,42.1478447 L321.435831,60.4249511 L298.902439,78.9816278 Z"/><path fill="#E8E8E8" d="M325.541485,70.5940996 L336.112567,72.4419035 L343.750865,85.5234508 C344.03463,86.0118393 344.028987,86.6641003 343.733129,87.178321 C343.438077,87.6933489 342.912466,87.9678152 342.400559,87.8765955 L305.630316,81.2998991 C305.117603,81.2078721 304.72017,80.7679188 304.621013,80.1826599 C304.521856,79.5974009 304.740323,78.983888 305.176452,78.6246601 L316.786665,69.0635465 L319.755726,69.5826107 C319.670274,70.0621194 319.439714,72.7349366 322.111304,73.2128308 C325.052956,73.7391603 325.541485,70.5940996 325.541485,70.5940996"/><path fill="#4C4C4C" fill-rule="nonzero" d="M325.839093,72.4151186 C325.046435,73.7386897 323.728268,74.4540915 321.946737,74.1353344 C320.41376,73.8611155 319.43925,72.9624943 319.012961,71.6980746 C318.863508,71.2547804 318.790579,70.7927887 318.774481,70.3623464 L317.049119,70.0607112 L305.770944,79.3483887 C305.598083,79.4907695 305.499742,79.7667068 305.543658,80.0259146 C305.579441,80.2371222 305.688991,80.3583886 305.794865,80.3773922 L342.564516,86.953983 C342.670568,86.9728809 342.815364,86.8970814 342.922252,86.7105059 C343.052445,86.484223 343.055427,86.1899641 342.942995,85.9964541 L335.523876,73.2902787 L326.209614,71.6621644 C326.114706,71.9037667 325.992885,72.1583178 325.839093,72.4151186 Z M342.236009,88.7991024 L305.465205,82.2223052 C304.546229,82.0573582 303.860901,81.2987314 303.698368,80.3394051 C303.543911,79.4277473 303.882822,78.4767934 304.582032,77.9008729 L316.192245,68.3397593 C316.402974,68.1662215 316.678841,68.0934149 316.947613,68.1404028 L319.916674,68.659467 C320.427167,68.7487136 320.768039,69.2363858 320.677001,69.7472378 C320.616537,70.0865242 320.630224,70.6356772 320.786287,71.0985777 C321.001304,71.7363422 321.439908,72.14079 322.27591,72.2903341 C323.236448,72.4621965 323.817262,72.1469746 324.233944,71.4512033 C324.366636,71.2296353 324.469643,70.9852295 324.543893,70.7403249 C324.586851,70.5986363 324.60962,70.4951496 324.616541,70.4515604 C324.660093,70.1867041 324.801267,69.9726147 324.995837,69.8327691 C325.191609,69.6924814 325.439431,69.6274027 325.693861,69.6694976 C325.696398,69.6699164 329.222941,70.2863357 336.273491,71.5187557 C336.544777,71.566176 336.781434,71.7308419 336.920436,71.9689002 L344.559747,85.0521857 C345.014784,85.8353492 345.004546,86.8456874 344.544872,87.6446276 C344.061352,88.4886359 343.155342,88.9629237 342.236009,88.7991024 Z"/><path fill="#FFF" d="M333.091267,78.3828069 C332.891341,79.5016606 331.823995,80.2475631 330.706667,80.0473641 C329.588533,79.8471652 328.844454,78.7775539 329.043574,77.6595075 C329.244306,76.5398465 330.311652,75.7947513 331.42898,75.9949502 C332.546308,76.1943419 333.291193,77.2631459 333.091267,78.3828069"/><path fill="#4C4C4C" fill-rule="nonzero" d="M332.170069,78.2177498 C332.278893,77.6082913 331.873496,77.0261473 331.264148,76.9174065 C330.655747,76.8083953 330.074187,77.2142624 329.964866,77.8240346 C329.856408,78.4330241 330.262155,79.0158064 330.871499,79.1249079 C331.479483,79.2338444 332.061073,78.8277257 332.170069,78.2177498 Z M334.012486,78.5477486 C333.721489,80.176264 332.16784,81.2611622 330.54195,80.969841 C328.915608,80.6786487 327.832376,79.1227815 328.12247,77.4939213 C328.414466,75.8652003 329.967787,74.7811484 331.593168,75.0723788 C333.219787,75.3626555 334.303373,76.9186684 334.012486,78.5477486 Z"/><path fill="#FFF" d="M325.450954,70.8826121 C325.171219,72.4494917 323.676611,73.4924635 322.111063,73.2131537 C320.547126,72.9330367 319.505577,71.4363882 319.785312,69.8695086 C320.064241,68.3034363 321.558848,67.2596572 323.123591,67.538967 C324.688333,67.8190841 325.729883,69.3165398 325.450954,70.8826121"/><path fill="#4C4C4C" fill-rule="nonzero" d="M324.52973,70.7176966 C324.717931,69.6610258 324.014674,68.6504511 322.95936,68.4615308 C321.903518,68.2730609 320.894809,68.9773412 320.706535,70.0344242 C320.517788,71.0916525 321.220426,72.1016522 322.275211,72.2905753 C323.332195,72.4791519 324.340923,71.7752612 324.52973,70.7176966 Z M326.372245,71.0471492 C326.001507,73.1237619 324.020988,74.5057681 321.94629,74.1356206 C319.873416,73.7643476 318.493439,71.7807127 318.864021,69.7049715 C319.233721,67.6292524 321.214456,66.2463033 323.288281,66.6164855 C325.36139,66.9876092 326.741942,68.9714508 326.372245,71.0471492 Z"/><path fill="#FFF" d="M333.083367,52.0280703 C332.844746,53.3673043 331.566187,54.2601269 330.22878,54.0203726 C328.890566,53.7814254 327.999767,52.501121 328.238388,51.161887 C328.477816,49.8218457 329.756374,48.9298303 331.093782,49.1687774 C332.431189,49.4085318 333.322794,50.6888363 333.083367,52.0280703"/><path fill="#4C4C4C" fill-rule="nonzero" d="M332.162087,51.8634704 C332.310448,51.0336136 331.757985,50.2398532 330.929406,50.0913154 C330.100498,49.9432189 329.307997,50.4963129 329.159668,51.3264869 C329.011779,52.1564994 329.56402,52.949787 330.393693,53.0979309 C331.221852,53.2463933 332.014235,52.6932737 332.162087,51.8634704 Z M334.00455,52.193209 C333.675189,54.0417121 331.910146,55.2737931 330.0645,54.9429276 C328.217655,54.613161 326.987658,52.8462873 327.317187,50.9968446 C327.647573,49.1477246 329.411905,47.91638 331.258695,48.2463358 C333.104969,48.5773136 334.335037,50.3446347 334.00455,52.193209 Z"/><path fill="#FFF" d="M265.947524,98.5933736 C267.30831,96.8028847 268.116881,94.5675991 268.116881,92.1450305 C268.116881,86.2698376 263.36058,81.5070404 257.4934,81.5070404 C251.625413,81.5070404 246.830416,86.2698376 246.869918,92.1450305 C246.909419,98.0121509 251.711672,102.766876 257.4934,102.783021"/><path fill="#4C4C4C" fill-rule="nonzero" d="M266.69222,99.1608956 C268.214194,97.1583193 269.05271,94.7132101 269.05271,92.1450305 C269.05271,85.7522877 263.877424,80.5699335 257.4934,80.5699335 C251.094674,80.5699335 245.891188,85.7674489 245.93411,92.1513395 C245.976946,98.5136792 251.17689,103.702493 257.49079,103.720124 C258.007632,103.721567 258.427784,103.303182 258.429225,102.785634 C258.430666,102.268086 258.012851,101.847361 257.496009,101.845917 C252.20902,101.831154 247.84164,97.4731223 247.805725,92.1387128 C247.769822,86.7987461 252.129424,82.4441473 257.4934,82.4441473 C262.843736,82.4441473 267.181053,86.7873875 267.181053,92.1450305 C267.181053,94.2994827 266.478981,96.3467206 265.202828,98.0258516 C264.889822,98.4376976 264.969492,99.025653 265.380776,99.3390868 C265.792061,99.6525205 266.379214,99.5727416 266.69222,99.1608956 Z"/><path fill="#E8E8E8" d="M263.909328,95.0962695 C264.322078,94.1977961 264.551832,93.1976087 264.551832,92.1449498 C264.551832,88.2418778 261.391713,85.0774431 257.493158,85.0774431 C253.595409,85.0774431 250.409493,88.2418778 250.43529,92.1449498 C250.457862,95.517656 252.850524,98.3382007 255.983234,99.0429332"/><path fill="#4C4C4C" fill-rule="nonzero" d="M264.759514,95.4879044 C265.237066,94.4483704 265.487661,93.3131242 265.487661,92.1449498 C265.487661,87.7241866 261.908416,84.1403361 257.493158,84.1403361 C253.069145,84.1403361 249.470294,87.7350268 249.499481,92.1511518 C249.524628,95.9085491 252.169346,99.1454266 255.77811,99.9572518 C256.282385,100.070693 256.783018,99.7533015 256.896305,99.2483373 C257.009592,98.743373 256.692633,98.2420561 256.188357,98.1286146 C253.423747,97.5066894 251.390368,95.0180321 251.371098,92.1386696 C251.348809,88.7664102 254.103854,86.01455 257.493158,86.01455 C260.874761,86.01455 263.616003,88.7593194 263.616003,92.1449498 C263.616003,93.0414492 263.424361,93.909628 263.059142,94.7046347 C262.843143,95.1748206 263.048683,95.7313225 263.518227,95.9476164 C263.987772,96.1639104 264.543515,95.9580903 264.759514,95.4879044 Z"/><path fill="#FFF" d="M261.975045,108.259107 C261.975045,108.259107 259.83874,105.207688 256.986571,107.179809 C253.871597,109.332755 256.895476,113.237441 256.895476,113.237441 C256.895476,113.237441 254.439128,110.239301 251.977944,111.899822 C249.600599,113.501413 250.467213,115.952236 251.656289,117.788738 C251.656289,117.788738 249.587701,115.124801 247.005593,116.82407 C244.456538,118.50235 245.882622,121.375366 245.882622,121.375366 C245.882622,121.375366 250.160069,128.489694 251.383003,130.131648 C253.610403,133.120101 260.852074,138.45282 268.657246,132.938469 C278.665633,125.867734 273.41516,116.181496 273.041911,115.379085 C272.667856,114.575868 261.707402,93.1085686 261.226129,92.2520724 C260.745662,91.3955761 258.820569,88.0228699 256.040954,89.5219401 C253.260533,91.0210104 254.864777,94.3404378 255.131614,94.9289258 C255.399256,95.5182211 261.975045,108.259107 261.975045,108.259107"/><path fill="#4C4C4C" fill-rule="nonzero" d="M257.717274,102.041134 C255.636032,97.9971444 254.40506,95.5927942 254.279506,95.3163507 C254.087926,94.8938341 254.034753,94.770296 253.917585,94.4434297 C253.601367,93.5612611 253.437618,92.6845806 253.510405,91.8239915 C253.622479,90.4989068 254.299119,89.3967497 255.597206,88.696883 C257.210162,87.8270022 258.770777,88.1471957 260.104751,89.2921642 C260.916082,89.9885399 261.471175,90.775476 262.041713,91.7925355 C262.51393,92.6329141 273.486417,114.116295 273.890226,114.983405 C273.853518,114.90449 274.094756,115.402136 274.208897,115.654624 C274.40556,116.089656 274.592534,116.550616 274.768328,117.051719 C276.065841,120.750293 276.144153,124.621542 274.179761,128.28636 C273.109316,130.283409 271.464642,132.101955 269.196746,133.704181 C265.415521,136.375614 261.44236,136.877534 257.633945,135.613101 C254.751793,134.656196 252.117953,132.684447 250.632838,130.691901 C250.154237,130.049315 249.240769,128.633112 247.999675,126.635265 C247.931428,126.525367 247.931428,126.525367 247.863235,126.415409 C247.245078,125.418336 246.591112,124.350602 245.942524,123.282945 C245.715555,122.909324 245.505452,122.56237 245.317379,122.250951 C245.204452,122.06396 245.124025,121.930469 245.044605,121.792472 C244.973337,121.648895 244.879564,121.420545 244.788836,121.123311 C244.50054,120.178818 244.439241,119.180787 244.764229,118.210882 C245.051483,117.35359 245.623071,116.612795 246.491627,116.040944 C247.549662,115.344658 248.606454,115.176014 249.60261,115.401624 C249.273158,113.730883 249.792524,112.24267 251.455032,111.122657 C252.527725,110.398928 253.639132,110.292207 254.71881,110.628746 C254.64971,110.234608 254.625423,109.840837 254.653216,109.449571 C254.739137,108.239991 255.328892,107.186878 256.454828,106.408676 C257.51689,105.674317 258.569156,105.450069 259.559771,105.61818 C258.929856,104.39613 258.307002,103.186995 257.717274,102.041134 Z M260.544997,108.113802 C259.599057,107.341163 258.629844,107.182379 257.518166,107.951045 C256.864271,108.40299 256.566128,108.935379 256.520157,109.58255 C256.474254,110.228767 256.68332,110.978353 257.070623,111.739495 C257.197848,111.989523 257.33456,112.221339 257.47049,112.4274 C257.549434,112.547073 257.607739,112.627975 257.634997,112.663174 C258.389219,113.637088 256.952608,114.784636 256.171975,113.831819 C256.14224,113.795526 256.071558,113.71616 255.965368,113.608426 C255.78284,113.423243 255.574779,113.237268 255.347756,113.065073 C254.323793,112.288405 253.37124,112.089752 252.500325,112.677345 C251.00139,113.687161 251.100782,115.208196 252.44152,117.278937 C253.091845,118.283352 251.651314,119.308959 250.917518,118.363973 C250.816022,118.233266 250.595361,118.003791 250.287734,117.772794 C249.397184,117.10408 248.498881,116.96271 247.519722,117.607088 C247.000701,117.948808 246.692334,118.348461 246.538667,118.807071 C246.356394,119.351051 246.39453,119.971941 246.578749,120.575466 C246.637144,120.766775 246.692492,120.901555 246.684358,120.89201 C246.72663,120.962319 246.806679,121.095183 246.918951,121.281087 C247.106209,121.59116 247.315473,121.936726 247.541561,122.308896 C248.187425,123.37207 248.838551,124.435167 249.453379,125.42687 C249.521138,125.536128 249.521138,125.536128 249.588931,125.645295 C250.798251,127.591995 251.698939,128.988383 252.132977,129.571138 C255.539016,134.140945 262.201138,136.352839 268.117755,132.172752 C270.153851,130.734288 271.601269,129.133852 272.530641,127.399993 C274.209224,124.268387 274.141482,120.919695 273.002461,117.672904 C272.845697,117.226046 272.679016,116.815115 272.503809,116.427543 C272.402363,116.20314 272.167228,115.718081 272.19377,115.775141 C271.809799,114.950631 260.858919,93.5095561 260.410217,92.7110242 C259.236233,90.6182429 257.980407,89.5403505 256.484602,90.347051 C255.762271,90.7364973 255.43576,91.268341 255.375386,91.9821602 C255.32883,92.5326002 255.445916,93.1594534 255.679196,93.8102441 C255.773052,94.072079 255.813835,94.1668308 255.983481,94.5409722 C256.087584,94.7701865 257.375023,97.2848271 259.366389,101.154184 C260.130284,102.638457 260.933127,104.196646 261.735974,105.753667 C262.016973,106.29863 262.190926,106.635892 262.512063,107.258404 C262.752909,107.7252 262.752909,107.7252 262.806407,107.828854 C263.342029,108.866646 261.878448,109.753597 261.208765,108.797048 C261.101684,108.644097 260.869995,108.379259 260.544997,108.113802 Z"/><path fill="#FFF" d="M145.567 147.778L145.567 69.145 129.815 52.598 73.134 52.598 73.134 147.778z"/><path fill="#E8E8E8" d="M129.163 69.144L145.567 84.803 145.567 69.144z"/><path fill="#4C4C4C" fill-rule="nonzero" d="M146.50289,147.778296 C146.50289,148.295846 146.083905,148.715403 145.567061,148.715403 L73.1342305,148.715403 C72.6173865,148.715403 72.1984016,148.295846 72.1984016,147.778296 L72.1984016,52.5982336 C72.1984016,52.0806837 72.6173865,51.6611267 73.1342305,51.6611267 L129.814835,51.6611267 C130.070792,51.6611267 130.315578,51.7661077 130.49219,51.9516225 L146.244416,68.497903 C146.410333,68.6721835 146.50289,68.9037292 146.50289,69.144514 L146.50289,147.778296 Z M144.631233,146.841189 L144.631233,69.5196216 L129.414036,53.5353405 L74.0700594,53.5353405 L74.0700594,146.841189 L144.631233,146.841189 Z"/><path fill="#4C4C4C" fill-rule="nonzero" d="M82.3470256 70.3124148L118.876228 70.3124148C119.393072 70.3124148 119.812057 69.8928577 119.812057 69.3753079 119.812057 68.857758 119.393072 68.438201 118.876228 68.438201L82.3470256 68.438201C81.8301816 68.438201 81.4111967 68.857758 81.4111967 69.3753079 81.4111967 69.8928577 81.8301816 70.3124148 82.3470256 70.3124148zM82.3470256 81.305758L123.926776 81.305758C124.44362 81.305758 124.862605 80.886201 124.862605 80.3686511 124.862605 79.8511013 124.44362 79.4315442 123.926776 79.4315442L82.3470256 79.4315442C81.8301816 79.4315442 81.4111967 79.8511013 81.4111967 80.3686511 81.4111967 80.886201 81.8301816 81.305758 82.3470256 81.305758zM82.3470256 92.298294L136.355234 92.298294C136.872078 92.298294 137.291063 91.878737 137.291063 91.3611871 137.291063 90.8436372 136.872078 90.4240802 136.355234 90.4240802L82.3470256 90.4240802C81.8301816 90.4240802 81.4111967 90.8436372 81.4111967 91.3611871 81.4111967 91.878737 81.8301816 92.298294 82.3470256 92.298294zM82.3470256 103.291557L136.355234 103.291557C136.872078 103.291557 137.291063 102.871999 137.291063 102.35445 137.291063 101.8369 136.872078 101.417343 136.355234 101.417343L82.3470256 101.417343C81.8301816 101.417343 81.4111967 101.8369 81.4111967 102.35445 81.4111967 102.871999 81.8301816 103.291557 82.3470256 103.291557z"/><path fill="#E8E8E8" d="M129.815 52.598L129.815 69.144 145.567 69.144z"/><path fill="#4C4C4C" fill-rule="nonzero" d="M128.878926,52.5979914 C128.878926,51.7522769 129.909356,51.3392506 130.492109,51.9513803 L146.244336,68.4976608 C146.812208,69.0941589 146.389975,70.0813788 145.566981,70.0813788 L129.814755,70.0813788 C129.297911,70.0813788 128.878926,69.6618217 128.878926,69.1442719 L128.878926,52.5979914 Z M130.750584,68.2071649 L143.381911,68.2071649 L130.750584,54.9391051 L130.750584,68.2071649 Z"/><path fill="#FFF" d="M1.742 147.778L73.444 147.778 73.444 52.598 1.742 52.598z"/><path fill="#4C4C4C" fill-rule="nonzero" d="M1.7419817 148.715403C1.22513768 148.715403.80615282 148.295846.80615282 147.778296L.80615282 52.5982336C.80615282 52.0806837 1.22513768 51.6611267 1.7419817 51.6611267L73.4444381 51.6611267C73.9612821 51.6611267 74.380267 52.0806837 74.380267 52.5982336L74.380267 147.778296C74.380267 148.295846 73.9612821 148.715403 73.4444381 148.715403L1.7419817 148.715403zM72.5086093 146.841189L72.5086093 53.5353405 2.67781057 53.5353405 2.67781057 146.841189 72.5086093 146.841189zM82.1037286 114.284092L97.746318 114.284092C98.263162 114.284092 98.6821468 113.864535 98.6821468 113.346986 98.6821468 112.829436 98.263162 112.409879 97.746318 112.409879L82.1037286 112.409879C81.5868846 112.409879 81.1678998 112.829436 81.1678998 113.346986 81.1678998 113.864535 81.5868846 114.284092 82.1037286 114.284092zM82.1037286 125.277436L97.746318 125.277436C98.263162 125.277436 98.6821468 124.857879 98.6821468 124.340329 98.6821468 123.822779 98.263162 123.403222 97.746318 123.403222L82.1037286 123.403222C81.5868846 123.403222 81.1678998 123.822779 81.1678998 124.340329 81.1678998 124.857879 81.5868846 125.277436 82.1037286 125.277436zM82.1037286 136.269972L97.746318 136.269972C98.263162 136.269972 98.6821468 135.850415 98.6821468 135.332865 98.6821468 134.815315 98.263162 134.395758 97.746318 134.395758L82.1037286 134.395758C81.5868846 134.395758 81.1678998 134.815315 81.1678998 135.332865 81.1678998 135.850415 81.5868846 136.269972 82.1037286 136.269972z"/><path fill="#4C4C4C" fill-rule="nonzero" d="M10.5891864 114.284092L64.8126374 114.284092C65.3294814 114.284092 65.7484663 113.864535 65.7484663 113.346986 65.7484663 112.829436 65.3294814 112.409879 64.8126374 112.409879L10.5891864 112.409879C10.0723424 112.409879 9.65335756 112.829436 9.65335756 113.346986 9.65335756 113.864535 10.0723424 114.284092 10.5891864 114.284092zM10.5891864 125.277436L64.8126374 125.277436C65.3294814 125.277436 65.7484663 124.857879 65.7484663 124.340329 65.7484663 123.822779 65.3294814 123.403222 64.8126374 123.403222L10.5891864 123.403222C10.0723424 123.403222 9.65335756 123.822779 9.65335756 124.340329 9.65335756 124.857879 10.0723424 125.277436 10.5891864 125.277436zM10.5891864 136.269972L64.8126374 136.269972C65.3294814 136.269972 65.7484663 135.850415 65.7484663 135.332865 65.7484663 134.815315 65.3294814 134.395758 64.8126374 134.395758L10.5891864 134.395758C10.0723424 134.395758 9.65335756 134.815315 9.65335756 135.332865 9.65335756 135.850415 10.0723424 136.269972 10.5891864 136.269972z"/><path fill="#E8E8E8" d="M273.036026,22.7792482 C273.036026,29.1234556 267.89922,34.2664693 261.563665,34.2664693 C255.227304,34.2664693 250.090498,29.1234556 250.090498,22.7792482 C250.090498,16.4342336 255.227304,11.2912199 261.563665,11.2912199 C267.89922,11.2912199 273.036026,16.4342336 273.036026,22.7792482 Z"/><path fill="#4C4C4C" fill-rule="nonzero" d="M272.100197,22.7792482 C272.100197,16.9520724 267.382665,12.2283268 261.563665,12.2283268 C255.743974,12.2283268 251.026327,16.9519578 251.026327,22.7792482 C251.026327,28.605846 255.744088,33.3293624 261.563665,33.3293624 C267.38255,33.3293624 272.100197,28.6057314 272.100197,22.7792482 Z M273.971855,22.7792482 C273.971855,29.6408718 268.416198,35.2035762 261.563665,35.2035762 C254.710461,35.2035762 249.154669,29.6410068 249.154669,22.7792482 C249.154669,15.9168174 254.710327,10.354113 261.563665,10.354113 C268.416332,10.354113 273.971855,15.9169524 273.971855,22.7792482 Z"/><path fill="#4C4C4C" fill-rule="nonzero" d="M261.563423 40.9478326C261.046579 40.9478326 260.627594 40.5282755 260.627594 40.0107256L260.627594 22.7790868C260.627594 22.2615369 261.046579 21.8419798 261.563423 21.8419798L278.772368 21.8419798C279.289212 21.8419798 279.708196 22.2615369 279.708196 22.7790868L279.708196 40.0107256C279.708196 40.5282755 279.289212 40.9478326 278.772368 40.9478326L261.563423 40.9478326zM277.836539 39.0736187L277.836539 23.7161937 262.499252 23.7161937 262.499252 39.0736187 277.836539 39.0736187zM106.632184 112.356889C106.632184 111.839339 106.213199 111.419782 105.696355 111.419782 105.179511 111.419782 104.760526 111.839339 104.760526 112.356889L104.760526 135.332946C104.760526 135.850495 105.179511 136.270052 105.696355 136.270052L160.190674 136.270052C160.707518 136.270052 161.126502 135.850495 161.126502 135.332946 161.126502 134.815396 160.707518 134.395839 160.190674 134.395839L106.632184 134.395839 106.632184 112.356889z"/><path fill="#E8E8E8" d="M160.19 135.333L105.696 135.333 105.696 124.802 116.212 119.059 132.465 127.674 160.19 112.357"/><path fill="#4C4C4C" fill-rule="nonzero" d="M106.631862 125.358554L116.218904 120.122451 132.027296 128.50266C132.306254 128.650539 132.640859 128.647643 132.917223 128.494957L160.642431 113.177317C161.094967 112.927299 161.259418 112.357266 161.009741 111.904111 160.760064 111.450957 160.190808 111.286282 159.738271 111.536299L132.455949 126.609254 116.650144 118.230417C116.372608 118.083292 116.039882 118.085364 115.764195 118.235935L105.247931 123.979545C104.947274 124.143754 104.760204 124.459302 104.760204 124.802239L104.760204 135.332865C104.760204 135.850415 105.179189 136.269972 105.696033 136.269972L160.190351 136.269972C160.707195 136.269972 161.12618 135.850415 161.12618 135.332865 161.12618 134.815315 160.707195 134.395758 160.190351 134.395758L106.631862 134.395758 106.631862 125.358554zM10.5891864 103.291557L64.8400466 103.291557C65.3568906 103.291557 65.7758755 102.871999 65.7758755 102.35445 65.7758755 101.8369 65.3568906 101.417343 64.8400466 101.417343L10.5891864 101.417343C10.0723424 101.417343 9.65335756 101.8369 9.65335756 102.35445 9.65335756 102.871999 10.0723424 103.291557 10.5891864 103.291557zM10.3459701 81.305758L64.8402885 81.305758C65.3571325 81.305758 65.7761173 80.886201 65.7761173 80.3686511 65.7761173 79.8511013 65.3571325 79.4315442 64.8402885 79.4315442L10.3459701 79.4315442C9.82912611 79.4315442 9.41014125 79.8511013 9.41014125 80.3686511 9.41014125 80.886201 9.82912611 81.305758 10.3459701 81.305758zM10.3459701 92.298294L64.3541783 92.298294C64.8710223 92.298294 65.2900072 91.878737 65.2900072 91.3611871 65.2900072 90.8436372 64.8710223 90.4240802 64.3541783 90.4240802L10.3459701 90.4240802C9.82912611 90.4240802 9.41014125 90.8436372 9.41014125 91.3611871 9.41014125 91.878737 9.82912611 92.298294 10.3459701 92.298294zM10.3459701 70.3124148L64.8402885 70.3124148C65.3571325 70.3124148 65.7761173 69.8928577 65.7761173 69.3753079 65.7761173 68.857758 65.3571325 68.438201 64.8402885 68.438201L10.3459701 68.438201C9.82912611 68.438201 9.41014125 68.857758 9.41014125 69.3753079 9.41014125 69.8928577 9.82912611 70.3124148 10.3459701 70.3124148z"/><path fill="#E8E8E8" fill-rule="nonzero" d="M131.195083 23.2136315C131.195083 21.8808658 130.116147 20.8006353 128.784572 20.8006353 127.45349 20.8006353 126.374061 21.8811795 126.374061 23.2136315 126.374061 24.5468008 127.4534 25.6274349 128.784572 25.6274349 130.116236 25.6274349 131.195083 24.5471145 131.195083 23.2136315zM133.066741 23.2136315C133.066741 25.5822142 131.149924 27.5016488 128.784572 27.5016488 126.419782 27.5016488 124.502403 25.5819703 124.502403 23.2136315 124.502403 20.8459401 126.419942 18.9264214 128.784572 18.9264214 131.149765 18.9264214 133.066741 20.8456962 133.066741 23.2136315zM232.197164 36.9551087C232.197164 35.6216257 231.118317 34.5413052 229.786653 34.5413052 228.455481 34.5413052 227.376141 35.6219393 227.376141 36.9551087 227.376141 38.2875607 228.455571 39.3681049 229.786653 39.3681049 231.118227 39.3681049 232.197164 38.2878743 232.197164 36.9551087zM234.068822 36.9551087C234.068822 39.3230439 232.151846 41.2423187 229.786653 41.2423187 227.422022 41.2423187 225.504483 39.3228001 225.504483 36.9551087 225.504483 34.5867698 227.421863 32.6670914 229.786653 32.6670914 232.152005 32.6670914 234.068822 34.5865259 234.068822 36.9551087zM218.738201 115.120764C218.738201 113.788089 217.659354 112.707768 216.328496 112.707768 214.996698 112.707768 213.917178 113.788222 213.917178 115.120764 213.917178 116.454024 214.996608 117.534568 216.328496 117.534568 217.659444 117.534568 218.738201 116.454157 218.738201 115.120764zM220.609859 115.120764C220.609859 117.489187 218.693201 119.408782 216.328496 119.408782 213.963059 119.408782 212.04552 117.489263 212.04552 115.120764 212.04552 112.752913 213.963219 110.833554 216.328496 110.833554 218.693042 110.833554 220.609859 112.752989 220.609859 115.120764zM345.248327 16.2905424C345.248327 14.9571493 344.16957 13.876739 342.838622 13.876739 341.50745 13.876739 340.428111 14.9573731 340.428111 16.2905424 340.428111 17.6229944 341.50754 18.7035386 342.838622 18.7035386 344.16948 18.7035386 345.248327 17.6232182 345.248327 16.2905424zM347.119985 16.2905424C347.119985 18.6583179 345.203168 20.5777525 342.838622 20.5777525 340.473992 20.5777525 338.556453 18.6582338 338.556453 16.2905424 338.556453 13.9222036 340.473832 12.0025251 342.838622 12.0025251 345.203328 12.0025251 347.119985 13.9221194 347.119985 16.2905424zM302.181306 53.1269848C302.181306 51.7943091 301.102459 50.7139886 299.771601 50.7139886 298.439802 50.7139886 297.360283 51.7944429 297.360283 53.1269848 297.360283 54.4600202 298.439489 55.539981 299.771601 55.539981 301.102772 55.539981 302.181306 54.4601541 302.181306 53.1269848zM304.052964 53.1269848C304.052964 55.4953237 302.13639 57.4141949 299.771601 57.4141949 297.40608 57.4141949 295.488625 55.4953993 295.488625 53.1269848 295.488625 50.7591337 297.406324 48.8397748 299.771601 48.8397748 302.136147 48.8397748 304.052964 50.7592093 304.052964 53.1269848zM96.3443037 37.4346514L96.3443037 35.9783316C96.3443037 35.4607818 95.9253188 35.0412247 95.4084748 35.0412247 94.8916308 35.0412247 94.4726459 35.4607818 94.4726459 35.9783316L94.4726459 37.4346514 93.0180705 37.4346514C92.5012264 37.4346514 92.0822416 37.8542085 92.0822416 38.3717583 92.0822416 38.8893082 92.5012264 39.3088652 93.0180705 39.3088652L94.4726459 39.3088652 94.4726459 40.7653465C94.4726459 41.2828963 94.8916308 41.7024534 95.4084748 41.7024534 95.9253188 41.7024534 96.3443037 41.2828963 96.3443037 40.7653465L96.3443037 39.3088652 97.7985567 39.3088652C98.3154007 39.3088652 98.7343856 38.8893082 98.7343856 38.3717583 98.7343856 37.8542085 98.3154007 37.4346514 97.7985567 37.4346514L96.3443037 37.4346514zM232.957218 73.9904924L232.957218 72.5341726C232.957218 72.0166227 232.538233 71.5970657 232.021389 71.5970657 231.504545 71.5970657 231.08556 72.0166227 231.08556 72.5341726L231.08556 73.9904924 229.631065 73.9904924C229.114221 73.9904924 228.695236 74.4100494 228.695236 74.9275993 228.695236 75.4451491 229.114221 75.8647062 229.631065 75.8647062L231.08556 75.8647062 231.08556 77.3211874C231.08556 77.8387373 231.504545 78.2582943 232.021389 78.2582943 232.538233 78.2582943 232.957218 77.8387373 232.957218 77.3211874L232.957218 75.8647062 234.411551 75.8647062C234.928395 75.8647062 235.34738 75.4451491 235.34738 74.9275993 235.34738 74.4100494 234.928395 73.9904924 234.411551 73.9904924L232.957218 73.9904924zM267.949329 61.4117835L267.949329 59.9555444C267.949329 59.4379946 267.530344 59.0184375 267.0135 59.0184375 266.496656 59.0184375 266.077671 59.4379946 266.077671 59.9555444L266.077671 61.4117835 264.623096 61.4117835C264.106252 61.4117835 263.687267 61.8313405 263.687267 62.3488904 263.687267 62.8664402 264.106252 63.2859973 264.623096 63.2859973L266.077671 63.2859973 266.077671 64.7425593C266.077671 65.2601091 266.496656 65.6796662 267.0135 65.6796662 267.530344 65.6796662 267.949329 65.2601091 267.949329 64.7425593L267.949329 63.2859973 269.403582 63.2859973C269.920426 63.2859973 270.339411 62.8664402 270.339411 62.3488904 270.339411 61.8313405 269.920426 61.4117835 269.403582 61.4117835L267.949329 61.4117835zM294.866449 106.334971L294.866449 104.878732C294.866449 104.361182 294.447464 103.941625 293.93062 103.941625 293.413776 103.941625 292.994791 104.361182 292.994791 104.878732L292.994791 106.334971 291.540297 106.334971C291.023453 106.334971 290.604468 106.754528 290.604468 107.272078 290.604468 107.789628 291.023453 108.209185 291.540297 108.209185L292.994791 108.209185 292.994791 109.665747C292.994791 110.183297 293.413776 110.602854 293.93062 110.602854 294.447464 110.602854 294.866449 110.183297 294.866449 109.665747L294.866449 108.209185 296.320783 108.209185C296.837627 108.209185 297.256612 107.789628 297.256612 107.272078 297.256612 106.754528 296.837627 106.334971 296.320783 106.334971L294.866449 106.334971zM303.838849 6.60603372L303.838849 5.14979467C303.838849 4.63224481 303.419865 4.21268775 302.903021 4.21268775 302.386177 4.21268775 301.967192 4.63224481 301.967192 5.14979467L301.967192 6.60603372 300.512697 6.60603372C299.995853 6.60603372 299.576868 7.02559078 299.576868 7.54314064 299.576868 8.0606905 299.995853 8.48024755 300.512697 8.48024755L301.967192 8.48024755 301.967192 9.9368095C301.967192 10.4543594 302.386177 10.8739164 302.903021 10.8739164 303.419865 10.8739164 303.838849 10.4543594 303.838849 9.9368095L303.838849 8.48024755 305.293183 8.48024755C305.810027 8.48024755 306.229012 8.0606905 306.229012 7.54314064 306.229012 7.02559078 305.810027 6.60603372 305.293183 6.60603372L303.838849 6.60603372zM180.917877 120.710304L180.917877 119.253984C180.917877 118.736434 180.498892 118.316877 179.982048 118.316877 179.465204 118.316877 179.046219 118.736434 179.046219 119.253984L179.046219 120.710304 177.591724 120.710304C177.07488 120.710304 176.655895 121.129861 176.655895 121.647411 176.655895 122.164961 177.07488 122.584518 177.591724 122.584518L179.046219 122.584518 179.046219 124.040999C179.046219 124.558549 179.465204 124.978106 179.982048 124.978106 180.498892 124.978106 180.917877 124.558549 180.917877 124.040999L180.917877 122.584518 182.37221 122.584518C182.889054 122.584518 183.308039 122.164961 183.308039 121.647411 183.308039 121.129861 182.889054 120.710304 182.37221 120.710304L180.917877 120.710304zM200.656851 47.9352469L200.656851 46.4789272C200.656851 45.9613773 200.237866 45.5418202 199.721022 45.5418202 199.204178 45.5418202 198.785193 45.9613773 198.785193 46.4789272L198.785193 47.9352469 197.330618 47.9352469C196.813774 47.9352469 196.394789 48.354804 196.394789 48.8723538 196.394789 49.3899037 196.813774 49.8094608 197.330618 49.8094608L198.785193 49.8094608 198.785193 51.265942C198.785193 51.7834919 199.204178 52.2030489 199.721022 52.2030489 200.237866 52.2030489 200.656851 51.7834919 200.656851 51.265942L200.656851 49.8094608 202.111104 49.8094608C202.627948 49.8094608 203.046933 49.3899037 203.046933 48.8723538 203.046933 48.354804 202.627948 47.9352469 202.111104 47.9352469L200.656851 47.9352469zM156.354642 47.1847431L156.354642 45.7285041C156.354642 45.2109542 155.935657 44.7913971 155.418813 44.7913971 154.901969 44.7913971 154.482984 45.2109542 154.482984 45.7285041L154.482984 47.1847431 153.028409 47.1847431C152.511565 47.1847431 152.09258 47.6043002 152.09258 48.12185 152.09258 48.6393999 152.511565 49.0589569 153.028409 49.0589569L154.482984 49.0589569 154.482984 50.5155189C154.482984 51.0330687 154.901969 51.4526258 155.418813 51.4526258 155.935657 51.4526258 156.354642 51.0330687 156.354642 50.5155189L156.354642 49.0589569 157.808895 49.0589569C158.325739 49.0589569 158.744724 48.6393999 158.744724 48.12185 158.744724 47.6043002 158.325739 47.1847431 157.808895 47.1847431L156.354642 47.1847431z"/></g></svg>