<svg xmlns="http://www.w3.org/2000/svg" xmlns:xlink="http://www.w3.org/1999/xlink" width="2900" height="861" viewBox="0 0 2900 861"><defs><path id="a" d="M0 0h2900v719H0z"/></defs><g fill="none" fill-rule="evenodd"><path fill="#FDFAC7" d="M730 139.586c131.492.823 226.43-4.468 284.812-15.874C1109.8 105.155 1301.668 52.874 1450 52.874c145.628 0 304.05 48.678 446.693 70.012 74.441 11.133 165.544 16.7 273.307 16.7v662.539c-81 10.258-179.284 10.258-294.853 0-173.355-15.388-229.68-50.877-425.147-50.877-195.467 0-243.485 31.43-389.692 50.877-97.472 12.965-207.574 12.965-330.308 0V139.586z"/><path fill="#FDFAC7" d="M2170 140.12c123.029 5.172 214.42 3.093 274.176-6.234C2595.746 110.226 2674.668 74 2823 74c145.628 0 301.065 45.186 446.693 59.886 62.914 6.35 154.017 6.35 273.307 0v662.539c-71.6 11.133-169.885 16.7-294.853 16.7-187.453 0-217.754-54.2-413.221-54.2s-251.68 20.8-400.03 37.5c-98.9 11.133-187.198 13.053-264.896 5.76V140.12zm-2813-11.234c128.762 6.834 223.7 7.11 284.812.826C-209.856 114.462-71.332 69 77 69c145.628 0 245.986 45.186 391.614 59.886 62.914 6.35 150.043 9.964 261.386 10.841v662.54c-26.934 3.905-102.885 5.858-227.853 5.858-187.453 0-229.68-53.518-425.147-53.518-195.467 0-234.084 53.518-389.692 53.518-103.739 0-213.842-5.567-330.308-16.7v-662.54z"/><g fill="#FDFAC7"><path d="M797.625 137.695c124.148-27.124 238.284-45.772 342.41-55.945 156.189-15.26 263.92-17.335 377.59 46.71 75.78 42.698 65.28 92.128-31.5 148.29h-688.5V137.695zm1913.75-19.837c124.148-27.124 238.284-45.772 342.41-55.945 156.189-15.26 263.92-17.336 377.59 46.71 75.78 42.698 65.28 92.128-31.5 148.29h-688.5V117.858z" opacity=".6"/><path d="M-77.625 148.205C-9.086 73.513 61.42 32.355 133.895 24.733c211.116-22.207 1408.53 46.34 1537.083 39.625 292.124-15.26 623.843 19.801 836.444 83.847 141.734 42.698 117.99 100.02-71.229 171.967L-77.625 287.26V148.205z" opacity=".4"/><path d="M-114.327 137.695C7.698 45.898 103.943 0 174.41 0c232.61 0 424.379 54.905 596.486 94.673 32.121 7.422 203.789 56.482 433.865 43.022C1470.395 122.155 1747.53 0 1875.73 0c265.963 0 658.177 71.38 869.625 118.71 51.248 11.472 277.887 6.859 413.482 53.943 63.875 22.18 63.875 82.245 0 180.194l-3215.7-76.097-57.465-139.055z" opacity=".4"/><path d="M-33.717 111.317c-3.382-59.709-3.382-87.975 0-84.8 20.642 19.38 134.2 71.923 278.114 84.8 119.648 10.705 295.94 18.07 442.076 13.869C895.92 119.166 1137.203 0 1298.893 0c328.543 0 545.54 94.388 929.55 101.757 145.468 2.792 630.089-115.533 911.445-75.24 105.305 15.081 136.039 89.7 92.201 223.854H-33.717V111.317z" opacity=".4"/></g><g fill="#FDFAC7"><path d="M749.25 775.055c124.148 27.124 238.284 45.772 342.41 55.945 156.189 15.26 263.92 17.335 377.59-46.71 75.78-42.698 65.28-92.128-31.5-148.29h-688.5v139.055zm1873.25-.038c124.148 27.124 238.284 45.772 342.41 55.945 156.189 15.26 263.92 17.336 377.59-46.71 75.78-42.698 65.28-92.128-31.5-148.29h-688.5v139.055z" opacity=".6"/><path d="M-93.5 777.958c151.794 56.219 299.338 82.9 442.634 80.042 496.715-9.904 1033.582-100.132 1169.511-93.032C1810.77 780.228 2464.82 873.132 2699.676 858c156.571-10.088-71.862-96.01-685.3-257.766L-93.5 638.904v139.054z" opacity=".4"/><path d="M-156.052 722.081C880.283 812.694 1506.694 858 1723.179 858c126.654 0 335.678-71.854 550.906-73.568C2489.312 782.717 2770.03 860.833 2900 858c173.902-3.79 216.094-21.58 292.593-63.957 96.203-53.293 18.045-113.919-234.476-181.878L-190.63 697.82l34.578 24.261z" opacity=".4"/><path d="M-190.5 781.069c91.57 7.342 234.729 16.1 429.478 26.273C346.707 812.97 787.634 872.55 906.201 858c202.95-24.904 925.525-36.504 1059.724-76.931 141.734-42.698 151.888-101.08 30.463-175.149L-185.25 637.448l-5.25 143.62z" opacity=".4"/></g><g fill="#FFF" transform="translate(1843.125 553.125)"><ellipse cx="373.5" cy="63.563" rx="146.25" ry="63.563"/><ellipse cx="192.375" cy="95.625" rx="192.375" ry="81"/></g><g fill="#FFF" transform="translate(541 202.125)"><ellipse cx="282.558" cy="67.999" rx="151.397" ry="67.999"/><ellipse cx="202.737" cy="129.235" rx="202.737" ry="76.64"/><ellipse cx="423.463" cy="112.33" rx="128.912" ry="59.734"/></g><use fill="#FFF" transform="translate(0 858)" xlink:href="#a"/></g></svg>