<svg xmlns="http://www.w3.org/2000/svg" width="2900" height="960" viewBox="0 0 2900 960"><g fill="none" fill-rule="evenodd"><g fill="#F6EAFF"><path d="M-189.803 98.224c62.495 37.557 160.86 56.653 295.097 57.289 232.173 1.1 314.076-86.453 499.449-89.48 235.41-3.844 259.888 70.034 437.708 70.95 121.865.626 317.646-78.438 481.899-78.438 161.26 0 336.685 53.9 494.638 77.522 82.432 12.328 183.312 18.492 302.642 18.492v733.607c-89.693 11.359-198.527 11.359-326.5 0-191.962-17.038-254.333-56.335-470.78-56.335-216.447 0-320.208 56.335-481.899 56.335-181.533 0-209.666-40.506-437.708-40.455-211.973.048-268.215 57.354-499.449 53.78-135.765-2.1-234.13-25.319-295.097-69.66V98.224zm2511.433 56.927c136.234 5.725 237.436 3.424 303.605-6.904 167.839-26.197 255.231-66.31 419.484-66.31 161.26 0 333.38 50.034 494.639 66.31 69.667 7.032 170.548 7.032 302.642 0v733.607c-79.286 12.328-188.12 18.492-326.501 18.492-207.573 0-241.126-60.014-457.573-60.014-216.448 0-278.695 23.03-442.967 41.522-109.515 12.328-207.29 14.454-293.329 6.378v-733.08z"/><path d="M801.953 152.465c137.473-30.033 263.86-50.682 379.162-61.946 172.953-16.896 292.247-19.195 418.118 51.721 83.914 47.278 72.287 102.01-34.88 164.196h-762.4v-153.97z" opacity=".6"/><path d="M-167.241 164.103C-80.204 187.44 3.44 194.889 83.694 186.448c105.318-11.077 313.24-159.26 633.41-159.062 246.408.152 737.46 167.282 815.682 163.197 323.479-16.897 927.063-97.396 1162.483-26.48 156.947 47.277 130.656 110.748-78.874 190.413l-2783.636-36.443v-153.97z" opacity=".4"/><path d="M-207.883 152.465C-72.76 50.822 33.816 0 111.845 0c257.578 0 469.93 60.794 660.51 104.829 35.569 8.218 225.662 62.54 480.433 47.636C1546.934 135.26 1853.816 0 1995.777 0c294.51 0 728.82 79.037 962.965 131.444 56.748 12.702 307.713 7.594 457.862 59.73 70.73 24.558 70.73 91.066 0 199.521l-3560.853-84.259-63.634-153.97z" opacity=".4"/><path d="M-277.075 123.257c-3.745-66.113-3.745-97.411 0-93.895 22.857 21.459 305 79.638 464.361 93.895 132.49 11.854 268.335-5.934 430.157-10.585C849.371 106.006 1177.98 0 1357.023 0c363.807 0 604.096 104.513 1029.323 112.672 161.082 3.091 697.72-127.926 1009.274-83.31 116.608 16.698 150.64 99.32 102.098 247.866H-277.075v-153.97z" opacity=".4"/><path fill-opacity=".502" d="M-190.91 796.858c266.633-13.539 457.82-13.539 573.56 0 359.963 42.108 406.058 130.54 702.062 123.9 340.11-7.628 598.724-106.917 852.126-106.917 241.206 0 689.73 130.157 948.997 125.795 290.007-4.88 287.667-178.546 280.14-222.262-8.235-47.832-559.965-52.216-1655.19-13.153l-1726.917-66.41 25.221 159.047z" opacity=".6"/><path d="M-184.82 861.407c281.597 45.752 501.734 67.046 660.41 63.882 550.03-10.966 1009.639-112.707 1126.896-111.448 117.257 1.259 539.366 136.194 864.078 136.194 287.694 0 513.043-76.247 554.901-88.628 95.895-28.363 269.276-48.633 120.763-101.958-87.372-31.37-418.346-62.981-992.924-94.83L-184.82 707.437v153.97z" opacity=".4"/><path d="M-292.375 813.84c37.747 76.525 123.76 114.134 258.037 112.83 383.046-3.72 544.842-109.127 751.441-112.83 226.51-4.059 542.957 114.292 797.087 112.83 254.13-1.461 716.496-110.931 954.825-112.83 238.328-1.897 379.073 135.496 654.587 131.07 196.425-3.155 245.67-18.77 330.38-65.693 106.53-59.01 19.982-126.138-259.643-201.387l-3486.714 94.842v41.169z" opacity=".4"/><path d="M-294.057 813.84c38.102-11.263 164.98-11.263 380.633 0 119.29 6.232 285.49 111.364 630.527 111.364 378.237 0 470.834-111.363 735.1-111.363 203.06 0 428.878 147.674 935.738 145.645 120.832-.484 535.768-32.388 677.765-180.857 18.508-19.352 12.099-76.43-19.229-171.233l-3332.895 98.429-7.639 108.016z" opacity=".4"/></g><g fill="#FFF" transform="translate(691 209)"><ellipse cx="370.664" cy="83.271" rx="211.331" ry="83.271"/><ellipse cx="608.996" cy="166.286" rx="238.338" ry="104.039"/><ellipse cx="313.671" cy="218.305" rx="313.671" ry="132.361"/></g><g fill="#FFF" transform="translate(1791 481)"><ellipse cx="366.958" cy="77.039" rx="180.783" ry="77.039"/><ellipse cx="517.941" cy="186.486" rx="267.059" ry="124.514"/><ellipse cx="251.45" cy="181.654" rx="251.45" ry="96.37"/></g></g></svg>