<svg width="542" height="159" viewBox="0 0 542 159" fill="none" xmlns="http://www.w3.org/2000/svg">
<path d="M148.554 105.033C230.597 105.033 297.107 81.5204 297.107 52.5164C297.107 23.5124 230.597 0 148.554 0C66.5097 0 0 23.5124 0 52.5164C0 81.5204 66.5097 105.033 148.554 105.033Z" transform="translate(128.697)" fill="#F6FAFD"/>
<path d="M198.929 118.38C308.795 118.38 397.859 91.8794 397.859 59.1898C397.859 26.5002 308.795 0 198.929 0C89.0638 0 0 26.5002 0 59.1898C0 91.8794 89.0638 118.38 198.929 118.38Z" transform="translate(0 40.6205)" fill="#F6FAFD"/>
<path d="M126.491 92.2664C196.35 92.2664 252.982 71.6119 252.982 46.1332C252.982 20.6545 196.35 0 126.491 0C56.632 0 0 20.6545 0 46.1332C0 71.6119 56.632 92.2664 126.491 92.2664Z" transform="translate(289.018 40.6205)" fill="#F6FAFD"/>
</svg>
