<svg width="611" height="123" viewBox="0 0 611 123" fill="none" xmlns="http://www.w3.org/2000/svg">
<path d="M167.465 81.2518C259.954 81.2518 334.931 63.063 334.931 40.6259C334.931 18.1888 259.954 0 167.465 0C74.9768 0 0 18.1888 0 40.6259C0 63.063 74.9768 81.2518 167.465 81.2518Z" transform="translate(145.081)" fill="#F6FAFD"/>
<path d="M224.254 91.5766C348.107 91.5766 448.509 71.0765 448.509 45.7883C448.509 20.5001 348.107 0 224.254 0C100.402 0 0 20.5001 0 45.7883C0 71.0765 100.402 91.5766 224.254 91.5766Z" transform="translate(0 31.4233)" fill="#F6FAFD"/>
<path d="M142.594 71.3759C221.347 71.3759 285.189 55.3979 285.189 35.688C285.189 15.978 221.347 0 142.594 0C63.8416 0 0 15.978 0 35.688C0 55.3979 63.8416 71.3759 142.594 71.3759Z" transform="translate(325.812 31.4233)" fill="#F6FAFD"/>
</svg>
