<svg width="611" height="202" viewBox="0 0 611 202" fill="none" xmlns="http://www.w3.org/2000/svg">
<path d="M167.465 133.438C259.954 133.438 334.931 103.567 334.931 66.719C334.931 29.8711 259.954 0 167.465 0C74.9768 0 0 29.8711 0 66.719C0 103.567 74.9768 133.438 167.465 133.438Z" transform="translate(145.081)" fill="#F9F9F9"/>
<path d="M224.254 150.394C348.107 150.394 448.509 116.727 448.509 75.1971C448.509 33.6669 348.107 0 224.254 0C100.402 0 0 33.6669 0 75.1971C0 116.727 100.402 150.394 224.254 150.394Z" transform="translate(0 51.606)" fill="#F9F9F9"/>
<path d="M142.594 117.219C221.347 117.219 285.189 90.9786 285.189 58.6095C285.189 26.2404 221.347 0 142.594 0C63.8416 0 0 26.2404 0 58.6095C0 90.9786 63.8416 117.219 142.594 117.219Z" transform="translate(325.811 51.606)" fill="#F9F9F9"/>
</svg>
