<svg width="1024" height="652" viewBox="0 0 1024 652" fill="none" xmlns="http://www.w3.org/2000/svg">
<g id="top-banner">
<g id="top-bg">
<mask id="mask0" mask-type="alpha" maskUnits="userSpaceOnUse" x="0" y="0" width="1024" height="652">
<rect id="Rectangle" width="1024" height="652" fill="#289FFC"/>
</mask>
<g mask="url(#mask0)">
<ellipse id="Ellipse" cx="665" cy="484" rx="665" ry="484" transform="translate(-153 -316)" fill="#F2994A"/>
</g>
</g>
<g id="Mask Group">
<mask id="mask1" mask-type="alpha" maskUnits="userSpaceOnUse" x="-153" y="-316" width="1330" height="968">
<ellipse id="Ellipse_2" cx="665" cy="484" rx="665" ry="484" transform="translate(-153 -316)" fill="#F2C94C"/>
</mask>
<g mask="url(#mask1)">
<g id="Group 2">
<g id="Vector" style="mix-blend-mode:screen" opacity="0.5" transform="translate(2 442)">
<path d="M758.871 0C886.5 0 971.642 20.7818 1022 31.1727V205H0V31.1727C0 31.1727 101 104.5 294.5 104.5C482 104.5 631.243 0 758.871 0Z" fill="#F2C94C"/>
</g>
<g id="Vector_2" style="mix-blend-mode:screen" opacity="0.5" transform="translate(0 421)">
<path d="M347.429 22.3367C208.259 -30.1589 57.8224 22.8228 0 49.5566V226H1024V49.5566C981.004 71.9158 869.412 116.634 767.012 116.634C639.012 116.634 521.39 87.9561 347.429 22.3367Z" fill="#F2C94C"/>
</g>
</g>
</g>
</g>
<g id="Group">
<g id="surface1 1">
<path id="Vector_3" d="M12 0C5.35385 0 0 5.35385 0 12C0 18.6462 5.35385 24 12 24C18.6462 24 24 18.6462 24 12C24 5.35385 18.6462 0 12 0ZM12 1.84615C17.5385 1.84615 22.1538 6.46154 22.1538 12C22.1538 17.5385 17.5385 22.1538 12 22.1538C6.46154 22.1538 1.84615 17.5385 1.84615 12C1.84615 6.46154 6.46154 1.84615 12 1.84615ZM7.38462 7.38462C6.27692 7.38462 5.53846 8.30769 5.53846 9.23077C5.53846 10.3385 6.27692 11.0769 7.38462 11.0769C8.49231 11.0769 9.23077 10.3385 9.23077 9.23077C9.23077 8.30769 8.49231 7.38462 7.38462 7.38462ZM16.6154 7.38462C15.5077 7.38462 14.7692 8.30769 14.7692 9.23077C14.7692 10.3385 15.5077 11.0769 16.6154 11.0769C17.7231 11.0769 18.4615 10.3385 18.4615 9.23077C18.4615 8.30769 17.7231 7.38462 16.6154 7.38462ZM15.6923 14.5846C15.6923 14.5846 15.5077 14.9538 14.9538 15.5077C14.4 16.0615 13.6615 16.6154 12 16.6154C10.3385 16.6154 9.41539 16.0615 8.86154 15.6923C8.30769 15.1385 8.30769 14.7692 8.30769 14.7692L6.46154 15.3231C6.46154 15.3231 6.83077 16.2462 7.56923 16.9846C8.49231 17.7231 9.96923 18.4615 12 18.4615C14.0308 18.4615 15.5077 17.7231 16.2462 16.9846C17.1692 16.2462 17.3538 15.3231 17.3538 15.3231L15.6923 14.5846Z" transform="translate(36 415)" fill="#F2C94C"/>
</g>
</g>
<g id="Group 12">
<g id="dot">
<circle id="Ellipse_3" cx="10.5" cy="10.5" r="10.5" transform="translate(175 412)" fill="#F2994A"/>
<circle id="Ellipse_4" cx="7.5" cy="7.5" r="7.5" transform="translate(178 415)" fill="#F2C94C"/>
</g>
<g id="dot_2">
<circle id="Ellipse_5" cx="10.5" cy="10.5" r="10.5" transform="translate(814 527)" fill="#F2994A"/>
<circle id="Ellipse_6" cx="7.5" cy="7.5" r="7.5" transform="translate(817 530)" fill="#F2C94C"/>
</g>
<g id="Group_2">
<g id="surface1 1_2">
<path id="Vector_4" d="M5 0C4.6 0 4 0.4 4 1C4 1.6 4.6 2 5 2C5.4 2 6 1.6 6 1C6 0.4 5.6 0 5 0ZM21 0C20.6 0 20 0.4 20 1C20 1.6 20.6 2 21 2C21.4 2 22 1.6 22 1C22 0.4 21.6 0 21 0ZM15.4 4L10 11.4L4.6 8L0 15L1.6 16L5.2 10.8L10.4 14L15.6 7L21 12.2L26 7.4L24.6 6L21 9.4L15.4 4ZM5 4C4.6 4 4 4.4 4 5C4 5.6 4.6 6 5 6C5.4 6 6 5.6 6 5C6 4.4 5.6 4 5 4ZM21 4C20.6 4 20 4.4 20 5C20 5.6 20.6 6 21 6C21.4 6 22 5.6 22 5C22 4.4 21.6 4 21 4ZM5 14C4.6 14 4 14.4 4 15C4 15.6 4.6 16 5 16C5.4 16 6 15.6 6 15C6 14.4 5.6 14 5 14ZM21 14C20.6 14 20 14.4 20 15C20 15.6 20.6 16 21 16C21.4 16 22 15.6 22 15C22 14.4 21.6 14 21 14ZM5 18C4.6 18 4 18.4 4 19C4 19.6 4.6 20 5 20C5.4 20 6 19.6 6 19C6 18.4 5.6 18 5 18ZM21 18C20.6 18 20 18.4 20 19C20 19.6 20.4 20 21 20C21.6 20 22 19.6 22 19C22 18.4 21.6 18 21 18ZM26 22H0V24H26V22Z" transform="translate(865.627 400.374)" fill="#F2C94C"/>
</g>
</g>
<g id="Group_3">
<g id="surface1 1_3">
<path id="Vector_5" d="M12 0C5.35385 0 0 5.35385 0 12C0 18.6462 5.35385 24 12 24C18.6462 24 24 18.6462 24 12C24 5.35385 18.6462 0 12 0ZM12 1.84615C17.5385 1.84615 22.1538 6.46154 22.1538 12C22.1538 17.5385 17.5385 22.1538 12 22.1538C6.46154 22.1538 1.84615 17.5385 1.84615 12C1.84615 6.46154 6.46154 1.84615 12 1.84615ZM7.38462 7.38462C6.27692 7.38462 5.53846 8.30769 5.53846 9.23077C5.53846 10.3385 6.27692 11.0769 7.38462 11.0769C8.49231 11.0769 9.23077 10.3385 9.23077 9.23077C9.23077 8.30769 8.49231 7.38462 7.38462 7.38462ZM16.6154 7.38462C15.5077 7.38462 14.7692 8.30769 14.7692 9.23077C14.7692 10.3385 15.5077 11.0769 16.6154 11.0769C17.7231 11.0769 18.4615 10.3385 18.4615 9.23077C18.4615 8.30769 17.7231 7.38462 16.6154 7.38462ZM15.6923 14.5846C15.6923 14.5846 15.5077 14.9538 14.9538 15.5077C14.4 16.0615 13.6615 16.6154 12 16.6154C10.3385 16.6154 9.41539 16.0615 8.86154 15.6923C8.30769 15.1385 8.30769 14.7692 8.30769 14.7692L6.46154 15.3231C6.46154 15.3231 6.83077 16.2462 7.56923 16.9846C8.49231 17.7231 9.96923 18.4615 12 18.4615C14.0308 18.4615 15.5077 17.7231 16.2462 16.9846C17.1692 16.2462 17.3538 15.3231 17.3538 15.3231L15.6923 14.5846Z" transform="translate(882 160)" fill="#F2C94C"/>
</g>
</g>
<g id="pencil-with-stripes">
<g id="Group_4">
<path id="Vector_6" d="M23.7275 7.75206L16.2479 0.273009C15.8839 -0.091003 15.2942 -0.091003 14.9309 0.273009L12.1619 3.04167L1.79613 13.4102L1.79237 13.4117V13.4155L1.59225 13.6156C1.45028 13.7561 1.35891 13.9374 1.3302 14.136L0.0102599 22.9306C-0.0335447 23.2214 0.0646138 23.5166 0.272264 23.7273C0.450463 23.9018 0.68682 24 0.930746 24C0.978315 24 1.02212 23.9962 1.06894 23.9887L9.86623 22.6731C10.0626 22.6421 10.2484 22.5514 10.3866 22.4095L20.9599 11.837L23.7283 9.06762C24.0907 8.7051 24.0907 8.11604 23.7275 7.75206ZM9.93121 20.2322L8.69809 18.9974L17.7499 9.94449L18.9838 11.18L9.93121 20.2322ZM2.4365 19.3138L2.94925 15.8858L8.11589 21.0531L4.68834 21.5644L2.4365 19.3138ZM16.4329 8.62732L7.38109 17.6802L6.3224 16.6229L15.3742 7.57004L15.9013 8.09945L16.4329 8.62732ZM12.8196 5.01736L14.0573 6.25291L5.0047 15.3058L3.76777 14.0702L12.8196 5.01736ZM20.3007 9.86212L18.4083 7.97029V7.96876H18.4046L17.219 6.78232L14.1373 3.70024L15.5894 2.2487L21.7521 8.41055L20.3007 9.86212Z" transform="translate(740 258)" fill="#F2C94C"/>
</g>
</g>
<g id="backpack">
<g id="Group_5">
<path id="Vector_7" d="M20.6925 7.31747C20.6925 7.31747 20.5082 1.95174 20.4999 1.88715C20.487 1.78763 20.4552 1.68927 20.4043 1.59504C20.2745 1.3551 20.0379 1.17073 19.738 1.07586L17.7881 0.459136C17.4881 0.364269 17.1609 0.370326 16.8667 0.476083C16.5725 0.581899 16.3463 0.774836 16.23 1.01937L14.8919 3.83138C14.6878 3.79137 14.4811 3.75701 14.272 3.72824V2.66781C14.272 1.19676 12.8042 0 11 0C9.19584 0 7.72798 1.19676 7.72798 2.66781V3.7283C7.51835 3.75713 7.31107 3.7916 7.10644 3.83173L5.76829 1.01937C5.65194 0.774836 5.42581 0.581899 5.13154 0.476083C4.83734 0.370267 4.51014 0.364211 4.21015 0.459136L2.26025 1.07586C1.9604 1.17073 1.72377 1.35505 1.59399 1.59504C1.54485 1.68589 1.51357 1.78058 1.49978 1.8765C1.49007 1.94411 1.30608 7.31945 1.30608 7.31945C0.477191 8.45128 -6.53916e-08 9.77324 -6.53916e-08 11.1845V25.6253C-6.53916e-08 26.5377 0.910384 27.28 2.02947 27.28H19.9705C21.0896 27.28 22 26.5377 22 25.6253V11.1846C22 9.77243 21.5223 8.4497 20.6925 7.31747ZM19.5758 6.09223C19.3626 5.90174 19.1374 5.72039 18.9017 5.54848L19.5093 4.27118L19.5758 6.09223ZM17.2288 1.33536C17.2553 1.27969 17.3325 1.25203 17.4006 1.27357L19.3505 1.8903C19.3929 1.90369 19.4139 1.92885 19.424 1.94749C19.4341 1.96618 19.4427 1.99576 19.4262 2.03036L18.0225 4.98097C17.3767 4.61326 16.6714 4.31049 15.9204 4.08506L17.2288 1.33536ZM11.0001 0.873547C12.0943 0.873547 13.0043 1.52818 13.1725 2.38234C12.5897 1.95983 11.8247 1.70452 11 1.70452C10.1915 1.70452 9.42818 1.94242 8.82878 2.37704C8.9997 1.5255 9.90809 0.873547 11.0001 0.873547ZM13.0007 3.62615C12.9092 3.624 9.09077 3.624 8.99928 3.62615C9.10706 3.43415 9.25562 3.2574 9.44397 3.10348C9.85959 2.76466 10.4122 2.57807 11 2.57807C11.8746 2.57807 12.6495 3.00424 13.0007 3.62615ZM2.5743 1.94749C2.58445 1.92879 2.60544 1.90369 2.6478 1.8903L4.5977 1.27357C4.66592 1.25197 4.74305 1.27975 4.76948 1.33536L6.07806 4.08558C5.3271 4.31107 4.62185 4.61396 3.97609 4.98178L2.57202 2.03036C2.55559 1.99576 2.56416 1.96624 2.5743 1.94749ZM2.48902 4.2713L3.09706 5.54941C2.86122 5.7215 2.63594 5.90297 2.42267 6.09357L2.48902 4.2713ZM20.9286 25.6253C20.9286 26.056 20.4988 26.4065 19.9705 26.4065H2.02954C1.50128 26.4065 1.07145 26.056 1.07145 25.6253V11.1846C1.07145 7.49655 4.75134 4.49615 9.27469 4.49615H12.7255C17.2487 4.49615 20.9287 7.49655 20.9287 11.1846V25.6253H20.9286Z" transform="translate(73 211)" fill="#F2C94C"/>
<path id="Vector_8" d="M1.56828 -1.84833e-07C0.703537 -1.84833e-07 1.96175e-07 0.573629 1.96175e-07 1.2787V9.5092C1.96175e-07 10.2143 0.703537 10.7879 1.56828 10.7879H16.1056C16.9704 10.7879 17.6739 10.2143 17.6739 9.5092V1.2787C17.6739 0.573629 16.9704 -1.84833e-07 16.1056 -1.84833e-07H1.56828ZM16.1056 9.91435H1.56828C1.29429 9.91435 1.07138 9.7326 1.07138 9.5092V4.01942H14.5565V5.01265H15.6279V4.01942H16.6025V9.5092C16.6025 9.7326 16.3796 9.91435 16.1056 9.91435ZM16.6025 1.2787V3.14588H1.07138V1.2787C1.07138 1.0553 1.29429 0.873547 1.56828 0.873547H16.1056C16.3796 0.873547 16.6025 1.0553 16.6025 1.2787Z" transform="translate(75.1631 225.776)" fill="#F2C94C"/>
<path id="Vector_9" d="M6.80045 8.53073e-08H4.7082e-07V2.49415H6.80045V8.53073e-08ZM5.72908 1.6206H1.07138V0.873547H5.72908V1.6206Z" transform="translate(80.5999 217.292)" fill="#F2C94C"/>
</g>
</g>
<g id="trophy">
<g id="Group_6">
<path id="Vector_10" d="M19.3803 10.8169C23.6057 8.28168 24 4 24 3.7746C24 2.14079 22.7042 0.845043 21.0704 0.845043C20.6197 0.845043 20.169 0.957696 19.7747 1.1831V0H4.22531V1.1831C3.83097 0.95779 3.38026 0.845043 2.92956 0.845043C1.29575 0.845043 -1.99382e-08 2.14079 -1.99382e-08 3.83097C-1.99382e-08 4 0.394334 8.28168 4.61974 10.8169C5.35212 12.9578 7.0423 14.6479 9.12682 15.3803V18.3098H5.23947L3.54929 27.0422H20.5071L18.7606 18.3661H14.8733V15.4365C16.9577 14.648 18.6479 12.9578 19.3803 10.8169ZM19.7746 2.53522C20.1127 2.19717 20.5634 1.97186 21.0704 1.97186C22.0844 1.97186 22.8732 2.76062 22.8732 3.71832C22.8732 3.77469 22.5915 6.87328 19.7182 9.1831C19.7182 8.90142 19.7746 8.67602 19.7746 8.39433V2.53522ZM1.12663 3.77469C1.12663 2.76062 1.91539 1.97186 2.92946 1.97186C3.43654 1.97186 3.88725 2.14089 4.22521 2.53522V8.45071C4.22521 8.73239 4.22521 8.95779 4.28159 9.23947C1.46468 6.98593 1.12663 3.88735 1.12663 3.77469ZM5.35203 8.39443V1.12672H18.6479V8.39443C18.6479 11.8874 15.831 14.7043 12.338 14.7043H11.6619C8.16893 14.7042 5.35203 11.8873 5.35203 8.39443ZM14.8732 19.493H17.8027L19.0985 25.9156H4.90132L6.19707 19.493H9.12663H14.8732ZM12.6196 15.8311C12.9577 15.8311 13.352 15.7747 13.6901 15.7184V18.31H10.2534V15.7748C10.6478 15.8312 10.9858 15.8874 11.3239 15.8874H11.6056H12.2817H12.6197V15.8311H12.6196Z" transform="translate(263 304)" fill="#F2C94C"/>
</g>
</g>
</g>
</g>
</svg>
