<svg width="35" height="34" viewBox="0 0 35 34" fill="none" xmlns="http://www.w3.org/2000/svg">
<path fill-rule="evenodd" clip-rule="evenodd" d="M1.07392 -7.00128e-07L9.01832 5.96323V29.5152H5.79941V6.84375L-1.04652e-06 1.1968L1.07392 -7.00128e-07ZM14.6011 13.2533V29.271H16.9187V13.2533H14.6011Z" transform="translate(16.4655 2.39258)" fill="#FED99B"/>
<path d="M16.2889 0.000296879C16.1254 0.000296879 15.9322 0.0729464 15.8259 0.154881L8.05184 6.17C7.96576 6.23686 7.89621 6.3211 7.84819 6.41667C7.80017 6.51223 7.77486 6.61677 7.77408 6.72279V13.4453H2.221C1.00362 13.4453 0 14.4039 0 15.5679V29.0129C0 30.1764 1.00362 31.1356 2.221 31.1356H30.3567C31.5741 31.1356 32.5777 30.1764 32.5777 29.0129V15.5679C32.5777 14.4045 31.5741 13.4453 30.3567 13.4453H24.8037V6.72279C24.8037 6.5114 24.6985 6.30219 24.5259 6.17L16.7518 0.154881C16.6228 0.0504952 16.4579 -0.00456773 16.2889 0.000296879ZM16.2889 1.61442L23.3228 7.06582V29.7203H19.6209V19.1059C19.6209 18.7355 19.2677 18.3985 18.8802 18.3985H13.6975C13.6743 18.3975 13.651 18.3975 13.6278 18.3985C13.2643 18.4313 12.9557 18.7568 12.9568 19.1059V29.7203H9.25494V7.06528L16.2889 1.61442ZM16.2889 8.13808C14.0484 8.13808 12.2167 9.88876 12.2167 12.03C12.2167 14.1712 14.0484 15.9219 16.2889 15.9219C18.5293 15.9219 20.3611 14.1707 20.3611 12.03C20.3611 9.88876 18.5293 8.13808 16.2889 8.13808ZM16.2889 9.55282C16.6296 9.55145 16.9673 9.61459 17.2824 9.7386C17.5975 9.86261 17.8837 10.045 18.1246 10.2753C18.3656 10.5056 18.5564 10.7793 18.6861 11.0804C18.8158 11.3816 18.8817 11.7043 18.8802 12.03C18.8817 12.3556 18.8156 12.6783 18.6859 12.9794C18.5562 13.2805 18.3654 13.554 18.1244 13.7843C17.8835 14.0145 17.5973 14.1969 17.2822 14.3209C16.9672 14.4449 16.6296 14.508 16.2889 14.5066C15.9482 14.508 15.6105 14.4449 15.2955 14.3209C14.9805 14.1969 14.6942 14.0145 14.4533 13.7843C14.2124 13.554 14.0216 13.2805 13.8918 12.9794C13.7621 12.6783 13.6961 12.3556 13.6975 12.03C13.6961 11.7044 13.7621 11.3817 13.8918 11.0806C14.0216 10.7795 14.2124 10.5059 14.4533 10.2757C14.6942 10.0454 14.9805 9.86307 15.2955 9.73909C15.6105 9.61512 15.9482 9.55199 16.2889 9.55337V9.55282ZM2.221 14.8606H7.77408V29.7203H2.221C1.79806 29.7203 1.48086 29.4171 1.48086 29.0129V15.5679C1.48086 15.1637 1.79806 14.8606 2.221 14.8606ZM24.8037 14.8606H30.3567C30.7797 14.8606 31.0969 15.1637 31.0969 15.5679V29.0129C31.0969 29.4171 30.7797 29.7203 30.3567 29.7203H24.8037V14.8606ZM14.4377 19.8138H18.1401V29.7203H14.4377V19.8138Z" transform="translate(1.29382 1.41235)" fill="#F5A421"/>
<path d="M16.2889 0.000296879C16.1254 0.000296879 15.9322 0.0729464 15.8259 0.154881L8.05184 6.17C7.96576 6.23686 7.89621 6.3211 7.84819 6.41666C7.80017 6.51223 7.77486 6.61677 7.77408 6.72279V13.4453H2.221C1.00362 13.4453 0 14.4039 0 15.5679V29.0129C0 30.1764 1.00362 31.1356 2.221 31.1356H30.3567C31.5741 31.1356 32.5777 30.1764 32.5777 29.0129V15.5679C32.5777 14.4045 31.5741 13.4453 30.3567 13.4453H24.8037V6.72279C24.8037 6.5114 24.6985 6.30219 24.5259 6.17L16.7518 0.154881C16.6228 0.0504952 16.4579 -0.00456773 16.2889 0.000296879V0.000296879ZM16.2889 1.61442L23.3228 7.06582V29.7203H19.6209V19.1059C19.6209 18.7355 19.2677 18.3985 18.8802 18.3985H13.6975C13.6743 18.3975 13.651 18.3975 13.6278 18.3985C13.2643 18.4313 12.9557 18.7568 12.9568 19.1059V29.7203H9.25494V7.06528L16.2889 1.61442V1.61442ZM16.2889 8.13808C14.0484 8.13808 12.2167 9.88876 12.2167 12.03C12.2167 14.1712 14.0484 15.9219 16.2889 15.9219C18.5293 15.9219 20.3611 14.1707 20.3611 12.03C20.3611 9.88876 18.5293 8.13808 16.2889 8.13808ZM16.2889 9.55282C16.6296 9.55145 16.9673 9.61459 17.2824 9.7386C17.5975 9.86261 17.8837 10.045 18.1246 10.2753C18.3656 10.5056 18.5564 10.7793 18.6861 11.0804C18.8158 11.3816 18.8817 11.7043 18.8802 12.03C18.8817 12.3556 18.8156 12.6783 18.6859 12.9794C18.5562 13.2805 18.3654 13.554 18.1244 13.7843C17.8835 14.0145 17.5973 14.1969 17.2822 14.3209C16.9672 14.4449 16.6296 14.508 16.2889 14.5066C15.9482 14.508 15.6105 14.4449 15.2955 14.3209C14.9805 14.1969 14.6942 14.0145 14.4533 13.7843C14.2124 13.554 14.0216 13.2805 13.8918 12.9794C13.7621 12.6783 13.6961 12.3556 13.6975 12.03C13.6961 11.7044 13.7621 11.3817 13.8918 11.0806C14.0216 10.7795 14.2124 10.5059 14.4533 10.2757C14.6942 10.0454 14.9805 9.86307 15.2955 9.73909C15.6105 9.61512 15.9482 9.55199 16.2889 9.55337V9.55282ZM2.221 14.8606H7.77408V29.7203H2.221C1.79806 29.7203 1.48086 29.4171 1.48086 29.0129V15.5679C1.48086 15.1637 1.79806 14.8606 2.221 14.8606ZM24.8037 14.8606H30.3567C30.7797 14.8606 31.0969 15.1637 31.0969 15.5679V29.0129C31.0969 29.4171 30.7797 29.7203 30.3567 29.7203H24.8037V14.8606V14.8606ZM14.4377 19.8138H18.1401V29.7203H14.4377V19.8138Z" transform="translate(1.29382 1.41235)" stroke="#F5A623"/>
</svg>
