<svg width="28" height="35" viewBox="0 0 28 35" fill="none" xmlns="http://www.w3.org/2000/svg">
<path fill-rule="evenodd" clip-rule="evenodd" d="M0.690907 -1.46227e-06C2.53343 -1.46227e-06 5.72209 2.44481 5.62729 5.06846C5.53249 7.69268 4.87293 9.197 1.27808 9.54968C-2.31735 9.90236 2.81495 8.38411 2.8138 5.06846C2.81266 1.75337 -1.15219 -1.46227e-06 0.690907 -1.46227e-06Z" transform="translate(17.0585 14.8331)" fill="#FABBAF"/>
<path d="M0 0.748821V32.2037C0 32.5954 0.370574 32.9525 0.777343 32.9525H25.6512C26.0579 32.9525 26.4285 32.596 26.4285 32.2037V0.748821C26.4285 0.356582 26.0579 0 25.6512 0H0.777343C0.353912 0 0 0.411183 0 0.748821ZM1.55469 1.49764H24.8738V31.4543H1.55469V1.49764ZM5.36843 4.49348C4.96109 4.51186 4.60833 4.88516 4.62729 5.2774C4.64625 5.66964 5.03405 6.0095 5.4414 5.99112H20.9871C21.3979 5.99669 21.7759 5.63788 21.7759 5.2423C21.7759 4.84672 21.3979 4.48791 20.9871 4.49348H5.4414C5.41709 4.49239 5.39274 4.49239 5.36843 4.49348ZM5.36843 8.98696C4.96109 9.00534 4.60833 9.37864 4.62729 9.77088C4.64625 10.1631 5.03405 10.503 5.4414 10.4846H20.9871C21.3979 10.4902 21.7759 10.1314 21.7759 9.73578C21.7759 9.34019 21.3979 8.98139 20.9871 8.98696H5.4414C5.41709 8.98587 5.39274 8.98587 5.36843 8.98696ZM16.712 13.106C13.5015 13.106 10.8822 15.6299 10.8822 18.7222C10.8822 19.9775 11.3212 21.1324 12.0485 22.0696V28.4585C12.0485 28.9678 12.7064 29.3561 13.1781 29.1254L16.712 27.4289L20.2465 29.1254C20.7176 29.3561 21.3755 28.9678 21.3761 28.4585V22.069C22.1028 21.1319 22.5424 19.9769 22.5424 18.7222C22.5424 15.6288 19.9225 13.1055 16.712 13.1055V13.106ZM5.36843 13.4804C4.96109 13.4988 4.60833 13.8721 4.62729 14.2644C4.64625 14.6566 5.03405 14.9965 5.4414 14.9781H9.32754C9.73833 14.9836 10.1164 14.6248 10.1164 14.2293C10.1164 13.8337 9.73833 13.4749 9.32754 13.4804H5.4414C5.41709 13.4793 5.39274 13.4793 5.36843 13.4804ZM16.712 14.6037C19.0825 14.6037 20.9871 16.4389 20.9871 18.7227C20.9871 21.0065 19.0825 22.8418 16.7126 22.8418C14.3421 22.8418 12.4369 21.0065 12.4369 18.7227C12.4369 16.4389 14.3421 14.6037 16.712 14.6037ZM13.6026 23.4619C14.5046 24.0146 15.5675 24.3394 16.712 24.3394C17.8565 24.3394 18.9194 24.0146 19.8214 23.4619V27.2417L17.0642 25.919C16.9547 25.8665 16.8342 25.8392 16.712 25.8392C16.5898 25.8392 16.4693 25.8665 16.3598 25.919L13.6026 27.2417V23.4619Z" transform="translate(0.962646 0.986572)" fill="#FC8973"/>
<path d="M0 0.748821V32.2037C0 32.5954 0.370574 32.9525 0.777343 32.9525H25.6512C26.0579 32.9525 26.4285 32.596 26.4285 32.2037V0.748821C26.4285 0.356582 26.0579 0 25.6512 0H0.777343C0.353912 0 0 0.411183 0 0.748821ZM1.55469 1.49764H24.8738V31.4543H1.55469V1.49764ZM5.36843 4.49348C4.96109 4.51186 4.60833 4.88516 4.62729 5.2774C4.64624 5.66964 5.03405 6.0095 5.4414 5.99112H20.9871C21.3979 5.99669 21.7759 5.63788 21.7759 5.2423C21.7759 4.84672 21.3979 4.48791 20.9871 4.49348H5.4414C5.41709 4.49239 5.39274 4.49239 5.36843 4.49348V4.49348ZM5.36843 8.98696C4.96109 9.00534 4.60833 9.37864 4.62729 9.77088C4.64624 10.1631 5.03405 10.503 5.4414 10.4846H20.9871C21.3979 10.4902 21.7759 10.1314 21.7759 9.73578C21.7759 9.34019 21.3979 8.98139 20.9871 8.98696H5.4414C5.41709 8.98587 5.39274 8.98587 5.36843 8.98696V8.98696ZM16.712 13.106C13.5015 13.106 10.8822 15.6299 10.8822 18.7222C10.8822 19.9775 11.3212 21.1324 12.0485 22.0696V28.4585C12.0485 28.9678 12.7064 29.3561 13.1781 29.1254L16.712 27.4289L20.2465 29.1254C20.7176 29.3561 21.3755 28.9678 21.3761 28.4585V22.069C22.1028 21.1319 22.5424 19.9769 22.5424 18.7222C22.5424 15.6288 19.9225 13.1055 16.712 13.1055V13.106ZM5.36843 13.4804C4.96109 13.4988 4.60833 13.8721 4.62729 14.2644C4.64624 14.6566 5.03405 14.9965 5.4414 14.9781H9.32754C9.73833 14.9836 10.1164 14.6248 10.1164 14.2293C10.1164 13.8337 9.73833 13.4749 9.32754 13.4804H5.4414C5.41709 13.4793 5.39274 13.4793 5.36843 13.4804V13.4804ZM16.712 14.6037C19.0825 14.6037 20.9871 16.4389 20.9871 18.7227C20.9871 21.0065 19.0825 22.8418 16.7126 22.8418C14.3421 22.8418 12.4369 21.0065 12.4369 18.7227C12.4369 16.4389 14.3421 14.6037 16.712 14.6037ZM13.6026 23.4619C14.5046 24.0146 15.5675 24.3394 16.712 24.3394C17.8565 24.3394 18.9194 24.0146 19.8214 23.4619V27.2417L17.0642 25.919C16.9547 25.8665 16.8342 25.8392 16.712 25.8392C16.5898 25.8392 16.4693 25.8665 16.3598 25.919L13.6026 27.2417V23.4619Z" transform="translate(0.962646 0.986572)" stroke="#FC8973"/>
</svg>
