<svg width="43" height="29" viewBox="0 0 43 29" fill="none" xmlns="http://www.w3.org/2000/svg">
<path fill-rule="evenodd" clip-rule="evenodd" d="M-2.0599e-06 1.57143L16.6951 8.21054L6.50219 13.366L2.4378 16.4205L21.6153 8.46347L16.6951 5.40956L2.74094 4.06253e-07L-2.0599e-06 1.57143Z" transform="translate(17.7009 2.06995)" fill="#B7D7FB"/>
<path d="M20.4522 0.0595071L0.605681 7.90396C0.248901 8.04495 0 8.43585 0 8.79588C0 9.1553 0.248901 9.5462 0.605681 9.68718L7.08799 12.2425V22.0783C7.08799 23.0314 7.72923 23.7581 8.50607 24.2772C9.28231 24.7958 10.29 25.1976 11.5037 25.5401C13.9307 26.2238 17.1869 26.6244 20.7921 26.6244C24.3972 26.6244 27.6535 26.2238 30.0804 25.5401C31.2942 25.1976 32.3019 24.7958 33.0781 24.2772C33.8549 23.7581 34.4962 23.0314 34.4962 22.0783V12.2425L39.6942 10.1924V16.1647C39.687 16.667 40.1402 17.1293 40.6392 17.1293C41.1382 17.1293 41.5842 16.6615 41.5842 16.1647V8.77409C41.5842 8.39712 41.3286 8.03769 40.9785 7.90457L21.132 0.0601118C21.0237 0.0180419 20.9082 -0.0023091 20.7921 0.000207977C20.6776 0.000207977 20.5462 0.0225963 20.4522 0.0595071ZM20.7921 1.97645L38.0405 8.79588L20.7921 15.6153L3.54369 8.79588L20.7921 1.97645ZM8.97856 13.0001L20.4522 17.5322C20.6691 17.6157 20.9156 17.6157 21.132 17.5322L32.6056 13.0001V22.0783C32.6056 22.1201 32.5411 22.3452 32.0301 22.6871C31.5184 23.0289 30.656 23.4041 29.5639 23.7121C27.378 24.3287 24.255 24.7226 20.7921 24.7226C17.3291 24.7226 14.2061 24.3287 12.0202 23.7121C10.9276 23.4041 10.0658 23.0289 9.55411 22.6871C9.04305 22.3452 8.97856 22.1195 8.97856 22.0783V13.0001Z" transform="translate(0.504272 1.33093)" fill="#5DA1F1"/>
<path d="M20.4522 0.0595071L0.605681 7.90396C0.248901 8.04495 0 8.43585 0 8.79588C0 9.1553 0.248901 9.5462 0.605681 9.68718L7.08799 12.2425V22.0783C7.08799 23.0314 7.72923 23.7581 8.50607 24.2772C9.28231 24.7958 10.29 25.1976 11.5037 25.5401C13.9307 26.2238 17.1869 26.6244 20.7921 26.6244C24.3972 26.6244 27.6535 26.2238 30.0804 25.5401C31.2942 25.1976 32.3019 24.7958 33.0781 24.2772C33.8549 23.7581 34.4962 23.0314 34.4962 22.0783V12.2425L39.6942 10.1924V16.1647C39.687 16.667 40.1402 17.1293 40.6392 17.1293C41.1382 17.1293 41.5842 16.6615 41.5842 16.1647V8.77409C41.5842 8.39712 41.3286 8.03769 40.9785 7.90457L21.132 0.0601118C21.0237 0.0180419 20.9082 -0.0023091 20.7921 0.000207977C20.6776 0.000207977 20.5462 0.0225963 20.4522 0.0595071ZM20.7921 1.97645L38.0405 8.79588L20.7921 15.6153L3.54369 8.79588L20.7921 1.97645ZM8.97856 13.0001L20.4522 17.5322C20.6691 17.6157 20.9156 17.6157 21.132 17.5322L32.6056 13.0001V22.0783C32.6056 22.1201 32.5411 22.3452 32.0301 22.6871C31.5184 23.0289 30.656 23.4041 29.5639 23.7121C27.378 24.3287 24.255 24.7226 20.7921 24.7226C17.3291 24.7226 14.2061 24.3287 12.0202 23.7121C10.9276 23.4041 10.0658 23.0289 9.55411 22.6871C9.04305 22.3452 8.97856 22.1195 8.97856 22.0783V13.0001Z" transform="translate(0.504272 1.33093)" stroke="#5DA1F1"/>
</svg>
