<svg width="216" height="60" viewBox="0 0 216 60" fill="none" xmlns="http://www.w3.org/2000/svg">
<path d="M41.1077 19.963C40.6586 20.4157 40.0647 20.6677 39.4274 20.6677C38.7949 20.6677 38.1986 20.4157 37.7519 19.963C37.3029 19.5078 37.0566 18.9034 37.0566 18.2622C37.0566 17.6187 37.3029 17.0142 37.7519 16.5615C38.1986 16.1063 38.7949 15.8567 39.4274 15.8567C40.0623 15.8567 40.6586 16.1063 41.1077 16.5615C42.0323 17.4987 42.0323 19.0233 41.1077 19.963ZM43.2636 14.3738C42.2399 13.3362 40.8783 12.7636 39.4274 12.7636C37.9813 12.7636 36.6197 13.3362 35.5936 14.3738C34.57 15.4114 34.0051 16.794 34.0051 18.2622C34.0051 19.7305 34.57 21.1107 35.5936 22.1482C36.6197 23.1883 37.9813 23.7584 39.4274 23.7584C40.8783 23.7584 42.2399 23.1883 43.2636 22.1482C44.2896 21.1107 44.8545 19.7305 44.8545 18.2622C44.8545 16.794 44.2896 15.4114 43.2636 14.3738Z" transform="translate(74.5385 1.76978)" fill="url(#paint0_linear)"/>
<path d="M1.52654 47.6635C1.13509 47.6635 0.745918 47.5112 0.445503 47.209C-0.148501 46.6069 -0.148501 45.6265 0.445503 45.0221L9.26681 36.0806C9.86309 35.4785 10.8303 35.4785 11.4243 36.0806C12.0206 36.685 12.0206 37.6654 11.4243 38.2675L2.60305 47.209C2.30491 47.5112 1.91572 47.6635 1.52654 47.6635Z" transform="translate(74.5385 1.76978)" fill="url(#paint1_linear)"/>
<path d="M3.49554 56.2331C3.10371 56.2331 2.71409 56.0819 2.41799 55.7795C1.82133 55.1747 1.82133 54.1953 2.41799 53.5928L11.6105 44.2727C12.2072 43.6679 13.1711 43.6679 13.7678 44.2727C14.3645 44.8753 14.3645 45.8546 13.7678 46.4594L4.57531 55.7795C4.27476 56.0819 3.88737 56.2331 3.49554 56.2331Z" transform="translate(74.5385 1.76978)" fill="url(#paint2_linear)"/>
<path d="M11.9485 58.2302C11.5592 58.2302 11.1676 58.0778 10.8712 57.7773C10.274 57.1742 10.274 56.1944 10.8712 55.5891L19.6925 46.6475C20.2876 46.0444 21.252 46.0444 21.8492 46.6475C22.4464 47.2507 22.4464 48.2305 21.8492 48.8358L13.0279 57.7773C12.7315 58.0778 12.34 58.2302 11.9485 58.2302Z" transform="translate(74.5385 1.76978)" fill="url(#paint3_linear)"/>
<path d="M51.6231 11.0682C49.6972 16.1595 46.1468 23.501 40.1672 29.5621C37.4166 32.3502 34.21 34.8302 30.5949 36.9768C30.5276 37.0096 30.4653 37.045 30.4055 37.0879C28.4696 38.2269 26.4142 39.2699 24.2466 40.2144L22.0889 38.0249L26.4465 33.6104C27.042 33.0043 27.042 32.0269 26.4465 31.4233C25.8486 30.8172 24.8844 30.8172 24.2889 31.4233L19.9313 35.8378L17.7712 33.6508C18.7055 31.4537 19.7345 29.3701 20.8581 27.4079C20.898 27.3473 20.9329 27.2841 20.9653 27.2185C23.083 23.5515 25.5297 20.3013 28.2828 17.5132C34.2599 11.4546 41.5026 7.85334 46.5255 5.90117C49.5776 4.7142 52.2036 3.97423 53.9427 3.54996C53.5241 5.31272 52.7941 7.97455 51.6231 11.0682ZM37.3568 42.1843L30.8166 48.8388L32.6404 39.3431C34.8155 38.0198 36.8485 36.5803 38.7321 35.0297L37.3568 42.1843ZM9.26518 26.9912L15.8278 20.3619L22.8887 18.9678C21.3564 20.8771 19.9363 22.9378 18.6307 25.1425L9.26518 26.9912ZM56.9997 0.453767C56.6534 0.10273 56.1601 -0.0589039 55.6768 0.019385C55.4999 0.047165 51.2718 0.751775 45.5115 2.98427C42.128 4.29245 38.919 5.86076 35.9641 7.64372C32.3364 9.83329 29.09 12.3537 26.3095 15.1418L14.7888 17.4172C14.4923 17.4753 14.2183 17.6218 14.0015 17.8389L3.56464 28.3852C3.08877 28.8651 2.97915 29.605 3.29557 30.2061C3.56216 30.7162 4.08537 31.0268 4.64097 31.0268C4.73814 31.0268 4.83532 31.0167 4.93249 30.9991L16.7073 28.6731C15.9399 30.1985 15.2224 31.7819 14.5571 33.421C14.3229 33.9993 14.455 34.661 14.8885 35.1029L17.7736 38.0249L15.0928 40.7422C14.4973 41.3458 14.4973 42.3257 15.0928 42.9293C15.3918 43.2298 15.7829 43.3813 16.1716 43.3813C16.5628 43.3813 16.9539 43.2298 17.2504 42.9293L19.9313 40.2119L22.8139 43.1364C23.1055 43.4318 23.4966 43.5884 23.8952 43.5884C24.0896 43.5884 24.2864 43.5505 24.4758 43.4722C26.0902 42.798 27.6524 42.0706 29.1548 41.2953L26.8651 53.2281C26.7355 53.8973 27.0545 54.5716 27.6474 54.8898C27.8717 55.011 28.1183 55.0691 28.3625 55.0691C28.7561 55.0691 29.1473 54.9151 29.4413 54.6145L39.8458 44.0354C40.0601 43.8183 40.2046 43.5405 40.2644 43.2399L42.5067 31.5622C45.2573 28.7413 47.7463 25.4507 49.904 21.7736C51.663 18.7784 53.2102 15.5231 54.5033 12.0986C56.7032 6.25724 57.3959 1.97156 57.4258 1.79225C57.503 1.30232 57.3436 0.802279 56.9997 0.453767Z" transform="translate(74.5385 1.76978)" fill="url(#paint4_linear)"/>
<path d="M31.1379 22.0664L31.1169 22.024V22.0209L27.6315 14.5249L27.6076 14.4794L50.3615 3.60493L53.8917 11.1919L31.1379 22.0664ZM33.2333 27.2567H24.2149V27.0294L29.0066 24.7388L29.0275 24.7842C29.2906 25.3448 29.8376 25.672 30.4085 25.672C30.6267 25.672 30.8479 25.6235 31.0572 25.5235L33.2333 24.4843V27.2567ZM17.0468 27.0385L14.8587 22.3391L25.5182 17.2427L27.7063 21.9422L17.0468 27.0385ZM4.69537 31.5653L3.55646 29.114L12.6227 24.7812L13.7616 27.2324L4.69537 31.5653ZM57.3024 11.2707L52.4718 0.887093C52.1131 0.114457 51.2014 -0.215819 50.4422 0.147775L24.9293 12.3433C24.5616 12.516 24.2806 12.8311 24.1431 13.219C24.0056 13.6038 24.0265 14.028 24.1969 14.4006L24.2209 14.4461L12.1773 20.1999C11.8127 20.3757 11.5287 20.6908 11.3912 21.0756C11.2896 21.3665 11.2746 21.6755 11.3464 21.9724L0.875166 26.9779C0.112918 27.3415 -0.212917 28.2626 0.145788 29.0353L2.58798 34.2831C2.84804 34.8436 3.39507 35.1709 3.96899 35.1709C4.18721 35.1709 4.4054 35.1224 4.61763 35.0224L15.0918 30.0169C15.2682 30.2593 15.5133 30.4472 15.8003 30.5502C15.9677 30.6108 16.141 30.6411 16.3174 30.6411C16.5386 30.6411 16.7628 30.5926 16.9661 30.4957L21.1629 28.4899V28.805C21.1629 29.6564 21.8474 30.3502 22.6874 30.3502H26.5853L15.2772 54.102C14.9125 54.8716 15.2293 55.7957 15.9916 56.1684C16.2038 56.2745 16.428 56.3229 16.6522 56.3229C17.2172 56.3229 17.7642 55.9987 18.0272 55.4473L27.1981 36.1768V54.7746C27.1981 55.6291 27.8796 56.3229 28.7256 56.3229C29.5655 56.3229 30.2501 55.6291 30.2501 54.7746V36.1768L39.421 55.4473C39.684 55.9987 40.2281 56.3229 40.796 56.3229C41.0172 56.3229 41.2444 56.2745 41.4566 56.1684C42.2159 55.7957 42.5327 54.8716 42.168 54.102L30.8629 30.3502H34.7578C35.6008 30.3502 36.2853 29.6564 36.2853 28.805V23.0269L56.573 13.328C56.9377 13.1553 57.2187 12.8402 57.3562 12.4524C57.4937 12.0676 57.4728 11.6434 57.3024 11.2707Z" transform="translate(158.554 3.53979)" fill="url(#paint5_linear)"/>
<path d="M39.5264 37.0873C39.5028 38.1047 39.3971 39.1053 39.2164 40.0873C38.2052 39.972 37.2655 39.5052 36.5421 38.737C34.8731 36.9609 34.9395 34.1395 36.6901 32.4507C37.2784 31.8798 37.994 31.4985 38.7685 31.3255C39.3127 33.1686 39.5727 35.1085 39.5264 37.0873ZM33.8788 50.0301C30.4706 53.322 26.0016 55.1372 21.295 55.1372C16.2558 55.1354 11.5657 53.1007 8.09035 49.407C4.34927 45.4288 2.7058 40.1896 3.12469 35.101C3.67203 35.2015 4.2256 35.2517 4.77881 35.2517C6.48302 35.2517 8.18025 34.7793 9.66171 33.8531C14.0208 31.1284 15.3797 25.3145 12.6901 20.8973C12.6052 20.7578 12.5164 20.6202 12.4248 20.4881C15.1103 18.9686 18.146 18.1596 21.2884 18.1596C21.2893 18.1596 21.2906 18.1596 21.2915 18.1596C26.3289 18.1596 31.0172 20.1943 34.4924 23.8898C35.7769 25.2531 36.8309 26.7838 37.6375 28.426C36.5057 28.7589 35.4619 29.3652 34.5845 30.2115C31.6164 33.0794 31.5043 37.8611 34.3342 40.8703C35.43 42.0346 36.8639 42.8008 38.3991 43.0835C37.4483 45.6873 35.9186 48.0568 33.8788 50.0301ZM8.70429 23.2686C9.0874 22.8948 9.4852 22.547 9.894 22.2122C9.96317 22.3145 10.0301 22.415 10.0935 22.5191C11.8993 25.4856 10.9872 29.3894 8.05952 31.2214C6.73035 32.0527 5.14303 32.3373 3.63019 32.0527C4.44689 28.8054 6.14064 25.746 8.70429 23.2686ZM22.8172 3.09293H26.9337L31.7032 5.25966V9.52431L27.884 7.78907C27.6878 7.69979 27.4748 7.6533 27.2599 7.6533H22.8172V3.09293ZM36.7006 21.7547C34.6557 19.5805 32.2439 17.8955 29.5317 16.7424C27.3832 15.8311 25.1306 15.288 22.8172 15.1225V10.7462H26.9337L32.6048 13.3221C32.8036 13.4133 33.0166 13.4579 33.2281 13.4579C33.5182 13.4579 33.807 13.3742 34.0577 13.2105C34.4922 12.9241 34.754 12.4368 34.754 11.9124V4.25721C34.754 3.64904 34.401 3.09666 33.8522 2.84558L27.884 0.135766C27.6878 0.0464927 27.4748 0 27.2599 0H21.2915C20.4488 0 19.7659 0.691858 19.7659 1.54553V15.1225C14.8356 15.474 10.2076 17.5403 6.5988 21.0275C2.48305 25.0076 0.141596 30.3714 0.00618374 36.1332C-0.129045 41.8969 1.95755 47.3686 5.88229 51.5403C7.92686 53.7145 10.3386 55.3995 13.0509 56.5526C15.6699 57.6648 18.4431 58.2283 21.2941 58.2283C21.2936 58.2283 21.295 58.2283 21.2941 58.2283C26.788 58.2283 32.0058 56.1118 35.9837 52.2675C40.0998 48.2874 42.4413 42.9236 42.5763 37.1599C42.7119 31.3981 40.625 25.9282 36.7006 21.7547Z" fill="url(#paint6_linear)"/>
<path d="M22.8845 46.488C22.2596 47.0927 21.4407 47.4252 20.5783 47.4252C19.6546 47.4252 18.7952 47.0507 18.1581 46.3747C17.542 45.7188 17.2141 44.8602 17.2358 43.9558C17.2569 43.0497 17.6244 42.2074 18.2707 41.5844C18.8951 40.9797 19.7144 40.6472 20.5769 40.6472C21.5006 40.6472 22.36 41.0217 22.9971 41.6977C24.2689 43.0496 24.2186 45.2 22.8845 46.488ZM25.2052 39.5638C23.9868 38.2685 22.3428 37.556 20.5769 37.556C18.9268 37.556 17.3598 38.1918 16.1651 39.3464C14.9291 40.5394 14.226 42.1508 14.1854 43.8809C14.1449 45.6129 14.7715 47.2553 15.9499 48.5086C17.1684 49.8039 18.812 50.5164 20.5783 50.5164C22.228 50.5164 23.7954 49.8825 24.99 48.726C27.5415 46.2614 27.6382 42.1508 25.2052 39.5638Z" fill="url(#paint7_linear)"/>
<defs>
<linearGradient id="paint0_linear" x2="1" gradientUnits="userSpaceOnUse" gradientTransform="matrix(-85.6912 -17.6166 18.7748 -85.4449 117.765 -32.9307)">
<stop stop-color="#F2994A"/>
<stop offset="1" stop-color="#F24C4C"/>
</linearGradient>
<linearGradient id="paint1_linear" x2="1" gradientUnits="userSpaceOnUse" gradientTransform="matrix(-85.6912 -17.6166 18.7748 -85.4449 117.765 -32.9307)">
<stop stop-color="#F2994A"/>
<stop offset="1" stop-color="#F24C4C"/>
</linearGradient>
<linearGradient id="paint2_linear" x2="1" gradientUnits="userSpaceOnUse" gradientTransform="matrix(-85.6912 -17.6166 18.7748 -85.4449 117.765 -32.9307)">
<stop stop-color="#F2994A"/>
<stop offset="1" stop-color="#F24C4C"/>
</linearGradient>
<linearGradient id="paint3_linear" x2="1" gradientUnits="userSpaceOnUse" gradientTransform="matrix(-85.6912 -17.6166 18.7748 -85.4449 117.765 -32.9307)">
<stop stop-color="#F2994A"/>
<stop offset="1" stop-color="#F24C4C"/>
</linearGradient>
<linearGradient id="paint4_linear" x2="1" gradientUnits="userSpaceOnUse" gradientTransform="matrix(-85.6912 -17.6166 18.7748 -85.4449 117.765 -32.9307)">
<stop stop-color="#F2994A"/>
<stop offset="1" stop-color="#F24C4C"/>
</linearGradient>
<linearGradient id="paint5_linear" x2="1" gradientUnits="userSpaceOnUse" gradientTransform="matrix(78 -35 -35.6982 -79.556 46.2956 110.238)">
<stop stop-color="#263C8F"/>
<stop offset="1" stop-color="#954CF2"/>
</linearGradient>
<linearGradient id="paint6_linear" x2="1" gradientUnits="userSpaceOnUse" gradientTransform="matrix(52 8 -8.6744 51.7738 25.3372 24.1131)">
<stop offset="0.0525818" stop-color="#F2994A"/>
<stop offset="1" stop-color="#F24C4C"/>
</linearGradient>
<linearGradient id="paint7_linear" x2="1" gradientUnits="userSpaceOnUse" gradientTransform="matrix(52 8 -8.6744 51.7738 25.3372 24.1131)">
<stop offset="0.0525818" stop-color="#F2994A"/>
<stop offset="1" stop-color="#F24C4C"/>
</linearGradient>
</defs>
</svg>
